G04*
G04 #@! TF.GenerationSoftware,Altium Limited,Altium Designer,20.0.13 (296)*
G04*
G04 Layer_Color=8388736*
%FSLAX44Y44*%
%MOMM*%
G71*
G01*
G75*
%ADD11C,0.2000*%
%ADD12C,0.2500*%
%ADD17R,0.9532X2.0032*%
%ADD18R,3.5532X3.5532*%
%ADD19O,0.5032X1.1532*%
%ADD20O,1.1532X0.5032*%
%ADD21R,4.2032X1.2032*%
%ADD22R,0.6032X1.5532*%
G04:AMPARAMS|DCode=23|XSize=1.7532mm|YSize=1.4832mm|CornerRadius=0.4216mm|HoleSize=0mm|Usage=FLASHONLY|Rotation=90.000|XOffset=0mm|YOffset=0mm|HoleType=Round|Shape=RoundedRectangle|*
%AMROUNDEDRECTD23*
21,1,1.7532,0.6400,0,0,90.0*
21,1,0.9100,1.4832,0,0,90.0*
1,1,0.8432,0.3200,0.4550*
1,1,0.8432,0.3200,-0.4550*
1,1,0.8432,-0.3200,-0.4550*
1,1,0.8432,-0.3200,0.4550*
%
%ADD23ROUNDEDRECTD23*%
G04:AMPARAMS|DCode=24|XSize=1.7532mm|YSize=1.4532mm|CornerRadius=0.4141mm|HoleSize=0mm|Usage=FLASHONLY|Rotation=90.000|XOffset=0mm|YOffset=0mm|HoleType=Round|Shape=RoundedRectangle|*
%AMROUNDEDRECTD24*
21,1,1.7532,0.6250,0,0,90.0*
21,1,0.9250,1.4532,0,0,90.0*
1,1,0.8282,0.3125,0.4625*
1,1,0.8282,0.3125,-0.4625*
1,1,0.8282,-0.3125,-0.4625*
1,1,0.8282,-0.3125,0.4625*
%
%ADD24ROUNDEDRECTD24*%
%ADD25R,2.2032X1.1032*%
%ADD26R,1.1532X1.0532*%
G04:AMPARAMS|DCode=27|XSize=1.1032mm|YSize=1.3532mm|CornerRadius=0mm|HoleSize=0mm|Usage=FLASHONLY|Rotation=0.000|XOffset=0mm|YOffset=0mm|HoleType=Round|Shape=Octagon|*
%AMOCTAGOND27*
4,1,8,-0.2758,0.6766,0.2758,0.6766,0.5516,0.4008,0.5516,-0.4008,0.2758,-0.6766,-0.2758,-0.6766,-0.5516,-0.4008,-0.5516,0.4008,-0.2758,0.6766,0.0*
%
%ADD27OCTAGOND27*%

G04:AMPARAMS|DCode=28|XSize=1.1032mm|YSize=1.3532mm|CornerRadius=0.3266mm|HoleSize=0mm|Usage=FLASHONLY|Rotation=0.000|XOffset=0mm|YOffset=0mm|HoleType=Round|Shape=RoundedRectangle|*
%AMROUNDEDRECTD28*
21,1,1.1032,0.7000,0,0,0.0*
21,1,0.4500,1.3532,0,0,0.0*
1,1,0.6532,0.2250,-0.3500*
1,1,0.6532,-0.2250,-0.3500*
1,1,0.6532,-0.2250,0.3500*
1,1,0.6532,0.2250,0.3500*
%
%ADD28ROUNDEDRECTD28*%
%ADD29R,1.2032X4.2032*%
%ADD30R,1.1032X1.2032*%
%ADD31O,1.8532X0.6032*%
%ADD32R,1.0532X1.1532*%
%ADD33R,5.2032X5.2032*%
%ADD34R,1.4032X1.4032*%
%ADD35R,1.2032X1.1032*%
%ADD36R,0.8032X1.3032*%
%ADD37R,1.1032X1.0032*%
%ADD38R,1.4032X1.4032*%
%ADD39R,4.0032X2.2032*%
%ADD40R,1.7032X2.2032*%
%ADD41R,1.6032X1.5032*%
%ADD42C,1.7032*%
%ADD43C,3.2032*%
%ADD44O,1.4532X1.1532*%
%ADD45O,1.1532X1.7532*%
%ADD46O,2.7032X1.7032*%
%ADD47R,2.2032X2.2032*%
%ADD48C,0.7032*%
G36*
X329635Y344656D02*
X329885Y344628D01*
X330135Y344600D01*
X330440Y344545D01*
X330746Y344461D01*
X331440Y344267D01*
X331801Y344128D01*
X332189Y343934D01*
X332550Y343740D01*
X332883Y343517D01*
X333244Y343240D01*
X333550Y342934D01*
X333577Y342907D01*
X333605Y342879D01*
X333688Y342796D01*
X333772Y342685D01*
X333994Y342407D01*
X334244Y342018D01*
X334493Y341546D01*
X334688Y340991D01*
X334854Y340380D01*
X334882Y340075D01*
X334910Y339742D01*
Y339714D01*
Y339631D01*
X334882Y339492D01*
X334854Y339325D01*
X334827Y339103D01*
X334771Y338853D01*
X334688Y338576D01*
X334577Y338270D01*
X334410Y337965D01*
X334244Y337632D01*
X334022Y337299D01*
X333744Y336965D01*
X333411Y336632D01*
X333050Y336299D01*
X332634Y335994D01*
X332134Y335689D01*
X332161D01*
X332217Y335661D01*
X332300D01*
X332411Y335605D01*
X332717Y335522D01*
X333078Y335355D01*
X333494Y335133D01*
X333938Y334856D01*
X334383Y334495D01*
X334771Y334078D01*
X334827Y334023D01*
X334938Y333856D01*
X335076Y333606D01*
X335271Y333245D01*
X335465Y332829D01*
X335604Y332301D01*
X335715Y331746D01*
X335771Y331108D01*
Y331080D01*
Y330997D01*
Y330858D01*
X335743Y330691D01*
X335715Y330469D01*
X335660Y330219D01*
X335604Y329914D01*
X335549Y329608D01*
X335326Y328942D01*
X335160Y328581D01*
X334993Y328193D01*
X334771Y327832D01*
X334521Y327471D01*
X334244Y327110D01*
X333910Y326777D01*
X333883Y326749D01*
X333827Y326693D01*
X333716Y326610D01*
X333577Y326499D01*
X333383Y326360D01*
X333189Y326222D01*
X332911Y326055D01*
X332634Y325888D01*
X332328Y325722D01*
X331967Y325555D01*
X331578Y325416D01*
X331190Y325278D01*
X330746Y325167D01*
X330301Y325083D01*
X329802Y325028D01*
X329302Y325000D01*
X329052D01*
X328858Y325028D01*
X328636Y325056D01*
X328386Y325083D01*
X328108Y325139D01*
X327775Y325194D01*
X327109Y325361D01*
X326387Y325639D01*
X325998Y325805D01*
X325665Y325999D01*
X325304Y326249D01*
X324971Y326499D01*
X324943Y326527D01*
X324888Y326582D01*
X324804Y326666D01*
X324693Y326777D01*
X324555Y326916D01*
X324416Y327110D01*
X324249Y327304D01*
X324083Y327554D01*
X323916Y327832D01*
X323722Y328109D01*
X323416Y328776D01*
X323167Y329553D01*
X323055Y329969D01*
X323000Y330414D01*
X326554Y330858D01*
Y330830D01*
Y330802D01*
X326581Y330636D01*
X326637Y330386D01*
X326720Y330080D01*
X326859Y329747D01*
X326998Y329386D01*
X327220Y329053D01*
X327470Y328748D01*
X327497Y328720D01*
X327608Y328637D01*
X327775Y328526D01*
X327969Y328415D01*
X328247Y328276D01*
X328552Y328165D01*
X328886Y328082D01*
X329274Y328054D01*
X329330D01*
X329469Y328082D01*
X329663Y328109D01*
X329940Y328165D01*
X330246Y328276D01*
X330551Y328415D01*
X330885Y328637D01*
X331190Y328914D01*
X331218Y328942D01*
X331329Y329081D01*
X331440Y329275D01*
X331606Y329525D01*
X331745Y329858D01*
X331884Y330275D01*
X331967Y330747D01*
X331995Y331274D01*
Y331302D01*
Y331330D01*
Y331496D01*
X331967Y331746D01*
X331912Y332079D01*
X331801Y332440D01*
X331662Y332801D01*
X331468Y333162D01*
X331218Y333495D01*
X331190Y333523D01*
X331079Y333634D01*
X330912Y333773D01*
X330718Y333912D01*
X330440Y334078D01*
X330135Y334189D01*
X329802Y334300D01*
X329413Y334328D01*
X329135D01*
X328941Y334300D01*
X328691Y334273D01*
X328386Y334217D01*
X328080Y334134D01*
X327720Y334050D01*
X328108Y337021D01*
X328358D01*
X328636Y337049D01*
X328969Y337077D01*
X329330Y337160D01*
X329718Y337271D01*
X330079Y337438D01*
X330412Y337660D01*
X330440Y337687D01*
X330551Y337798D01*
X330662Y337937D01*
X330829Y338159D01*
X330968Y338409D01*
X331107Y338714D01*
X331190Y339075D01*
X331218Y339492D01*
Y339547D01*
Y339659D01*
X331190Y339825D01*
X331134Y340047D01*
X331079Y340297D01*
X330968Y340547D01*
X330829Y340825D01*
X330635Y341047D01*
X330607Y341074D01*
X330523Y341130D01*
X330412Y341241D01*
X330218Y341352D01*
X329996Y341435D01*
X329746Y341546D01*
X329413Y341602D01*
X329080Y341630D01*
X328913D01*
X328747Y341602D01*
X328525Y341546D01*
X328275Y341463D01*
X327997Y341352D01*
X327720Y341185D01*
X327470Y340963D01*
X327442Y340936D01*
X327359Y340852D01*
X327248Y340686D01*
X327109Y340464D01*
X326970Y340214D01*
X326859Y339880D01*
X326748Y339492D01*
X326665Y339048D01*
X323278Y339603D01*
Y339631D01*
X323305Y339686D01*
Y339770D01*
X323333Y339908D01*
X323416Y340214D01*
X323527Y340630D01*
X323694Y341074D01*
X323861Y341546D01*
X324083Y341991D01*
X324333Y342407D01*
X324360Y342462D01*
X324471Y342574D01*
X324638Y342768D01*
X324860Y343018D01*
X325138Y343268D01*
X325471Y343545D01*
X325887Y343823D01*
X326331Y344073D01*
X326359D01*
X326387Y344100D01*
X326554Y344156D01*
X326831Y344267D01*
X327164Y344378D01*
X327581Y344489D01*
X328080Y344600D01*
X328608Y344656D01*
X329191Y344683D01*
X329441D01*
X329635Y344656D01*
D02*
G37*
G36*
X163000Y43989D02*
X150340Y36188D01*
X163000D01*
Y32607D01*
X143789D01*
Y36355D01*
X156726Y44295D01*
X143789D01*
Y47876D01*
X163000D01*
Y43989D01*
D02*
G37*
G36*
Y25000D02*
X143789D01*
Y28887D01*
X163000D01*
Y25000D01*
D02*
G37*
G36*
X461438Y332079D02*
X463826D01*
Y328859D01*
X461438D01*
Y325000D01*
X457884D01*
Y328859D01*
X450000D01*
Y332052D01*
X458329Y344295D01*
X461438D01*
Y332079D01*
D02*
G37*
G36*
X856604Y341296D02*
X856576Y341269D01*
X856521Y341213D01*
X856438Y341130D01*
X856326Y341019D01*
X856188Y340852D01*
X856021Y340658D01*
X855827Y340436D01*
X855605Y340158D01*
X855383Y339853D01*
X855133Y339520D01*
X854855Y339159D01*
X854577Y338770D01*
X854300Y338326D01*
X854022Y337882D01*
X853717Y337382D01*
X853411Y336855D01*
X853384Y336827D01*
X853328Y336716D01*
X853245Y336577D01*
X853134Y336355D01*
X853023Y336105D01*
X852856Y335772D01*
X852690Y335411D01*
X852495Y335022D01*
X852301Y334578D01*
X852107Y334106D01*
X851885Y333606D01*
X851690Y333079D01*
X851301Y331941D01*
X850940Y330747D01*
Y330719D01*
X850913Y330608D01*
X850857Y330441D01*
X850802Y330191D01*
X850746Y329914D01*
X850691Y329608D01*
X850607Y329220D01*
X850524Y328831D01*
X850441Y328387D01*
X850385Y327943D01*
X850247Y326971D01*
X850163Y325972D01*
X850135Y325000D01*
X846582D01*
Y325056D01*
Y325167D01*
X846610Y325389D01*
Y325694D01*
X846637Y326055D01*
X846693Y326471D01*
X846748Y326971D01*
X846832Y327499D01*
X846915Y328082D01*
X847026Y328720D01*
X847165Y329386D01*
X847304Y330108D01*
X847498Y330830D01*
X847692Y331580D01*
X847942Y332329D01*
X848220Y333107D01*
X848248Y333162D01*
X848303Y333301D01*
X848386Y333523D01*
X848497Y333801D01*
X848664Y334161D01*
X848858Y334606D01*
X849081Y335078D01*
X849330Y335605D01*
X849608Y336160D01*
X849913Y336743D01*
X850247Y337382D01*
X850635Y337993D01*
X851440Y339297D01*
X852356Y340547D01*
X844000D01*
Y343962D01*
X856604D01*
Y341296D01*
D02*
G37*
G36*
X594077Y340880D02*
X587108D01*
X586525Y337604D01*
X586553D01*
X586581Y337632D01*
X586747Y337715D01*
X586997Y337798D01*
X587303Y337937D01*
X587691Y338048D01*
X588108Y338131D01*
X588580Y338215D01*
X589052Y338243D01*
X589301D01*
X589468Y338215D01*
X589662Y338187D01*
X589912Y338159D01*
X590190Y338104D01*
X590495Y338021D01*
X591134Y337798D01*
X591495Y337660D01*
X591828Y337493D01*
X592189Y337271D01*
X592550Y337021D01*
X592883Y336743D01*
X593216Y336438D01*
X593244Y336410D01*
X593299Y336355D01*
X593382Y336244D01*
X593494Y336105D01*
X593605Y335938D01*
X593771Y335716D01*
X593910Y335466D01*
X594077Y335189D01*
X594243Y334883D01*
X594382Y334522D01*
X594548Y334134D01*
X594660Y333745D01*
X594771Y333301D01*
X594854Y332829D01*
X594909Y332329D01*
X594937Y331802D01*
Y331774D01*
Y331691D01*
Y331580D01*
X594909Y331413D01*
Y331191D01*
X594854Y330941D01*
X594826Y330663D01*
X594771Y330386D01*
X594604Y329720D01*
X594354Y328998D01*
X594188Y328609D01*
X594021Y328248D01*
X593799Y327887D01*
X593549Y327526D01*
X593521Y327499D01*
X593466Y327415D01*
X593355Y327304D01*
X593216Y327138D01*
X593022Y326943D01*
X592772Y326721D01*
X592494Y326499D01*
X592189Y326277D01*
X591828Y326027D01*
X591439Y325805D01*
X591023Y325583D01*
X590551Y325389D01*
X590051Y325222D01*
X589524Y325111D01*
X588941Y325028D01*
X588330Y325000D01*
X588080D01*
X587886Y325028D01*
X587663Y325056D01*
X587386Y325083D01*
X587108Y325111D01*
X586775Y325167D01*
X586109Y325333D01*
X585359Y325611D01*
X584998Y325750D01*
X584637Y325944D01*
X584304Y326166D01*
X583971Y326416D01*
X583943Y326444D01*
X583888Y326471D01*
X583805Y326555D01*
X583694Y326666D01*
X583582Y326832D01*
X583416Y326999D01*
X583277Y327193D01*
X583111Y327415D01*
X582916Y327693D01*
X582750Y327971D01*
X582444Y328637D01*
X582167Y329386D01*
X582083Y329803D01*
X582000Y330247D01*
X585665Y330636D01*
Y330580D01*
X585692Y330441D01*
X585748Y330191D01*
X585831Y329914D01*
X585942Y329608D01*
X586109Y329275D01*
X586331Y328970D01*
X586581Y328665D01*
X586609Y328637D01*
X586720Y328554D01*
X586886Y328442D01*
X587108Y328304D01*
X587358Y328165D01*
X587663Y328054D01*
X588024Y327971D01*
X588385Y327943D01*
X588441D01*
X588580Y327971D01*
X588802Y327998D01*
X589079Y328054D01*
X589385Y328165D01*
X589718Y328331D01*
X590051Y328581D01*
X590356Y328887D01*
X590384Y328942D01*
X590495Y329053D01*
X590606Y329275D01*
X590773Y329608D01*
X590912Y329997D01*
X591050Y330469D01*
X591134Y331052D01*
X591161Y331718D01*
Y331746D01*
Y331802D01*
Y331885D01*
Y332024D01*
X591134Y332329D01*
X591050Y332718D01*
X590967Y333162D01*
X590828Y333606D01*
X590634Y334023D01*
X590356Y334384D01*
X590329Y334411D01*
X590218Y334522D01*
X590023Y334661D01*
X589801Y334856D01*
X589496Y335022D01*
X589135Y335161D01*
X588718Y335272D01*
X588274Y335300D01*
X588108D01*
X587997Y335272D01*
X587719Y335216D01*
X587330Y335133D01*
X586886Y334967D01*
X586414Y334717D01*
X586164Y334550D01*
X585914Y334356D01*
X585665Y334134D01*
X585415Y333884D01*
X582444Y334300D01*
X584332Y344323D01*
X594077D01*
Y340880D01*
D02*
G37*
G36*
X720385Y344656D02*
X720579D01*
X720801Y344628D01*
X721301Y344517D01*
X721856Y344378D01*
X722467Y344156D01*
X723078Y343851D01*
X723355Y343656D01*
X723633Y343434D01*
X723661D01*
X723688Y343379D01*
X723772Y343295D01*
X723855Y343212D01*
X723994Y343073D01*
X724105Y342934D01*
X724410Y342546D01*
X724716Y342018D01*
X725021Y341408D01*
X725299Y340713D01*
X725493Y339880D01*
X721939Y339492D01*
Y339547D01*
X721912Y339659D01*
X721856Y339853D01*
X721801Y340103D01*
X721717Y340353D01*
X721579Y340630D01*
X721440Y340880D01*
X721245Y341102D01*
X721218Y341130D01*
X721134Y341185D01*
X721023Y341269D01*
X720857Y341380D01*
X720662Y341463D01*
X720413Y341546D01*
X720107Y341602D01*
X719802Y341630D01*
X719746D01*
X719607Y341602D01*
X719385Y341574D01*
X719108Y341491D01*
X718802Y341380D01*
X718469Y341185D01*
X718136Y340936D01*
X717831Y340575D01*
X717803Y340519D01*
X717747Y340464D01*
X717692Y340353D01*
X717636Y340242D01*
X717553Y340075D01*
X717497Y339880D01*
X717414Y339631D01*
X717303Y339353D01*
X717220Y339048D01*
X717137Y338687D01*
X717053Y338298D01*
X716970Y337854D01*
X716915Y337354D01*
X716859Y336799D01*
X716803Y336216D01*
X716831Y336244D01*
X716859Y336299D01*
X716942Y336355D01*
X717053Y336466D01*
X717192Y336605D01*
X717359Y336743D01*
X717747Y337049D01*
X718247Y337326D01*
X718830Y337604D01*
X719163Y337715D01*
X719496Y337771D01*
X719857Y337826D01*
X720246Y337854D01*
X720468D01*
X720635Y337826D01*
X720829Y337798D01*
X721051Y337771D01*
X721329Y337715D01*
X721606Y337632D01*
X722217Y337410D01*
X722550Y337271D01*
X722883Y337104D01*
X723216Y336910D01*
X723550Y336660D01*
X723883Y336382D01*
X724188Y336077D01*
X724216Y336049D01*
X724271Y335994D01*
X724355Y335911D01*
X724438Y335772D01*
X724577Y335577D01*
X724716Y335383D01*
X724855Y335133D01*
X725021Y334856D01*
X725188Y334550D01*
X725326Y334189D01*
X725465Y333828D01*
X725604Y333412D01*
X725687Y332995D01*
X725771Y332524D01*
X725826Y332052D01*
X725854Y331524D01*
Y331496D01*
Y331385D01*
Y331246D01*
X725826Y331024D01*
X725798Y330774D01*
X725771Y330497D01*
X725715Y330164D01*
X725632Y329831D01*
X725437Y329053D01*
X725299Y328665D01*
X725104Y328276D01*
X724910Y327887D01*
X724688Y327499D01*
X724410Y327110D01*
X724105Y326777D01*
X724077Y326749D01*
X724022Y326693D01*
X723938Y326610D01*
X723800Y326499D01*
X723633Y326360D01*
X723411Y326222D01*
X723189Y326055D01*
X722911Y325888D01*
X722606Y325722D01*
X722273Y325555D01*
X721912Y325416D01*
X721495Y325278D01*
X721079Y325167D01*
X720635Y325083D01*
X720163Y325028D01*
X719663Y325000D01*
X719524D01*
X719385Y325028D01*
X719191D01*
X718941Y325083D01*
X718636Y325111D01*
X718330Y325194D01*
X717969Y325278D01*
X717608Y325389D01*
X717220Y325555D01*
X716803Y325722D01*
X716415Y325944D01*
X715998Y326194D01*
X715610Y326499D01*
X715221Y326860D01*
X714860Y327249D01*
X714832Y327276D01*
X714777Y327360D01*
X714694Y327499D01*
X714582Y327693D01*
X714416Y327943D01*
X714277Y328248D01*
X714110Y328609D01*
X713944Y329025D01*
X713750Y329525D01*
X713583Y330053D01*
X713444Y330663D01*
X713305Y331358D01*
X713167Y332079D01*
X713083Y332884D01*
X713028Y333745D01*
X713000Y334689D01*
Y334717D01*
Y334744D01*
Y334828D01*
Y334911D01*
Y335189D01*
X713028Y335550D01*
X713055Y335994D01*
X713111Y336494D01*
X713167Y337049D01*
X713250Y337632D01*
X713333Y338243D01*
X713472Y338881D01*
X713639Y339520D01*
X713833Y340158D01*
X714055Y340741D01*
X714305Y341324D01*
X714610Y341852D01*
X714943Y342324D01*
X714971Y342351D01*
X715027Y342435D01*
X715138Y342546D01*
X715304Y342685D01*
X715499Y342879D01*
X715721Y343073D01*
X715998Y343295D01*
X716304Y343517D01*
X716665Y343712D01*
X717026Y343934D01*
X717470Y344128D01*
X717914Y344323D01*
X718386Y344461D01*
X718913Y344572D01*
X719441Y344656D01*
X720024Y344683D01*
X720246D01*
X720385Y344656D01*
D02*
G37*
G36*
X70440Y325000D02*
X66747D01*
Y338909D01*
X66720Y338881D01*
X66664Y338826D01*
X66553Y338742D01*
X66386Y338604D01*
X66192Y338437D01*
X65970Y338270D01*
X65692Y338076D01*
X65387Y337854D01*
X65054Y337632D01*
X64693Y337410D01*
X64304Y337160D01*
X63888Y336938D01*
X62999Y336521D01*
X62000Y336133D01*
Y339464D01*
X62028D01*
X62056Y339492D01*
X62139Y339520D01*
X62250Y339547D01*
X62527Y339686D01*
X62916Y339853D01*
X63388Y340075D01*
X63916Y340380D01*
X64499Y340769D01*
X65109Y341213D01*
X65137Y341241D01*
X65193Y341269D01*
X65276Y341352D01*
X65387Y341463D01*
X65692Y341741D01*
X66026Y342102D01*
X66414Y342546D01*
X66803Y343101D01*
X67164Y343684D01*
X67441Y344323D01*
X70440D01*
Y325000D01*
D02*
G37*
G36*
X979691Y344656D02*
X979941Y344628D01*
X980190Y344600D01*
X980496Y344572D01*
X980801Y344517D01*
X981495Y344350D01*
X982217Y344100D01*
X982550Y343934D01*
X982911Y343740D01*
X983216Y343517D01*
X983522Y343268D01*
X983550Y343240D01*
X983577Y343212D01*
X983661Y343129D01*
X983772Y343018D01*
X983883Y342879D01*
X983994Y342712D01*
X984299Y342296D01*
X984577Y341768D01*
X984799Y341185D01*
X984993Y340491D01*
X985021Y340103D01*
X985049Y339714D01*
Y339686D01*
Y339659D01*
Y339492D01*
X985021Y339242D01*
X984966Y338909D01*
X984882Y338548D01*
X984743Y338159D01*
X984577Y337743D01*
X984327Y337326D01*
X984299Y337271D01*
X984188Y337160D01*
X984049Y336965D01*
X983827Y336743D01*
X983550Y336466D01*
X983216Y336216D01*
X982828Y335966D01*
X982384Y335744D01*
X982411D01*
X982467Y335716D01*
X982550Y335689D01*
X982661Y335633D01*
X982939Y335466D01*
X983300Y335244D01*
X983689Y334994D01*
X984105Y334661D01*
X984494Y334273D01*
X984827Y333828D01*
X984855Y333773D01*
X984966Y333606D01*
X985104Y333356D01*
X985243Y333023D01*
X985410Y332607D01*
X985521Y332107D01*
X985632Y331580D01*
X985660Y330997D01*
Y330969D01*
Y330886D01*
Y330747D01*
X985632Y330552D01*
X985604Y330330D01*
X985576Y330053D01*
X985521Y329775D01*
X985437Y329470D01*
X985243Y328776D01*
X985104Y328415D01*
X984938Y328054D01*
X984743Y327693D01*
X984494Y327332D01*
X984244Y326999D01*
X983938Y326666D01*
X983911Y326638D01*
X983855Y326582D01*
X983772Y326499D01*
X983633Y326416D01*
X983466Y326277D01*
X983244Y326138D01*
X983022Y325999D01*
X982745Y325833D01*
X982439Y325666D01*
X982078Y325527D01*
X981717Y325389D01*
X981329Y325250D01*
X980884Y325167D01*
X980413Y325083D01*
X979941Y325028D01*
X979413Y325000D01*
X979163D01*
X978969Y325028D01*
X978747Y325056D01*
X978497Y325083D01*
X978219Y325111D01*
X977886Y325167D01*
X977192Y325333D01*
X976470Y325583D01*
X976109Y325722D01*
X975749Y325916D01*
X975388Y326110D01*
X975054Y326360D01*
X975027Y326388D01*
X974971Y326444D01*
X974860Y326527D01*
X974721Y326666D01*
X974583Y326832D01*
X974416Y327027D01*
X974221Y327276D01*
X974027Y327526D01*
X973833Y327832D01*
X973639Y328165D01*
X973472Y328526D01*
X973333Y328942D01*
X973194Y329359D01*
X973083Y329831D01*
X973028Y330303D01*
X973000Y330830D01*
Y330858D01*
Y330913D01*
Y330997D01*
Y331108D01*
X973028Y331413D01*
X973083Y331774D01*
X973194Y332218D01*
X973305Y332718D01*
X973500Y333218D01*
X973750Y333717D01*
Y333745D01*
X973777Y333773D01*
X973888Y333939D01*
X974083Y334161D01*
X974360Y334467D01*
X974694Y334800D01*
X975110Y335133D01*
X975610Y335439D01*
X976193Y335744D01*
X976165D01*
X976137Y335772D01*
X975971Y335855D01*
X975721Y335994D01*
X975415Y336160D01*
X975054Y336410D01*
X974721Y336688D01*
X974388Y337021D01*
X974110Y337382D01*
X974083Y337438D01*
X973999Y337576D01*
X973916Y337771D01*
X973805Y338076D01*
X973666Y338409D01*
X973583Y338826D01*
X973500Y339242D01*
X973472Y339714D01*
Y339742D01*
Y339797D01*
Y339908D01*
X973500Y340075D01*
X973528Y340242D01*
X973555Y340464D01*
X973666Y340963D01*
X973833Y341519D01*
X974110Y342129D01*
X974277Y342407D01*
X974471Y342712D01*
X974721Y342990D01*
X974971Y343268D01*
X974999Y343295D01*
X975054Y343323D01*
X975138Y343406D01*
X975249Y343490D01*
X975415Y343601D01*
X975582Y343712D01*
X975804Y343851D01*
X976082Y343989D01*
X976359Y344100D01*
X976665Y344239D01*
X977026Y344350D01*
X977414Y344461D01*
X977831Y344545D01*
X978275Y344628D01*
X978747Y344656D01*
X979247Y344683D01*
X979524D01*
X979691Y344656D01*
D02*
G37*
G36*
X200274Y344295D02*
X200524Y344267D01*
X200801Y344239D01*
X201107Y344184D01*
X201440Y344128D01*
X202162Y343934D01*
X202883Y343656D01*
X203272Y343490D01*
X203605Y343295D01*
X203966Y343045D01*
X204271Y342768D01*
X204299Y342740D01*
X204355Y342712D01*
X204410Y342601D01*
X204521Y342490D01*
X204660Y342351D01*
X204799Y342157D01*
X204938Y341963D01*
X205104Y341713D01*
X205382Y341158D01*
X205660Y340519D01*
X205771Y340158D01*
X205826Y339770D01*
X205882Y339353D01*
X205909Y338937D01*
Y338881D01*
Y338714D01*
X205882Y338465D01*
X205854Y338159D01*
X205798Y337771D01*
X205715Y337354D01*
X205604Y336910D01*
X205438Y336466D01*
X205410Y336410D01*
X205354Y336272D01*
X205243Y336022D01*
X205077Y335716D01*
X204882Y335355D01*
X204632Y334939D01*
X204327Y334495D01*
X203966Y334023D01*
X203938Y333995D01*
X203827Y333856D01*
X203661Y333662D01*
X203411Y333384D01*
X203078Y333051D01*
X202661Y332607D01*
X202162Y332135D01*
X201551Y331552D01*
X201523Y331524D01*
X201467Y331496D01*
X201384Y331413D01*
X201273Y331302D01*
X200968Y331024D01*
X200607Y330691D01*
X200246Y330330D01*
X199885Y329969D01*
X199552Y329664D01*
X199441Y329525D01*
X199330Y329414D01*
X199302Y329386D01*
X199247Y329331D01*
X199163Y329220D01*
X199052Y329081D01*
X198802Y328776D01*
X198580Y328415D01*
X205909D01*
Y325000D01*
X193000D01*
Y325028D01*
Y325083D01*
X193028Y325194D01*
X193055Y325333D01*
X193083Y325500D01*
X193111Y325694D01*
X193222Y326194D01*
X193389Y326749D01*
X193611Y327360D01*
X193888Y328026D01*
X194249Y328665D01*
Y328692D01*
X194305Y328748D01*
X194360Y328859D01*
X194471Y328970D01*
X194582Y329164D01*
X194749Y329359D01*
X194943Y329608D01*
X195165Y329886D01*
X195415Y330219D01*
X195721Y330552D01*
X196054Y330941D01*
X196443Y331358D01*
X196859Y331774D01*
X197331Y332246D01*
X197831Y332746D01*
X198386Y333273D01*
X198414Y333301D01*
X198497Y333384D01*
X198608Y333495D01*
X198775Y333662D01*
X198997Y333828D01*
X199219Y334050D01*
X199718Y334550D01*
X200218Y335078D01*
X200718Y335605D01*
X200940Y335827D01*
X201162Y336077D01*
X201329Y336272D01*
X201440Y336438D01*
X201467Y336494D01*
X201551Y336632D01*
X201690Y336855D01*
X201828Y337160D01*
X201967Y337493D01*
X202106Y337882D01*
X202189Y338270D01*
X202217Y338687D01*
Y338714D01*
Y338742D01*
Y338881D01*
X202189Y339131D01*
X202134Y339409D01*
X202050Y339714D01*
X201939Y340019D01*
X201773Y340325D01*
X201551Y340602D01*
X201523Y340630D01*
X201440Y340713D01*
X201273Y340825D01*
X201079Y340936D01*
X200801Y341047D01*
X200496Y341158D01*
X200135Y341241D01*
X199718Y341269D01*
X199524D01*
X199302Y341241D01*
X199052Y341185D01*
X198747Y341102D01*
X198441Y340963D01*
X198136Y340797D01*
X197858Y340575D01*
X197831Y340547D01*
X197747Y340436D01*
X197636Y340269D01*
X197525Y340019D01*
X197386Y339714D01*
X197275Y339297D01*
X197164Y338826D01*
X197109Y338270D01*
X193444Y338631D01*
Y338659D01*
X193472Y338770D01*
Y338909D01*
X193528Y339131D01*
X193555Y339381D01*
X193638Y339659D01*
X193722Y339964D01*
X193805Y340325D01*
X194083Y341019D01*
X194416Y341741D01*
X194638Y342102D01*
X194888Y342435D01*
X195165Y342712D01*
X195471Y342990D01*
X195499Y343018D01*
X195554Y343045D01*
X195637Y343101D01*
X195776Y343212D01*
X195943Y343295D01*
X196165Y343406D01*
X196387Y343545D01*
X196665Y343656D01*
X196970Y343795D01*
X197303Y343906D01*
X198025Y344128D01*
X198886Y344267D01*
X199330Y344295D01*
X199802Y344323D01*
X200079D01*
X200274Y344295D01*
D02*
G37*
%LPC*%
G36*
X457884Y338687D02*
X453415Y332079D01*
X457884D01*
Y338687D01*
D02*
G37*
G36*
X719663Y335133D02*
X719496D01*
X719274Y335078D01*
X719024Y335022D01*
X718747Y334911D01*
X718441Y334772D01*
X718136Y334550D01*
X717858Y334273D01*
X717831Y334245D01*
X717747Y334106D01*
X717636Y333912D01*
X717497Y333662D01*
X717359Y333301D01*
X717248Y332884D01*
X717164Y332385D01*
X717137Y331802D01*
Y331774D01*
Y331718D01*
Y331635D01*
Y331496D01*
X717192Y331191D01*
X717248Y330774D01*
X717331Y330330D01*
X717470Y329858D01*
X717664Y329414D01*
X717942Y329025D01*
X717969Y328998D01*
X718081Y328887D01*
X718275Y328720D01*
X718497Y328554D01*
X718774Y328359D01*
X719080Y328220D01*
X719441Y328109D01*
X719829Y328054D01*
X719996D01*
X720190Y328109D01*
X720440Y328165D01*
X720690Y328248D01*
X720995Y328387D01*
X721273Y328581D01*
X721551Y328831D01*
X721579Y328859D01*
X721662Y328998D01*
X721773Y329192D01*
X721912Y329470D01*
X722023Y329831D01*
X722134Y330275D01*
X722217Y330830D01*
X722245Y331469D01*
Y331496D01*
Y331552D01*
Y331663D01*
Y331774D01*
X722217Y332107D01*
X722161Y332524D01*
X722050Y332968D01*
X721939Y333440D01*
X721745Y333884D01*
X721495Y334245D01*
X721468Y334273D01*
X721356Y334384D01*
X721218Y334522D01*
X720995Y334689D01*
X720718Y334856D01*
X720413Y334994D01*
X720052Y335106D01*
X719663Y335133D01*
D02*
G37*
G36*
X979274Y341768D02*
X979108D01*
X978913Y341741D01*
X978663Y341685D01*
X978386Y341602D01*
X978108Y341491D01*
X977831Y341352D01*
X977581Y341130D01*
X977553Y341102D01*
X977497Y341019D01*
X977386Y340880D01*
X977275Y340686D01*
X977164Y340436D01*
X977053Y340158D01*
X976998Y339825D01*
X976970Y339436D01*
Y339381D01*
Y339242D01*
X976998Y339048D01*
X977053Y338798D01*
X977109Y338520D01*
X977220Y338243D01*
X977386Y337965D01*
X977581Y337715D01*
X977608Y337687D01*
X977692Y337632D01*
X977831Y337521D01*
X978025Y337410D01*
X978275Y337299D01*
X978552Y337188D01*
X978886Y337132D01*
X979247Y337104D01*
X979413D01*
X979607Y337132D01*
X979857Y337188D01*
X980135Y337243D01*
X980413Y337354D01*
X980690Y337521D01*
X980940Y337715D01*
X980968Y337743D01*
X981051Y337826D01*
X981134Y337965D01*
X981273Y338187D01*
X981384Y338437D01*
X981468Y338714D01*
X981551Y339075D01*
X981579Y339464D01*
Y339520D01*
Y339631D01*
X981551Y339825D01*
X981495Y340047D01*
X981412Y340325D01*
X981301Y340602D01*
X981162Y340880D01*
X980940Y341130D01*
X980912Y341158D01*
X980829Y341241D01*
X980690Y341324D01*
X980496Y341463D01*
X980246Y341574D01*
X979968Y341657D01*
X979635Y341741D01*
X979274Y341768D01*
D02*
G37*
G36*
X979302Y334189D02*
X979080D01*
X978830Y334134D01*
X978552Y334078D01*
X978219Y333967D01*
X977886Y333801D01*
X977553Y333551D01*
X977275Y333245D01*
X977248Y333190D01*
X977164Y333079D01*
X977081Y332884D01*
X976970Y332635D01*
X976831Y332329D01*
X976748Y331996D01*
X976665Y331607D01*
X976637Y331219D01*
Y331191D01*
Y331163D01*
Y331080D01*
Y330969D01*
X976692Y330691D01*
X976748Y330330D01*
X976831Y329942D01*
X976970Y329553D01*
X977164Y329164D01*
X977414Y328803D01*
X977442Y328776D01*
X977553Y328665D01*
X977720Y328554D01*
X977942Y328387D01*
X978219Y328248D01*
X978552Y328109D01*
X978941Y327998D01*
X979358Y327971D01*
X979552D01*
X979746Y328026D01*
X980024Y328082D01*
X980329Y328165D01*
X980635Y328304D01*
X980940Y328498D01*
X981245Y328776D01*
X981273Y328803D01*
X981356Y328942D01*
X981495Y329109D01*
X981634Y329386D01*
X981773Y329720D01*
X981912Y330136D01*
X981995Y330608D01*
X982023Y331163D01*
Y331191D01*
Y331219D01*
Y331385D01*
X981995Y331635D01*
X981939Y331941D01*
X981828Y332301D01*
X981690Y332662D01*
X981495Y333023D01*
X981245Y333356D01*
X981218Y333384D01*
X981107Y333495D01*
X980940Y333634D01*
X980718Y333773D01*
X980440Y333939D01*
X980107Y334050D01*
X979718Y334161D01*
X979302Y334189D01*
D02*
G37*
%LPD*%
D11*
X125000Y70000D02*
G03*
X115000Y80000I-10000J0D01*
G01*
X125000Y0D02*
Y70000D01*
X0Y80000D02*
X115000D01*
X0D02*
Y365000D01*
X125000Y0D02*
X1300000D01*
Y365000D01*
X0D02*
X1300000D01*
D12*
X1077500Y157500D02*
Y222500D01*
X1072500Y155000D02*
Y222500D01*
X1067500Y155000D02*
Y222500D01*
X1062500Y155000D02*
Y222500D01*
X1057500Y155000D02*
Y222500D01*
X1052500Y155000D02*
Y222500D01*
X1047500Y155000D02*
Y222500D01*
X1042500Y155000D02*
Y222500D01*
D17*
X216750Y56500D02*
D03*
Y22500D02*
D03*
X202250Y56500D02*
D03*
Y22500D02*
D03*
D18*
X998000Y41000D02*
D03*
D19*
X983000Y65000D02*
D03*
X988000D02*
D03*
X993000D02*
D03*
X998000D02*
D03*
X1003000D02*
D03*
X1008000D02*
D03*
X1013000D02*
D03*
Y17000D02*
D03*
X1008000D02*
D03*
X1003000D02*
D03*
X998000D02*
D03*
X993000D02*
D03*
X988000D02*
D03*
X983000D02*
D03*
D20*
X1022000Y56000D02*
D03*
Y51000D02*
D03*
Y46000D02*
D03*
Y41000D02*
D03*
Y36000D02*
D03*
Y31000D02*
D03*
Y26000D02*
D03*
X974000D02*
D03*
Y31000D02*
D03*
Y36000D02*
D03*
Y41000D02*
D03*
Y46000D02*
D03*
Y51000D02*
D03*
Y56000D02*
D03*
D21*
X147000Y60000D02*
D03*
Y10000D02*
D03*
D22*
X812000Y51250D02*
D03*
X818500D02*
D03*
X825000D02*
D03*
X831500D02*
D03*
X838000D02*
D03*
D23*
X836000Y24250D02*
D03*
X814000D02*
D03*
D24*
X794750D02*
D03*
X855250D02*
D03*
D25*
X1282500Y212700D02*
D03*
Y263500D02*
D03*
Y250800D02*
D03*
Y238100D02*
D03*
Y225400D02*
D03*
Y200000D02*
D03*
Y187300D02*
D03*
Y174600D02*
D03*
Y161900D02*
D03*
Y149200D02*
D03*
Y136500D02*
D03*
Y123800D02*
D03*
Y111100D02*
D03*
Y98400D02*
D03*
Y85700D02*
D03*
Y73000D02*
D03*
Y60300D02*
D03*
Y47600D02*
D03*
Y34900D02*
D03*
X1112500D02*
D03*
Y47600D02*
D03*
Y60300D02*
D03*
Y73000D02*
D03*
Y85700D02*
D03*
Y98400D02*
D03*
Y111100D02*
D03*
Y123800D02*
D03*
Y136500D02*
D03*
Y149200D02*
D03*
Y161900D02*
D03*
Y174600D02*
D03*
Y187300D02*
D03*
Y200000D02*
D03*
Y212700D02*
D03*
Y225400D02*
D03*
Y238100D02*
D03*
Y250800D02*
D03*
Y263500D02*
D03*
D26*
X985000Y188500D02*
D03*
Y201500D02*
D03*
X1005000Y201500D02*
D03*
Y188500D02*
D03*
X965000Y188500D02*
D03*
Y201500D02*
D03*
X945000Y188500D02*
D03*
Y201500D02*
D03*
X855000Y188500D02*
D03*
Y201500D02*
D03*
X875000Y201500D02*
D03*
Y188500D02*
D03*
X835000Y188500D02*
D03*
Y201500D02*
D03*
X815000Y188500D02*
D03*
Y201500D02*
D03*
X725000Y188500D02*
D03*
Y201500D02*
D03*
X745000Y201500D02*
D03*
Y188500D02*
D03*
X705000Y188500D02*
D03*
Y201500D02*
D03*
X685000Y188500D02*
D03*
Y201500D02*
D03*
X595000Y188500D02*
D03*
Y201500D02*
D03*
X615000Y201500D02*
D03*
Y188500D02*
D03*
X575000Y188500D02*
D03*
Y201500D02*
D03*
X555000Y188500D02*
D03*
Y201500D02*
D03*
X465000Y188500D02*
D03*
Y201500D02*
D03*
X485000Y201500D02*
D03*
Y188500D02*
D03*
X445000Y188500D02*
D03*
Y201500D02*
D03*
X425000Y188500D02*
D03*
Y201500D02*
D03*
X335000Y188500D02*
D03*
Y201500D02*
D03*
X355000Y201500D02*
D03*
Y188500D02*
D03*
X315000Y188500D02*
D03*
Y201500D02*
D03*
X295000Y188500D02*
D03*
Y201500D02*
D03*
X205000Y188500D02*
D03*
Y201500D02*
D03*
X225000Y201500D02*
D03*
Y188500D02*
D03*
X185000Y188500D02*
D03*
Y201500D02*
D03*
X165000Y188500D02*
D03*
Y201500D02*
D03*
X75000Y188504D02*
D03*
Y201504D02*
D03*
X95000Y201504D02*
D03*
Y188504D02*
D03*
X55000Y188504D02*
D03*
Y201504D02*
D03*
X35000Y188504D02*
D03*
Y201504D02*
D03*
X429000Y39500D02*
D03*
Y26500D02*
D03*
X1047000Y38750D02*
D03*
Y25750D02*
D03*
Y60750D02*
D03*
Y73750D02*
D03*
D27*
X987300Y223750D02*
D03*
X942300D02*
D03*
X857300D02*
D03*
X812300D02*
D03*
X727300D02*
D03*
X682300D02*
D03*
X597300D02*
D03*
X552300D02*
D03*
X467300D02*
D03*
X422300D02*
D03*
X337300D02*
D03*
X292300D02*
D03*
X207300D02*
D03*
X162300D02*
D03*
X77300Y223754D02*
D03*
X32300D02*
D03*
D28*
X987300Y286250D02*
D03*
X1012700Y223750D02*
D03*
Y286250D02*
D03*
X942300D02*
D03*
X967700Y223750D02*
D03*
Y286250D02*
D03*
X857300D02*
D03*
X882700Y223750D02*
D03*
Y286250D02*
D03*
X812300D02*
D03*
X837700Y223750D02*
D03*
Y286250D02*
D03*
X727300D02*
D03*
X752700Y223750D02*
D03*
Y286250D02*
D03*
X682300D02*
D03*
X707700Y223750D02*
D03*
Y286250D02*
D03*
X597300D02*
D03*
X622700Y223750D02*
D03*
Y286250D02*
D03*
X552300D02*
D03*
X577700Y223750D02*
D03*
Y286250D02*
D03*
X467300D02*
D03*
X492700Y223750D02*
D03*
Y286250D02*
D03*
X422300D02*
D03*
X447700Y223750D02*
D03*
Y286250D02*
D03*
X337300D02*
D03*
X362700Y223750D02*
D03*
Y286250D02*
D03*
X292300D02*
D03*
X317700Y223750D02*
D03*
Y286250D02*
D03*
X207300D02*
D03*
X232700Y223750D02*
D03*
Y286250D02*
D03*
X162300D02*
D03*
X187700Y223750D02*
D03*
Y286250D02*
D03*
X77300Y286254D02*
D03*
X102700Y223754D02*
D03*
Y286254D02*
D03*
X32300D02*
D03*
X57700Y223754D02*
D03*
Y286254D02*
D03*
D29*
X955000Y340000D02*
D03*
X1005000D02*
D03*
X825000D02*
D03*
X875000D02*
D03*
X695000D02*
D03*
X745000D02*
D03*
X565000D02*
D03*
X615000D02*
D03*
X435000D02*
D03*
X485000D02*
D03*
X305000D02*
D03*
X355000D02*
D03*
X175000D02*
D03*
X225000D02*
D03*
X45000Y340004D02*
D03*
X95000D02*
D03*
D30*
X570250Y65500D02*
D03*
X583750D02*
D03*
X723250D02*
D03*
X736750D02*
D03*
X1054250Y113000D02*
D03*
X1067750D02*
D03*
D31*
X476750Y65250D02*
D03*
Y58750D02*
D03*
Y52250D02*
D03*
Y45750D02*
D03*
Y39250D02*
D03*
Y32750D02*
D03*
Y26250D02*
D03*
Y19750D02*
D03*
X547250Y65250D02*
D03*
Y58750D02*
D03*
Y52250D02*
D03*
Y45750D02*
D03*
Y39250D02*
D03*
Y32750D02*
D03*
X547250Y26250D02*
D03*
X547250Y19750D02*
D03*
X629750Y65250D02*
D03*
Y58750D02*
D03*
Y52250D02*
D03*
Y45750D02*
D03*
Y39250D02*
D03*
Y32750D02*
D03*
Y26250D02*
D03*
Y19750D02*
D03*
X700250Y65250D02*
D03*
Y58750D02*
D03*
Y52250D02*
D03*
Y45750D02*
D03*
Y39250D02*
D03*
Y32750D02*
D03*
X700250Y26250D02*
D03*
X700250Y19750D02*
D03*
D32*
X583500Y23000D02*
D03*
X570500D02*
D03*
X583500Y50000D02*
D03*
X570500D02*
D03*
X736500Y23000D02*
D03*
X723500D02*
D03*
X736500Y45500D02*
D03*
X723500D02*
D03*
X901500Y50000D02*
D03*
X888500D02*
D03*
X252000Y19500D02*
D03*
X239000Y19500D02*
D03*
X252000Y39500D02*
D03*
X239000D02*
D03*
X252000Y59500D02*
D03*
X239000D02*
D03*
X1067500Y97000D02*
D03*
X1054500D02*
D03*
X1054500Y129000D02*
D03*
X1067500D02*
D03*
X942500Y15000D02*
D03*
X955500D02*
D03*
D33*
X1187500Y188500D02*
D03*
D34*
X884500Y30000D02*
D03*
X905500D02*
D03*
X357000Y61300D02*
D03*
D35*
X376000Y32750D02*
D03*
Y19250D02*
D03*
Y50250D02*
D03*
Y63750D02*
D03*
X943000Y43750D02*
D03*
Y30250D02*
D03*
X768000Y42250D02*
D03*
Y55750D02*
D03*
D36*
X411502Y56000D02*
D03*
X402001D02*
D03*
X392502D02*
D03*
Y28000D02*
D03*
X411502D02*
D03*
D37*
X1082000Y32250D02*
D03*
X1062000Y22750D02*
D03*
Y41750D02*
D03*
X1082000Y67250D02*
D03*
X1062000Y57750D02*
D03*
Y76750D02*
D03*
D38*
X357000Y32700D02*
D03*
D39*
X1061000Y239500D02*
D03*
D40*
X1038000Y302500D02*
D03*
X1061000Y302500D02*
D03*
X1084000Y302500D02*
D03*
D41*
X1075000Y343000D02*
D03*
Y327000D02*
D03*
X1055000Y343000D02*
D03*
Y327000D02*
D03*
X1035000Y343000D02*
D03*
Y327000D02*
D03*
D42*
X924200Y124600D02*
D03*
X1025800D02*
D03*
X949600Y99200D02*
D03*
X975000D02*
D03*
X1000400D02*
D03*
X949600Y150000D02*
D03*
X975000D02*
D03*
X1000400D02*
D03*
X794200Y124600D02*
D03*
X895800D02*
D03*
X819600Y99200D02*
D03*
X845000D02*
D03*
X870400D02*
D03*
X819600Y150000D02*
D03*
X845000D02*
D03*
X870400D02*
D03*
X664200Y124600D02*
D03*
X765800D02*
D03*
X689600Y99200D02*
D03*
X715000D02*
D03*
X740400D02*
D03*
X689600Y150000D02*
D03*
X715000D02*
D03*
X740400D02*
D03*
X534200Y124600D02*
D03*
X635800D02*
D03*
X559600Y99200D02*
D03*
X585000D02*
D03*
X610400D02*
D03*
X559600Y150000D02*
D03*
X585000D02*
D03*
X610400D02*
D03*
X404200Y124600D02*
D03*
X505800D02*
D03*
X429600Y99200D02*
D03*
X455000D02*
D03*
X480400D02*
D03*
X429600Y150000D02*
D03*
X455000D02*
D03*
X480400D02*
D03*
X274200Y124600D02*
D03*
X375800D02*
D03*
X299600Y99200D02*
D03*
X325000D02*
D03*
X350400D02*
D03*
X299600Y150000D02*
D03*
X325000D02*
D03*
X350400D02*
D03*
X144200Y124600D02*
D03*
X245800D02*
D03*
X169600Y99200D02*
D03*
X195000D02*
D03*
X220400D02*
D03*
X169600Y150000D02*
D03*
X195000D02*
D03*
X220400D02*
D03*
X14200Y124604D02*
D03*
X115800D02*
D03*
X39600Y99204D02*
D03*
X65000D02*
D03*
X90400D02*
D03*
X39600Y150004D02*
D03*
X65000D02*
D03*
X90400D02*
D03*
D43*
X260000Y97500D02*
D03*
X650000D02*
D03*
D44*
X800000Y51250D02*
D03*
X850000D02*
D03*
D45*
X860000Y24250D02*
D03*
X790000D02*
D03*
D46*
X311000Y30000D02*
D03*
Y50000D02*
D03*
D47*
X1200000Y176000D02*
D03*
X1175000D02*
D03*
X1200000Y201000D02*
D03*
X1175000D02*
D03*
D48*
X1009000Y30000D02*
D03*
X998000D02*
D03*
X987000D02*
D03*
X1009000Y41000D02*
D03*
X998000D02*
D03*
X987000D02*
D03*
X1009000Y52000D02*
D03*
X998000D02*
D03*
X987000D02*
D03*
M02*
