G04*
G04 #@! TF.GenerationSoftware,Altium Limited,Altium Designer,20.0.13 (296)*
G04*
G04 Layer_Color=16777215*
%FSLAX44Y44*%
%MOMM*%
G71*
G01*
G75*
%ADD10C,0.2540*%
%ADD11C,0.2000*%
%ADD12C,0.2500*%
%ADD13C,0.6000*%
%ADD14C,0.3000*%
%ADD15C,0.1500*%
%ADD16C,0.5000*%
G36*
X417001Y47000D02*
Y42000D01*
X415502D01*
X412501Y45000D01*
Y47000D01*
X417001D01*
D02*
G37*
G36*
X971500Y67500D02*
X977500D01*
X976000Y63000D01*
X971500Y61500D01*
Y67500D01*
D02*
G37*
G36*
X1093750Y287500D02*
X1094500Y284500D01*
X1093000D01*
X1090000Y287500D01*
Y289500D01*
X1093750Y287500D01*
D02*
G37*
G36*
X911716Y17957D02*
X911900Y17940D01*
X912116Y17924D01*
X912350Y17907D01*
X912599Y17857D01*
X913133Y17757D01*
X913683Y17591D01*
X913966Y17491D01*
X914232Y17374D01*
X914482Y17241D01*
X914716Y17074D01*
X914732Y17057D01*
X914766Y17041D01*
X914832Y16974D01*
X914916Y16907D01*
X915016Y16824D01*
X915116Y16708D01*
X915232Y16574D01*
X915366Y16424D01*
X915499Y16258D01*
X915632Y16074D01*
X915765Y15874D01*
X915882Y15641D01*
X916015Y15408D01*
X916115Y15158D01*
X916215Y14875D01*
X916282Y14591D01*
X913966Y14158D01*
Y14175D01*
X913949Y14191D01*
X913916Y14291D01*
X913849Y14441D01*
X913749Y14641D01*
X913633Y14858D01*
X913466Y15074D01*
X913266Y15291D01*
X913033Y15491D01*
X912999Y15508D01*
X912916Y15574D01*
X912766Y15658D01*
X912583Y15741D01*
X912333Y15841D01*
X912050Y15908D01*
X911733Y15974D01*
X911367Y15991D01*
X911217D01*
X911117Y15974D01*
X910983Y15958D01*
X910833Y15941D01*
X910667Y15908D01*
X910483Y15874D01*
X910100Y15758D01*
X909900Y15674D01*
X909700Y15574D01*
X909500Y15458D01*
X909300Y15341D01*
X909117Y15174D01*
X908934Y15008D01*
X908917Y14991D01*
X908901Y14958D01*
X908850Y14908D01*
X908801Y14825D01*
X908734Y14725D01*
X908651Y14608D01*
X908567Y14458D01*
X908501Y14291D01*
X908417Y14092D01*
X908334Y13875D01*
X908251Y13642D01*
X908184Y13392D01*
X908134Y13108D01*
X908084Y12792D01*
X908067Y12475D01*
X908051Y12125D01*
Y12109D01*
Y12042D01*
Y11925D01*
X908067Y11792D01*
X908084Y11609D01*
X908101Y11425D01*
X908134Y11192D01*
X908167Y10959D01*
X908267Y10459D01*
X908434Y9942D01*
X908534Y9693D01*
X908651Y9459D01*
X908801Y9226D01*
X908951Y9026D01*
X908967Y9009D01*
X909000Y8976D01*
X909051Y8926D01*
X909117Y8860D01*
X909217Y8793D01*
X909317Y8693D01*
X909450Y8609D01*
X909600Y8510D01*
X909767Y8410D01*
X909934Y8326D01*
X910350Y8160D01*
X910583Y8093D01*
X910817Y8043D01*
X911083Y8010D01*
X911350Y7993D01*
X911483D01*
X911617Y8010D01*
X911816Y8026D01*
X912033Y8060D01*
X912283Y8110D01*
X912550Y8176D01*
X912816Y8276D01*
X912833D01*
X912850Y8293D01*
X912933Y8326D01*
X913083Y8393D01*
X913249Y8476D01*
X913449Y8576D01*
X913666Y8693D01*
X913883Y8826D01*
X914082Y8976D01*
Y10459D01*
X911416D01*
Y12409D01*
X916432D01*
Y7776D01*
X916399Y7743D01*
X916349Y7710D01*
X916299Y7660D01*
X916215Y7593D01*
X916132Y7527D01*
X915899Y7360D01*
X915582Y7177D01*
X915216Y6960D01*
X914799Y6743D01*
X914299Y6543D01*
X914282D01*
X914232Y6527D01*
X914166Y6493D01*
X914066Y6460D01*
X913932Y6427D01*
X913783Y6377D01*
X913616Y6327D01*
X913433Y6277D01*
X913016Y6177D01*
X912533Y6094D01*
X912033Y6027D01*
X911500Y6010D01*
X911317D01*
X911200Y6027D01*
X911033D01*
X910850Y6043D01*
X910650Y6077D01*
X910417Y6110D01*
X909934Y6194D01*
X909400Y6327D01*
X908850Y6510D01*
X908601Y6627D01*
X908334Y6760D01*
X908317Y6777D01*
X908284Y6793D01*
X908201Y6843D01*
X908117Y6910D01*
X908001Y6977D01*
X907884Y7077D01*
X907734Y7193D01*
X907584Y7326D01*
X907251Y7627D01*
X906918Y8010D01*
X906601Y8443D01*
X906318Y8943D01*
Y8959D01*
X906284Y9009D01*
X906251Y9093D01*
X906218Y9193D01*
X906168Y9326D01*
X906101Y9476D01*
X906051Y9659D01*
X905985Y9859D01*
X905918Y10076D01*
X905868Y10326D01*
X905751Y10842D01*
X905685Y11409D01*
X905651Y12025D01*
Y12042D01*
Y12109D01*
Y12209D01*
X905668Y12325D01*
Y12492D01*
X905685Y12675D01*
X905718Y12875D01*
X905751Y13108D01*
X905835Y13592D01*
X905968Y14141D01*
X906151Y14691D01*
X906268Y14958D01*
X906401Y15224D01*
X906418Y15241D01*
X906434Y15291D01*
X906484Y15358D01*
X906534Y15458D01*
X906618Y15574D01*
X906718Y15708D01*
X906834Y15858D01*
X906951Y16024D01*
X907101Y16191D01*
X907268Y16374D01*
X907451Y16558D01*
X907651Y16741D01*
X907867Y16907D01*
X908084Y17091D01*
X908601Y17391D01*
X908617D01*
X908651Y17424D01*
X908717Y17441D01*
X908801Y17491D01*
X908917Y17524D01*
X909034Y17574D01*
X909200Y17624D01*
X909367Y17691D01*
X909550Y17740D01*
X909767Y17790D01*
X910000Y17840D01*
X910234Y17890D01*
X910767Y17957D01*
X911367Y17974D01*
X911566D01*
X911716Y17957D01*
D02*
G37*
G36*
X876492D02*
X876675Y17940D01*
X876875Y17907D01*
X877109Y17874D01*
X877359Y17824D01*
X877625Y17757D01*
X877908Y17674D01*
X878192Y17574D01*
X878492Y17441D01*
X878775Y17307D01*
X879042Y17141D01*
X879325Y16941D01*
X879575Y16724D01*
X879591D01*
X879608Y16691D01*
X879658Y16641D01*
X879708Y16591D01*
X879775Y16508D01*
X879841Y16408D01*
X880025Y16174D01*
X880208Y15874D01*
X880408Y15508D01*
X880591Y15091D01*
X880758Y14608D01*
X878458Y14058D01*
Y14075D01*
X878442Y14092D01*
Y14141D01*
X878408Y14208D01*
X878358Y14358D01*
X878275Y14558D01*
X878158Y14791D01*
X878008Y15025D01*
X877809Y15258D01*
X877592Y15458D01*
X877559Y15474D01*
X877475Y15541D01*
X877342Y15624D01*
X877159Y15724D01*
X876925Y15824D01*
X876659Y15908D01*
X876359Y15974D01*
X876026Y15991D01*
X875909D01*
X875809Y15974D01*
X875709Y15958D01*
X875576Y15941D01*
X875292Y15874D01*
X874959Y15758D01*
X874609Y15591D01*
X874426Y15491D01*
X874259Y15374D01*
X874093Y15224D01*
X873943Y15058D01*
Y15041D01*
X873910Y15008D01*
X873876Y14958D01*
X873826Y14875D01*
X873760Y14775D01*
X873693Y14658D01*
X873626Y14508D01*
X873559Y14341D01*
X873476Y14141D01*
X873410Y13925D01*
X873343Y13675D01*
X873276Y13408D01*
X873226Y13108D01*
X873193Y12792D01*
X873176Y12442D01*
X873160Y12059D01*
Y12042D01*
Y11959D01*
Y11842D01*
X873176Y11709D01*
Y11525D01*
X873210Y11309D01*
X873226Y11092D01*
X873260Y10842D01*
X873360Y10326D01*
X873493Y9809D01*
X873576Y9559D01*
X873693Y9326D01*
X873810Y9109D01*
X873943Y8926D01*
X873959Y8910D01*
X873976Y8893D01*
X874026Y8843D01*
X874093Y8776D01*
X874259Y8643D01*
X874493Y8476D01*
X874776Y8293D01*
X875126Y8160D01*
X875526Y8043D01*
X875742Y8026D01*
X875976Y8010D01*
X876059D01*
X876126Y8026D01*
X876309Y8043D01*
X876525Y8076D01*
X876759Y8160D01*
X877025Y8260D01*
X877292Y8393D01*
X877559Y8593D01*
X877592Y8626D01*
X877675Y8709D01*
X877792Y8843D01*
X877925Y9043D01*
X878092Y9309D01*
X878242Y9626D01*
X878392Y10009D01*
X878525Y10459D01*
X880791Y9759D01*
Y9743D01*
X880774Y9676D01*
X880741Y9576D01*
X880691Y9443D01*
X880624Y9293D01*
X880558Y9109D01*
X880474Y8910D01*
X880375Y8693D01*
X880141Y8243D01*
X879841Y7776D01*
X879475Y7326D01*
X879275Y7127D01*
X879058Y6943D01*
X879042Y6927D01*
X879008Y6910D01*
X878941Y6860D01*
X878841Y6793D01*
X878725Y6727D01*
X878575Y6660D01*
X878408Y6577D01*
X878225Y6493D01*
X878008Y6393D01*
X877775Y6310D01*
X877525Y6244D01*
X877259Y6177D01*
X876975Y6110D01*
X876659Y6060D01*
X876342Y6043D01*
X875992Y6027D01*
X875892D01*
X875776Y6043D01*
X875609Y6060D01*
X875426Y6077D01*
X875192Y6110D01*
X874942Y6160D01*
X874659Y6227D01*
X874376Y6310D01*
X874076Y6410D01*
X873760Y6543D01*
X873443Y6693D01*
X873126Y6860D01*
X872810Y7077D01*
X872510Y7310D01*
X872227Y7593D01*
X872210Y7610D01*
X872160Y7660D01*
X872093Y7760D01*
X871993Y7876D01*
X871893Y8043D01*
X871760Y8226D01*
X871627Y8460D01*
X871493Y8726D01*
X871360Y9009D01*
X871227Y9326D01*
X871094Y9693D01*
X870993Y10076D01*
X870894Y10476D01*
X870827Y10926D01*
X870777Y11392D01*
X870760Y11892D01*
Y11909D01*
Y11925D01*
Y12025D01*
X870777Y12175D01*
Y12375D01*
X870810Y12608D01*
X870844Y12892D01*
X870877Y13192D01*
X870944Y13542D01*
X871027Y13892D01*
X871127Y14258D01*
X871244Y14625D01*
X871393Y15008D01*
X871560Y15374D01*
X871760Y15724D01*
X871977Y16058D01*
X872243Y16374D01*
X872260Y16391D01*
X872310Y16441D01*
X872393Y16524D01*
X872510Y16624D01*
X872660Y16741D01*
X872843Y16874D01*
X873043Y17024D01*
X873293Y17174D01*
X873559Y17324D01*
X873843Y17474D01*
X874176Y17607D01*
X874509Y17724D01*
X874893Y17824D01*
X875276Y17907D01*
X875709Y17957D01*
X876142Y17974D01*
X876342D01*
X876492Y17957D01*
D02*
G37*
G36*
X892021Y6227D02*
X889689D01*
Y11276D01*
X885140D01*
Y6227D01*
X882807D01*
Y17757D01*
X885140D01*
Y13225D01*
X889689D01*
Y17757D01*
X892021D01*
Y6227D01*
D02*
G37*
G36*
X899786Y17740D02*
X899969D01*
X900153Y17724D01*
X900369D01*
X900803Y17674D01*
X901253Y17624D01*
X901669Y17541D01*
X901852Y17491D01*
X902019Y17441D01*
X902036D01*
X902052Y17424D01*
X902152Y17374D01*
X902302Y17291D01*
X902502Y17191D01*
X902719Y17024D01*
X902935Y16841D01*
X903152Y16608D01*
X903352Y16324D01*
Y16308D01*
X903369Y16291D01*
X903402Y16241D01*
X903435Y16191D01*
X903519Y16024D01*
X903618Y15808D01*
X903702Y15541D01*
X903785Y15241D01*
X903852Y14891D01*
X903868Y14525D01*
Y14508D01*
Y14475D01*
Y14391D01*
X903852Y14308D01*
Y14191D01*
X903835Y14075D01*
X903768Y13775D01*
X903685Y13425D01*
X903552Y13075D01*
X903352Y12708D01*
X903235Y12542D01*
X903102Y12375D01*
X903085Y12359D01*
X903069Y12342D01*
X903019Y12292D01*
X902952Y12242D01*
X902885Y12175D01*
X902785Y12092D01*
X902669Y12009D01*
X902535Y11925D01*
X902385Y11825D01*
X902202Y11742D01*
X902019Y11659D01*
X901819Y11575D01*
X901586Y11492D01*
X901352Y11425D01*
X901103Y11359D01*
X900819Y11309D01*
X900836D01*
X900853Y11292D01*
X900953Y11226D01*
X901086Y11142D01*
X901253Y11026D01*
X901452Y10876D01*
X901652Y10726D01*
X901869Y10542D01*
X902052Y10342D01*
X902069Y10326D01*
X902152Y10242D01*
X902252Y10109D01*
X902402Y9909D01*
X902602Y9659D01*
X902702Y9493D01*
X902819Y9326D01*
X902952Y9143D01*
X903085Y8943D01*
X903235Y8709D01*
X903385Y8476D01*
X904801Y6227D01*
X902002D01*
X900336Y8726D01*
X900319Y8743D01*
X900303Y8793D01*
X900253Y8860D01*
X900186Y8943D01*
X900119Y9043D01*
X900036Y9176D01*
X899853Y9443D01*
X899636Y9743D01*
X899436Y10009D01*
X899253Y10259D01*
X899170Y10342D01*
X899103Y10426D01*
X899086Y10442D01*
X899053Y10476D01*
X898986Y10542D01*
X898903Y10626D01*
X898786Y10692D01*
X898670Y10776D01*
X898537Y10842D01*
X898403Y10909D01*
X898387D01*
X898336Y10926D01*
X898253Y10959D01*
X898120Y10976D01*
X897953Y11009D01*
X897753Y11026D01*
X897520Y11042D01*
X896770D01*
Y6227D01*
X894437D01*
Y17757D01*
X899636D01*
X899786Y17740D01*
D02*
G37*
%LPC*%
G36*
X899436Y15808D02*
X896770D01*
Y12875D01*
X899036D01*
X899370Y12892D01*
X899719Y12908D01*
X900069Y12925D01*
X900219Y12942D01*
X900353Y12958D01*
X900486Y12992D01*
X900569Y13008D01*
X900586D01*
X900636Y13042D01*
X900719Y13075D01*
X900803Y13125D01*
X901019Y13275D01*
X901119Y13375D01*
X901219Y13492D01*
X901236Y13508D01*
X901253Y13558D01*
X901302Y13625D01*
X901352Y13725D01*
X901386Y13858D01*
X901436Y14008D01*
X901452Y14175D01*
X901469Y14358D01*
Y14391D01*
Y14458D01*
X901452Y14558D01*
X901436Y14691D01*
X901386Y14841D01*
X901336Y14991D01*
X901253Y15158D01*
X901152Y15291D01*
X901136Y15308D01*
X901103Y15358D01*
X901019Y15408D01*
X900919Y15491D01*
X900803Y15574D01*
X900653Y15641D01*
X900469Y15708D01*
X900269Y15758D01*
X900253D01*
X900203Y15774D01*
X900103D01*
X899953Y15791D01*
X899586D01*
X899436Y15808D01*
D02*
G37*
%LPD*%
D10*
X194500Y59500D02*
G03*
X194500Y59500I-1000J0D01*
G01*
X301414Y61000D02*
G03*
X301414Y61000I-1414J0D01*
G01*
X988414Y235000D02*
G03*
X988414Y235000I-1414J0D01*
G01*
X979414Y223000D02*
G03*
X979414Y223000I-1414J0D01*
G01*
X943414Y235000D02*
G03*
X943414Y235000I-1414J0D01*
G01*
X934414Y223000D02*
G03*
X934414Y223000I-1414J0D01*
G01*
X858414Y235000D02*
G03*
X858414Y235000I-1414J0D01*
G01*
X849414Y223000D02*
G03*
X849414Y223000I-1414J0D01*
G01*
X813414Y235000D02*
G03*
X813414Y235000I-1414J0D01*
G01*
X804414Y223000D02*
G03*
X804414Y223000I-1414J0D01*
G01*
X728414Y235000D02*
G03*
X728414Y235000I-1414J0D01*
G01*
X719414Y223000D02*
G03*
X719414Y223000I-1414J0D01*
G01*
X683414Y235000D02*
G03*
X683414Y235000I-1414J0D01*
G01*
X674414Y223000D02*
G03*
X674414Y223000I-1414J0D01*
G01*
X598414Y235000D02*
G03*
X598414Y235000I-1414J0D01*
G01*
X589414Y223000D02*
G03*
X589414Y223000I-1414J0D01*
G01*
X553414Y235000D02*
G03*
X553414Y235000I-1414J0D01*
G01*
X544414Y223000D02*
G03*
X544414Y223000I-1414J0D01*
G01*
X468414Y235000D02*
G03*
X468414Y235000I-1414J0D01*
G01*
X459414Y223000D02*
G03*
X459414Y223000I-1414J0D01*
G01*
X423414Y235000D02*
G03*
X423414Y235000I-1414J0D01*
G01*
X414414Y223000D02*
G03*
X414414Y223000I-1414J0D01*
G01*
X338414Y235000D02*
G03*
X338414Y235000I-1414J0D01*
G01*
X329414Y223000D02*
G03*
X329414Y223000I-1414J0D01*
G01*
X293414Y235000D02*
G03*
X293414Y235000I-1414J0D01*
G01*
X284414Y223000D02*
G03*
X284414Y223000I-1414J0D01*
G01*
X208414Y235000D02*
G03*
X208414Y235000I-1414J0D01*
G01*
X199414Y223000D02*
G03*
X199414Y223000I-1414J0D01*
G01*
X163414Y235000D02*
G03*
X163414Y235000I-1414J0D01*
G01*
X154414Y223000D02*
G03*
X154414Y223000I-1414J0D01*
G01*
X78414Y235004D02*
G03*
X78414Y235004I-1414J0D01*
G01*
X69414Y223004D02*
G03*
X69414Y223004I-1414J0D01*
G01*
X33414Y235004D02*
G03*
X33414Y235004I-1414J0D01*
G01*
X24414Y223004D02*
G03*
X24414Y223004I-1414J0D01*
G01*
D11*
X279000Y97500D02*
G03*
X279000Y97500I-19000J0D01*
G01*
X669000D02*
G03*
X669000Y97500I-19000J0D01*
G01*
X971500Y61500D02*
G03*
X977500Y67500I0J6000D01*
G01*
X412501Y46500D02*
G03*
X417001Y42000I4500J0D01*
G01*
X1090000Y289000D02*
G03*
X1094500Y284500I4500J0D01*
G01*
X1018000Y87600D02*
Y114600D01*
X932000Y87600D02*
X1018000D01*
X932000D02*
Y114600D01*
X1018112Y134372D02*
Y161372D01*
X932112D02*
X1018112D01*
X932112Y134372D02*
Y161372D01*
X888000Y87600D02*
Y114600D01*
X802000Y87600D02*
X888000D01*
X802000D02*
Y114600D01*
X888112Y134372D02*
Y161372D01*
X802112D02*
X888112D01*
X802112Y134372D02*
Y161372D01*
X758000Y87600D02*
Y114600D01*
X672000Y87600D02*
X758000D01*
X672000D02*
Y114600D01*
X758112Y134372D02*
Y161372D01*
X672112D02*
X758112D01*
X672112Y134372D02*
Y161372D01*
X628000Y87600D02*
Y114600D01*
X542000Y87600D02*
X628000D01*
X542000D02*
Y114600D01*
X628112Y134372D02*
Y161372D01*
X542112D02*
X628112D01*
X542112Y134372D02*
Y161372D01*
X498000Y87600D02*
Y114600D01*
X412000Y87600D02*
X498000D01*
X412000D02*
Y114600D01*
X498112Y134372D02*
Y161372D01*
X412112D02*
X498112D01*
X412112Y134372D02*
Y161372D01*
X368000Y87600D02*
Y114600D01*
X282000Y87600D02*
X368000D01*
X282000D02*
Y114600D01*
X368112Y134372D02*
Y161372D01*
X282112D02*
X368112D01*
X282112Y134372D02*
Y161372D01*
X238000Y87600D02*
Y114600D01*
X152000Y87600D02*
X238000D01*
X152000D02*
Y114600D01*
X238112Y134372D02*
Y161372D01*
X152112D02*
X238112D01*
X152112Y134372D02*
Y161372D01*
X108000Y87604D02*
Y114604D01*
X22000Y87604D02*
X108000D01*
X22000D02*
Y114604D01*
X108112Y134375D02*
Y161375D01*
X22112D02*
X108112D01*
X22112Y134375D02*
Y161375D01*
X195500Y22500D02*
Y56500D01*
X223500Y22500D02*
Y56500D01*
X208500Y22500D02*
X210500D01*
X208500Y56500D02*
X210500D01*
X191649Y23597D02*
X195149Y20097D01*
X191649D02*
X195149D01*
X191649D02*
Y23597D01*
X971500Y14500D02*
X977500D01*
X971500D02*
Y20500D01*
X1018500Y14500D02*
X1024500D01*
Y20500D01*
Y61500D02*
Y67500D01*
X1018500D02*
X1024500D01*
X971500D02*
X977500D01*
X971500Y61500D02*
Y67500D01*
X1022000Y223000D02*
Y286000D01*
X978000Y223000D02*
Y287000D01*
X977000Y223000D02*
Y286000D01*
X933000Y223000D02*
Y287000D01*
X892000Y223000D02*
Y286000D01*
X848000Y223000D02*
Y287000D01*
X847000Y223000D02*
Y286000D01*
X803000Y223000D02*
Y287000D01*
X762000Y223000D02*
Y286000D01*
X718000Y223000D02*
Y287000D01*
X717000Y223000D02*
Y286000D01*
X673000Y223000D02*
Y287000D01*
X632000Y223000D02*
Y286000D01*
X588000Y223000D02*
Y287000D01*
X587000Y223000D02*
Y286000D01*
X543000Y223000D02*
Y287000D01*
X502000Y223000D02*
Y286000D01*
X458000Y223000D02*
Y287000D01*
X457000Y223000D02*
Y286000D01*
X413000Y223000D02*
Y287000D01*
X372000Y223000D02*
Y286000D01*
X328000Y223000D02*
Y287000D01*
X327000Y223000D02*
Y286000D01*
X283000Y223000D02*
Y287000D01*
X242000Y223000D02*
Y286000D01*
X198000Y223000D02*
Y287000D01*
X197000Y223000D02*
Y286000D01*
X153000Y223000D02*
Y287000D01*
X112000Y223004D02*
X112000Y286004D01*
X68000Y223004D02*
Y287004D01*
X67000Y223004D02*
X67000Y286004D01*
X23000Y223004D02*
Y287004D01*
X489000Y10500D02*
Y74500D01*
X535000Y10500D02*
Y74500D01*
X489000D02*
X535000D01*
X489000Y10500D02*
X535000D01*
X642000D02*
Y74500D01*
X688000Y10500D02*
Y74500D01*
X642000D02*
X688000D01*
X642000Y10500D02*
X688000D01*
X417001Y37000D02*
Y47000D01*
X387001D02*
X387001Y37000D01*
X387001Y47000D02*
X417001D01*
X387001Y37000D02*
X417001D01*
X412501Y46500D02*
Y47000D01*
X1079000Y17750D02*
Y25000D01*
X1071000Y17750D02*
X1079000D01*
Y39500D02*
Y46750D01*
X1071000D02*
X1079000D01*
X1065000Y29750D02*
Y34750D01*
X1079000Y60000D02*
X1079000Y52750D01*
X1071000D02*
X1079000D01*
X1079000Y74500D02*
Y81750D01*
X1071000Y81750D02*
X1079000Y81750D01*
X1065000Y64750D02*
Y69750D01*
X357000Y50000D02*
Y53000D01*
Y41000D02*
Y43000D01*
X352000Y50000D02*
X361000D01*
X352000D02*
X357000Y43000D01*
X361000Y50000D01*
X352000Y43000D02*
X362000D01*
X1094500Y252500D02*
Y287250D01*
X1092250Y289500D02*
X1094500Y287250D01*
X1027500Y289500D02*
X1092250Y289500D01*
X1090000Y289000D02*
Y289500D01*
X1027500Y252500D02*
Y289500D01*
Y252500D02*
X1094500Y252500D01*
X125000Y70000D02*
G03*
X115000Y80000I-10000J0D01*
G01*
X125000Y0D02*
Y70000D01*
X0Y80000D02*
X115000D01*
X0D02*
Y365000D01*
X125000Y0D02*
X1300000D01*
Y365000D01*
X0D02*
X1300000D01*
D12*
X966250Y66000D02*
G03*
X966250Y66000I-1250J0D01*
G01*
X478000Y73750D02*
G03*
X478000Y73750I-1250J0D01*
G01*
X631000D02*
G03*
X631000Y73750I-1250J0D01*
G01*
X420502Y53000D02*
G03*
X420502Y53000I-1250J0D01*
G01*
X1098250Y302500D02*
G03*
X1098250Y302500I-1250J0D01*
G01*
D13*
X502000Y64500D02*
G03*
X502000Y64500I-3000J0D01*
G01*
X655000D02*
G03*
X655000Y64500I-3000J0D01*
G01*
D14*
X866078Y9250D02*
Y14068D01*
X785000Y14250D02*
X785000Y9250D01*
X860000Y53751D02*
X864750D01*
X785250D02*
X790000D01*
X864750Y33500D02*
Y53751D01*
X785250Y33500D02*
Y53751D01*
D15*
X978000Y195000D02*
X992000D01*
X978000Y182300D02*
X979920D01*
X978000D02*
Y207700D01*
X979920D01*
X990080D02*
X992000D01*
Y182300D02*
Y207700D01*
X990080Y182300D02*
X992000D01*
X998000Y195000D02*
X1012000D01*
X1010080Y207700D02*
X1012000D01*
Y182300D02*
Y207700D01*
X1010080Y182300D02*
X1012000D01*
X998000D02*
X999920D01*
X998000D02*
Y207700D01*
X999920D01*
X958000Y195000D02*
X972000D01*
X958000Y182300D02*
X959920D01*
X958000D02*
Y207700D01*
X959920D01*
X970080D02*
X972000D01*
Y182300D02*
Y207700D01*
X970080Y182300D02*
X972000D01*
X938000Y195000D02*
X952000D01*
X938000Y182300D02*
X939920D01*
X938000D02*
Y207700D01*
X939920D01*
X950080D02*
X952000D01*
Y182300D02*
Y207700D01*
X950080Y182300D02*
X952000D01*
X848000Y195000D02*
X862000D01*
X848000Y182300D02*
X849920D01*
X848000D02*
Y207700D01*
X849920D01*
X860080D02*
X862000D01*
Y182300D02*
Y207700D01*
X860080Y182300D02*
X862000D01*
X868000Y195000D02*
X882000D01*
X880080Y207700D02*
X882000D01*
Y182300D02*
Y207700D01*
X880080Y182300D02*
X882000D01*
X868000D02*
X869920D01*
X868000D02*
Y207700D01*
X869920D01*
X828000Y195000D02*
X842000D01*
X828000Y182300D02*
X829920D01*
X828000D02*
Y207700D01*
X829920D01*
X840080D02*
X842000D01*
Y182300D02*
Y207700D01*
X840080Y182300D02*
X842000D01*
X808000Y195000D02*
X822000D01*
X808000Y182300D02*
X809920D01*
X808000D02*
Y207700D01*
X809920D01*
X820080D02*
X822000D01*
Y182300D02*
Y207700D01*
X820080Y182300D02*
X822000D01*
X718000Y195000D02*
X732000D01*
X718000Y182300D02*
X719920D01*
X718000D02*
Y207700D01*
X719920D01*
X730080D02*
X732000D01*
Y182300D02*
Y207700D01*
X730080Y182300D02*
X732000D01*
X738000Y195000D02*
X752000D01*
X750080Y207700D02*
X752000D01*
Y182300D02*
Y207700D01*
X750080Y182300D02*
X752000D01*
X738000D02*
X739920D01*
X738000D02*
Y207700D01*
X739920D01*
X698000Y195000D02*
X712000D01*
X698000Y182300D02*
X699920D01*
X698000D02*
Y207700D01*
X699920D01*
X710080D02*
X712000D01*
Y182300D02*
Y207700D01*
X710080Y182300D02*
X712000D01*
X678000Y195000D02*
X692000D01*
X678000Y182300D02*
X679920D01*
X678000D02*
Y207700D01*
X679920D01*
X690080D02*
X692000D01*
Y182300D02*
Y207700D01*
X690080Y182300D02*
X692000D01*
X588000Y195000D02*
X602000D01*
X588000Y182300D02*
X589920D01*
X588000D02*
Y207700D01*
X589920D01*
X600080D02*
X602000D01*
Y182300D02*
Y207700D01*
X600080Y182300D02*
X602000D01*
X608000Y195000D02*
X622000D01*
X620080Y207700D02*
X622000D01*
Y182300D02*
Y207700D01*
X620080Y182300D02*
X622000D01*
X608000D02*
X609920D01*
X608000D02*
Y207700D01*
X609920D01*
X568000Y195000D02*
X582000D01*
X568000Y182300D02*
X569920D01*
X568000D02*
Y207700D01*
X569920D01*
X580080D02*
X582000D01*
Y182300D02*
Y207700D01*
X580080Y182300D02*
X582000D01*
X548000Y195000D02*
X562000D01*
X548000Y182300D02*
X549920D01*
X548000D02*
Y207700D01*
X549920D01*
X560080D02*
X562000D01*
Y182300D02*
Y207700D01*
X560080Y182300D02*
X562000D01*
X458000Y195000D02*
X472000D01*
X458000Y182300D02*
X459920D01*
X458000D02*
Y207700D01*
X459920D01*
X470080D02*
X472000D01*
Y182300D02*
Y207700D01*
X470080Y182300D02*
X472000D01*
X478000Y195000D02*
X492000D01*
X490080Y207700D02*
X492000D01*
Y182300D02*
Y207700D01*
X490080Y182300D02*
X492000D01*
X478000D02*
X479920D01*
X478000D02*
Y207700D01*
X479920D01*
X438000Y195000D02*
X452000D01*
X438000Y182300D02*
X439920D01*
X438000D02*
Y207700D01*
X439920D01*
X450080D02*
X452000D01*
Y182300D02*
Y207700D01*
X450080Y182300D02*
X452000D01*
X418000Y195000D02*
X432000D01*
X418000Y182300D02*
X419920D01*
X418000D02*
Y207700D01*
X419920D01*
X430080D02*
X432000D01*
Y182300D02*
Y207700D01*
X430080Y182300D02*
X432000D01*
X328000Y195000D02*
X342000D01*
X328000Y182300D02*
X329920D01*
X328000D02*
Y207700D01*
X329920D01*
X340080D02*
X342000D01*
Y182300D02*
Y207700D01*
X340080Y182300D02*
X342000D01*
X348000Y195000D02*
X362000D01*
X360080Y207700D02*
X362000D01*
Y182300D02*
Y207700D01*
X360080Y182300D02*
X362000D01*
X348000D02*
X349920D01*
X348000D02*
Y207700D01*
X349920D01*
X308000Y195000D02*
X322000D01*
X308000Y182300D02*
X309920D01*
X308000D02*
Y207700D01*
X309920D01*
X320080D02*
X322000D01*
Y182300D02*
Y207700D01*
X320080Y182300D02*
X322000D01*
X288000Y195000D02*
X302000D01*
X288000Y182300D02*
X289920D01*
X288000D02*
Y207700D01*
X289920D01*
X300080D02*
X302000D01*
Y182300D02*
Y207700D01*
X300080Y182300D02*
X302000D01*
X198000Y195000D02*
X212000D01*
X198000Y182300D02*
X199920D01*
X198000D02*
Y207700D01*
X199920D01*
X210080D02*
X212000D01*
Y182300D02*
Y207700D01*
X210080Y182300D02*
X212000D01*
X218000Y195000D02*
X232000D01*
X230080Y207700D02*
X232000D01*
Y182300D02*
Y207700D01*
X230080Y182300D02*
X232000D01*
X218000D02*
X219920D01*
X218000D02*
Y207700D01*
X219920D01*
X178000Y195000D02*
X192000D01*
X178000Y182300D02*
X179920D01*
X178000D02*
Y207700D01*
X179920D01*
X190080D02*
X192000D01*
Y182300D02*
Y207700D01*
X190080Y182300D02*
X192000D01*
X158000Y195000D02*
X172000D01*
X158000Y182300D02*
X159920D01*
X158000D02*
Y207700D01*
X159920D01*
X170080D02*
X172000D01*
Y182300D02*
Y207700D01*
X170080Y182300D02*
X172000D01*
X68000Y195004D02*
X82000D01*
X68000Y182304D02*
X69920D01*
X68000D02*
Y207704D01*
X69920Y207704D01*
X80080D02*
X82000Y207704D01*
Y182304D02*
Y207704D01*
X80080Y182304D02*
X82000D01*
X88000Y195004D02*
X102000D01*
X100080Y207704D02*
X102000D01*
Y182304D02*
Y207704D01*
X100080Y182304D02*
X102000D01*
X88000D02*
X89920D01*
X88000D02*
Y207704D01*
X89920D01*
X48000Y195004D02*
X62000D01*
X48000Y182304D02*
X49920D01*
X48000D02*
Y207704D01*
X49920D01*
X60080D02*
X62000D01*
Y182304D02*
Y207704D01*
X60080Y182304D02*
X62000D01*
X28000Y195004D02*
X42000D01*
X28000Y182304D02*
X29920D01*
X28000D02*
Y207704D01*
X29920Y207704D01*
X40080D02*
X42000Y207704D01*
Y182304D02*
Y207704D01*
X40080Y182304D02*
X42000D01*
X563000Y58500D02*
Y61500D01*
Y58500D02*
X591000D01*
Y61500D01*
Y69500D02*
Y72500D01*
X563000D02*
X591000D01*
X563000Y69500D02*
Y72500D01*
X577000Y58500D02*
Y72500D01*
Y16000D02*
Y30000D01*
X589700Y16000D02*
Y17920D01*
X564300Y16000D02*
X589700D01*
X564300D02*
Y17920D01*
Y28080D02*
Y30000D01*
X589700D01*
Y28080D02*
Y30000D01*
X577000Y43000D02*
Y57000D01*
X589700Y43000D02*
Y44920D01*
X564300Y43000D02*
X589700D01*
X564300D02*
Y44920D01*
Y55080D02*
Y57000D01*
X589700D01*
Y55080D02*
Y57000D01*
X716000Y58500D02*
Y61500D01*
Y58500D02*
X744000D01*
Y61500D01*
Y69500D02*
Y72500D01*
X716000D02*
X744000D01*
X716000Y69500D02*
Y72500D01*
X730000Y58500D02*
Y72500D01*
Y16000D02*
Y30000D01*
X742700Y16000D02*
Y17920D01*
X717300Y16000D02*
X742700D01*
X717300D02*
Y17920D01*
Y28080D02*
Y30000D01*
X742700D01*
Y28080D02*
Y30000D01*
X730000Y38500D02*
Y52500D01*
X742700Y38500D02*
Y40420D01*
X717300Y38500D02*
X742700D01*
X717300D02*
Y40420D01*
Y50580D02*
Y52500D01*
X742700D01*
Y50580D02*
Y52500D01*
X895000Y21000D02*
Y39000D01*
X875950Y32540D02*
Y39000D01*
X915320D01*
Y37000D02*
Y39000D01*
X875950Y21000D02*
Y27460D01*
Y21000D02*
X915320D01*
Y23000D01*
X874680Y32540D02*
X875950D01*
X874680D02*
Y39000D01*
X875950D01*
X874680Y21000D02*
X875950D01*
X874680D02*
Y27460D01*
X875950D01*
X892460Y30000D02*
X895000D01*
X897540Y27460D02*
Y32540D01*
X895000Y30000D02*
X897540Y27460D01*
X895000Y30000D02*
X897540Y32540D01*
X895000Y43000D02*
Y57000D01*
X907700Y43000D02*
Y44920D01*
X882300Y43000D02*
X907700D01*
X882300D02*
Y44920D01*
Y55080D02*
Y57000D01*
X907700D01*
Y55080D02*
Y57000D01*
X245500Y12500D02*
Y26500D01*
X258200Y12500D02*
Y14420D01*
X232800Y12500D02*
X258200D01*
X232800D02*
Y14420D01*
X232800Y24580D02*
Y26500D01*
X258200D01*
Y24580D02*
Y26500D01*
X245500Y32500D02*
Y46500D01*
X258200Y32500D02*
Y34420D01*
X232800Y32500D02*
X258200D01*
X232800D02*
Y34420D01*
Y44580D02*
Y46500D01*
X258200D01*
Y44580D02*
Y46500D01*
X245500Y52500D02*
Y66500D01*
X258200Y54420D02*
X258200Y52500D01*
X232800D02*
X258200D01*
X232800D02*
X232800Y54420D01*
X232800Y64580D02*
Y66500D01*
X258200D01*
Y64580D02*
Y66500D01*
X369000Y40000D02*
X372000D01*
X369000Y12000D02*
Y40000D01*
Y12000D02*
X372000D01*
X380000D02*
X383000D01*
Y40000D01*
X380000D02*
X383000D01*
X369000Y26000D02*
X383000D01*
X1061000Y90000D02*
Y104000D01*
X1073700Y90000D02*
Y91920D01*
X1048300Y90000D02*
X1073700D01*
X1048300D02*
Y91920D01*
X1048300Y102080D02*
Y104000D01*
X1073700Y104000D01*
Y102080D02*
Y104000D01*
X380000Y43000D02*
X383000D01*
Y71000D01*
X380000D02*
X383000D01*
X369000D02*
X372000D01*
X369000Y43000D02*
Y71000D01*
Y43000D02*
X372000D01*
X369000Y57000D02*
X383000D01*
X422000Y33000D02*
X436000D01*
X434080Y45700D02*
X436000Y45700D01*
Y20300D02*
Y45700D01*
X434080Y20300D02*
X436000D01*
X422000D02*
X423920D01*
X422000D02*
Y45700D01*
X423920D01*
X1047000Y106000D02*
Y109000D01*
Y106000D02*
X1075000D01*
Y109000D01*
Y117000D02*
Y120000D01*
X1047000D02*
X1075000D01*
X1047000Y117000D02*
Y120000D01*
X1061000D02*
X1061000Y106000D01*
X1061000Y122000D02*
Y136000D01*
X1048300Y134080D02*
Y136000D01*
X1073700D01*
Y134080D02*
Y136000D01*
Y122000D02*
Y123920D01*
X1048300Y122000D02*
X1073700D01*
X1048300Y123920D02*
X1048300Y122000D01*
X1040000Y32250D02*
X1054000Y32250D01*
X1052080Y44950D02*
X1054000Y44950D01*
Y19550D02*
Y44950D01*
X1052080Y19550D02*
X1054000Y19550D01*
X1040000Y19550D02*
X1041920D01*
X1040000D02*
Y44950D01*
X1041920D01*
X949000Y8000D02*
Y22000D01*
X936300Y20080D02*
Y22000D01*
X961700D01*
Y20080D02*
Y22000D01*
Y8000D02*
Y9920D01*
X936300Y8000D02*
X961700D01*
X936300D02*
Y9920D01*
X936000Y51000D02*
X939000D01*
X936000Y23000D02*
Y51000D01*
Y23000D02*
X939000D01*
X947000D02*
X950000D01*
Y51000D01*
X947000D02*
X950000D01*
X936000Y37000D02*
X950000D01*
X1040000Y67250D02*
X1054000Y67250D01*
X1040000Y54550D02*
X1041920Y54550D01*
X1040000Y79950D02*
X1040000Y54550D01*
X1040000Y79950D02*
X1041920Y79950D01*
X1052080D02*
X1054000Y79950D01*
Y54550D02*
Y79950D01*
X1052080Y54550D02*
X1054000Y54550D01*
X346840Y71130D02*
X350250D01*
X363750D02*
X367160D01*
X346840Y24140D02*
X346840Y71130D01*
X367160D02*
X367160Y24140D01*
X346840D02*
X354460Y24140D01*
Y22870D02*
Y24140D01*
X346840Y22870D02*
X354460D01*
X346840Y24140D02*
X346840Y22870D01*
X367160D02*
X367160Y24140D01*
X359540Y22870D02*
X367160D01*
X359540D02*
Y24140D01*
X367160D01*
X1066000Y335000D02*
X1084000D01*
X1080000Y318000D02*
X1084000D01*
Y352000D01*
X1080000D02*
X1084000D01*
X1066000D02*
X1070000D01*
X1066000Y318000D02*
Y352000D01*
Y318000D02*
X1070000D01*
X1046000Y335000D02*
X1064000D01*
X1060000Y318000D02*
X1064000D01*
Y352000D01*
X1060000D02*
X1064000D01*
X1046000D02*
X1050000D01*
X1046000Y318000D02*
Y352000D01*
Y318000D02*
X1050000D01*
X772000Y35000D02*
X775000D01*
Y63000D01*
X772000D02*
X775000D01*
X761000D02*
X764000D01*
X761000Y35000D02*
Y63000D01*
Y35000D02*
X764000D01*
X761000Y49000D02*
X775000D01*
X1026000Y335000D02*
X1044000D01*
X1040000Y318000D02*
X1044000D01*
Y352000D01*
X1040000D02*
X1044000D01*
X1026000D02*
X1030000D01*
X1026000Y318000D02*
Y352000D01*
Y318000D02*
X1030000D01*
D16*
X1287500Y274900D02*
Y337900D01*
X1107500D02*
X1287500D01*
X1107500Y274900D02*
Y337900D01*
Y23900D02*
X1287500D01*
X1107500Y274900D02*
X1287500D01*
M02*
