G04*
G04 #@! TF.GenerationSoftware,Altium Limited,Altium Designer,20.0.13 (296)*
G04*
G04 Layer_Color=32896*
%FSLAX44Y44*%
%MOMM*%
G71*
G01*
G75*
%ADD11C,0.2000*%
%ADD14C,0.3000*%
%ADD16C,0.5000*%
G36*
X90000Y182500D02*
X5000D01*
Y167500D01*
X10000Y162500D01*
X85000D01*
X90000Y167500D01*
Y182500D01*
D02*
G37*
G36*
X645135Y59559D02*
X645357Y59545D01*
X645787Y59475D01*
X646147Y59364D01*
X646313Y59309D01*
X646466Y59240D01*
X646605Y59184D01*
X646716Y59115D01*
X646827Y59059D01*
X646910Y59018D01*
X646979Y58962D01*
X647021Y58934D01*
X647048Y58921D01*
X647062Y58907D01*
X647215Y58768D01*
X647354Y58629D01*
X647478Y58463D01*
X647589Y58283D01*
X647756Y57922D01*
X647895Y57575D01*
X647936Y57395D01*
X647978Y57242D01*
X648019Y57104D01*
X648033Y56979D01*
X648061Y56868D01*
Y56799D01*
X648075Y56743D01*
Y56729D01*
X646244Y56549D01*
X646216Y56827D01*
X646161Y57062D01*
X646105Y57270D01*
X646036Y57423D01*
X645981Y57548D01*
X645925Y57631D01*
X645884Y57686D01*
X645870Y57700D01*
X645731Y57811D01*
X645579Y57894D01*
X645426Y57964D01*
X645273Y58005D01*
X645149Y58033D01*
X645038Y58047D01*
X644940D01*
X644733Y58033D01*
X644552Y57991D01*
X644400Y57936D01*
X644261Y57881D01*
X644164Y57825D01*
X644081Y57769D01*
X644039Y57728D01*
X644025Y57714D01*
X643914Y57575D01*
X643831Y57423D01*
X643776Y57270D01*
X643734Y57118D01*
X643706Y56979D01*
X643692Y56854D01*
Y56785D01*
Y56771D01*
Y56757D01*
X643706Y56549D01*
X643748Y56355D01*
X643817Y56161D01*
X643886Y55994D01*
X643956Y55842D01*
X644025Y55731D01*
X644067Y55662D01*
X644081Y55634D01*
X644136Y55551D01*
X644219Y55454D01*
X644330Y55329D01*
X644441Y55218D01*
X644691Y54954D01*
X644940Y54691D01*
X645190Y54441D01*
X645301Y54330D01*
X645412Y54247D01*
X645495Y54164D01*
X645551Y54108D01*
X645592Y54067D01*
X645606Y54053D01*
X645884Y53789D01*
X646133Y53540D01*
X646369Y53304D01*
X646577Y53096D01*
X646771Y52888D01*
X646938Y52694D01*
X647090Y52527D01*
X647215Y52361D01*
X647326Y52222D01*
X647423Y52097D01*
X647506Y52000D01*
X647562Y51903D01*
X647617Y51848D01*
X647645Y51792D01*
X647673Y51764D01*
Y51751D01*
X647853Y51432D01*
X647992Y51099D01*
X648102Y50794D01*
X648186Y50516D01*
X648241Y50267D01*
X648255Y50170D01*
X648269Y50086D01*
X648283Y50017D01*
X648297Y49962D01*
Y49934D01*
Y49920D01*
X641848D01*
Y51626D01*
X645509D01*
X645398Y51806D01*
X645273Y51959D01*
X645218Y52028D01*
X645176Y52084D01*
X645149Y52111D01*
X645135Y52125D01*
X645079Y52181D01*
X645024Y52250D01*
X644857Y52403D01*
X644677Y52583D01*
X644497Y52763D01*
X644316Y52930D01*
X644164Y53068D01*
X644108Y53124D01*
X644067Y53165D01*
X644039Y53179D01*
X644025Y53193D01*
X643720Y53484D01*
X643471Y53720D01*
X643262Y53942D01*
X643096Y54108D01*
X642971Y54247D01*
X642888Y54344D01*
X642832Y54413D01*
X642819Y54427D01*
X642638Y54663D01*
X642486Y54885D01*
X642361Y55093D01*
X642264Y55273D01*
X642181Y55426D01*
X642125Y55551D01*
X642097Y55620D01*
X642084Y55648D01*
X642000Y55870D01*
X641945Y56091D01*
X641903Y56300D01*
X641876Y56494D01*
X641862Y56646D01*
X641848Y56771D01*
Y56854D01*
Y56882D01*
X641862Y57090D01*
X641889Y57298D01*
X641917Y57492D01*
X641973Y57673D01*
X642111Y57991D01*
X642250Y58269D01*
X642333Y58394D01*
X642403Y58491D01*
X642472Y58588D01*
X642541Y58657D01*
X642597Y58713D01*
X642625Y58768D01*
X642652Y58782D01*
X642666Y58796D01*
X642819Y58934D01*
X642999Y59059D01*
X643165Y59156D01*
X643360Y59240D01*
X643720Y59378D01*
X644081Y59475D01*
X644247Y59503D01*
X644400Y59531D01*
X644538Y59545D01*
X644663Y59559D01*
X644760Y59572D01*
X644899D01*
X645135Y59559D01*
D02*
G37*
G36*
X658850Y49920D02*
X657061D01*
Y57464D01*
X655175Y49920D01*
X653303D01*
X651417Y57464D01*
X651403Y49920D01*
X649614D01*
Y59517D01*
X652527D01*
X654232Y52957D01*
X655952Y59517D01*
X658850D01*
Y49920D01*
D02*
G37*
G36*
X419354Y48079D02*
X419595Y47690D01*
X419854Y47319D01*
X420113Y47023D01*
X420335Y46782D01*
X420539Y46597D01*
X420613Y46523D01*
X420669Y46468D01*
X420706Y46449D01*
X420724Y46431D01*
X421132Y46134D01*
X421520Y45875D01*
X421872Y45671D01*
X422187Y45523D01*
X422446Y45412D01*
X422631Y45320D01*
X422705Y45301D01*
X422761Y45283D01*
X422780Y45264D01*
X422798D01*
Y43042D01*
X422132Y43301D01*
X421539Y43579D01*
X421261Y43727D01*
X421002Y43894D01*
X420761Y44042D01*
X420539Y44190D01*
X420335Y44338D01*
X420150Y44468D01*
X420002Y44579D01*
X419873Y44690D01*
X419761Y44783D01*
X419687Y44838D01*
X419650Y44875D01*
X419632Y44894D01*
Y35617D01*
X417169D01*
Y48505D01*
X419169D01*
X419354Y48079D01*
D02*
G37*
G36*
X409003Y48653D02*
X409485Y48597D01*
X409911Y48523D01*
X410281Y48449D01*
X410448Y48393D01*
X410596Y48356D01*
X410707Y48319D01*
X410818Y48282D01*
X410892Y48245D01*
X410947Y48227D01*
X410984Y48208D01*
X411003D01*
X411373Y48023D01*
X411688Y47819D01*
X411966Y47597D01*
X412188Y47393D01*
X412373Y47208D01*
X412484Y47060D01*
X412577Y46949D01*
X412595Y46931D01*
Y46912D01*
X412781Y46597D01*
X412910Y46264D01*
X413003Y45949D01*
X413058Y45671D01*
X413095Y45431D01*
X413132Y45246D01*
Y45171D01*
Y45116D01*
Y45097D01*
Y45079D01*
X413114Y44801D01*
X413077Y44523D01*
X413021Y44283D01*
X412947Y44042D01*
X412762Y43598D01*
X412540Y43209D01*
X412447Y43042D01*
X412336Y42913D01*
X412244Y42783D01*
X412151Y42672D01*
X412077Y42598D01*
X412021Y42542D01*
X411984Y42505D01*
X411966Y42487D01*
X411799Y42357D01*
X411595Y42227D01*
X411392Y42098D01*
X411151Y41987D01*
X410688Y41764D01*
X410207Y41579D01*
X409966Y41505D01*
X409762Y41431D01*
X409559Y41376D01*
X409392Y41320D01*
X409263Y41283D01*
X409151Y41246D01*
X409077Y41227D01*
X409059D01*
X408763Y41153D01*
X408503Y41079D01*
X408263Y41024D01*
X408040Y40968D01*
X407855Y40913D01*
X407688Y40876D01*
X407540Y40820D01*
X407411Y40783D01*
X407300Y40764D01*
X407207Y40728D01*
X407077Y40690D01*
X407003Y40653D01*
X406985D01*
X406744Y40561D01*
X406559Y40468D01*
X406392Y40376D01*
X406263Y40283D01*
X406170Y40209D01*
X406115Y40153D01*
X406078Y40117D01*
X406059Y40098D01*
X405966Y39968D01*
X405892Y39839D01*
X405855Y39709D01*
X405818Y39598D01*
X405800Y39487D01*
X405781Y39394D01*
Y39339D01*
Y39320D01*
X405800Y39061D01*
X405874Y38839D01*
X405985Y38617D01*
X406096Y38431D01*
X406226Y38283D01*
X406318Y38172D01*
X406392Y38098D01*
X406429Y38080D01*
X406689Y37913D01*
X406985Y37783D01*
X407300Y37691D01*
X407596Y37635D01*
X407874Y37598D01*
X408096Y37561D01*
X408300D01*
X408726Y37580D01*
X409096Y37654D01*
X409411Y37746D01*
X409688Y37857D01*
X409911Y37968D01*
X410059Y38061D01*
X410151Y38135D01*
X410188Y38154D01*
X410429Y38413D01*
X410614Y38691D01*
X410781Y39005D01*
X410892Y39320D01*
X410984Y39598D01*
X411059Y39820D01*
X411077Y39894D01*
Y39968D01*
X411096Y40005D01*
Y40024D01*
X413614Y39783D01*
X413558Y39394D01*
X413484Y39024D01*
X413373Y38672D01*
X413281Y38357D01*
X413151Y38061D01*
X413021Y37783D01*
X412892Y37543D01*
X412762Y37320D01*
X412632Y37135D01*
X412503Y36969D01*
X412392Y36820D01*
X412281Y36691D01*
X412207Y36598D01*
X412132Y36543D01*
X412095Y36506D01*
X412077Y36487D01*
X411818Y36284D01*
X411540Y36117D01*
X411244Y35969D01*
X410929Y35839D01*
X410633Y35747D01*
X410318Y35654D01*
X409707Y35524D01*
X409429Y35469D01*
X409170Y35432D01*
X408948Y35413D01*
X408744Y35395D01*
X408577Y35376D01*
X408337D01*
X407744Y35395D01*
X407207Y35450D01*
X406726Y35524D01*
X406522Y35561D01*
X406318Y35617D01*
X406152Y35654D01*
X406003Y35691D01*
X405874Y35728D01*
X405763Y35765D01*
X405670Y35802D01*
X405615Y35821D01*
X405578Y35839D01*
X405559D01*
X405152Y36043D01*
X404818Y36265D01*
X404504Y36487D01*
X404263Y36728D01*
X404078Y36932D01*
X403930Y37117D01*
X403856Y37228D01*
X403819Y37246D01*
Y37265D01*
X403615Y37635D01*
X403448Y37987D01*
X403337Y38339D01*
X403263Y38672D01*
X403226Y38931D01*
X403208Y39061D01*
X403189Y39154D01*
Y39228D01*
Y39283D01*
Y39320D01*
Y39339D01*
X403208Y39783D01*
X403263Y40172D01*
X403356Y40524D01*
X403448Y40820D01*
X403541Y41061D01*
X403633Y41227D01*
X403689Y41339D01*
X403708Y41376D01*
X403911Y41672D01*
X404152Y41931D01*
X404393Y42153D01*
X404615Y42338D01*
X404818Y42487D01*
X404985Y42598D01*
X405096Y42672D01*
X405115Y42690D01*
X405133D01*
X405318Y42783D01*
X405504Y42875D01*
X405948Y43042D01*
X406411Y43190D01*
X406855Y43338D01*
X407059Y43394D01*
X407263Y43449D01*
X407448Y43505D01*
X407596Y43542D01*
X407726Y43579D01*
X407818Y43598D01*
X407892Y43616D01*
X407911D01*
X408244Y43709D01*
X408540Y43783D01*
X408818Y43857D01*
X409077Y43931D01*
X409281Y44005D01*
X409485Y44079D01*
X409651Y44153D01*
X409799Y44209D01*
X409929Y44264D01*
X410022Y44320D01*
X410114Y44357D01*
X410170Y44394D01*
X410262Y44449D01*
X410281Y44468D01*
X410410Y44598D01*
X410503Y44727D01*
X410559Y44857D01*
X410596Y44986D01*
X410633Y45079D01*
X410651Y45171D01*
Y45227D01*
Y45246D01*
X410633Y45431D01*
X410596Y45579D01*
X410522Y45727D01*
X410448Y45838D01*
X410373Y45931D01*
X410299Y45986D01*
X410262Y46023D01*
X410244Y46042D01*
X409985Y46208D01*
X409707Y46319D01*
X409411Y46412D01*
X409133Y46468D01*
X408892Y46505D01*
X408688Y46523D01*
X408503D01*
X408114Y46505D01*
X407781Y46449D01*
X407503Y46375D01*
X407281Y46301D01*
X407096Y46227D01*
X406966Y46153D01*
X406892Y46097D01*
X406874Y46079D01*
X406689Y45894D01*
X406522Y45671D01*
X406392Y45449D01*
X406300Y45209D01*
X406226Y45005D01*
X406189Y44838D01*
X406152Y44709D01*
Y44690D01*
Y44672D01*
X403559Y44764D01*
X403578Y45097D01*
X403633Y45394D01*
X403708Y45690D01*
X403800Y45949D01*
X403893Y46208D01*
X404004Y46449D01*
X404115Y46653D01*
X404226Y46856D01*
X404356Y47023D01*
X404467Y47171D01*
X404578Y47301D01*
X404670Y47412D01*
X404744Y47486D01*
X404800Y47542D01*
X404837Y47579D01*
X404855Y47597D01*
X405096Y47782D01*
X405355Y47949D01*
X405633Y48097D01*
X405929Y48227D01*
X406226Y48319D01*
X406522Y48412D01*
X407114Y48541D01*
X407392Y48579D01*
X407633Y48616D01*
X407874Y48634D01*
X408077Y48653D01*
X408244Y48671D01*
X408466D01*
X409003Y48653D01*
D02*
G37*
G36*
X416595Y30536D02*
X414132D01*
Y32813D01*
X416595D01*
Y30536D01*
D02*
G37*
G36*
X408800Y27462D02*
X412151D01*
Y25166D01*
X408800D01*
Y21852D01*
X406559D01*
Y25166D01*
X403189D01*
Y27462D01*
X406559D01*
Y30777D01*
X408800D01*
Y27462D01*
D02*
G37*
G36*
X427446Y20000D02*
X418410D01*
Y22167D01*
X424853D01*
Y32721D01*
X427446D01*
Y20000D01*
D02*
G37*
G36*
X416595D02*
X414132D01*
Y29295D01*
X416595D01*
Y20000D01*
D02*
G37*
G36*
X255135Y59559D02*
X255357Y59545D01*
X255786Y59475D01*
X256147Y59364D01*
X256313Y59309D01*
X256466Y59240D01*
X256605Y59184D01*
X256716Y59115D01*
X256827Y59059D01*
X256910Y59018D01*
X256979Y58962D01*
X257021Y58934D01*
X257048Y58921D01*
X257062Y58907D01*
X257215Y58768D01*
X257354Y58629D01*
X257479Y58463D01*
X257589Y58283D01*
X257756Y57922D01*
X257894Y57575D01*
X257936Y57395D01*
X257978Y57242D01*
X258019Y57104D01*
X258033Y56979D01*
X258061Y56868D01*
Y56799D01*
X258075Y56743D01*
Y56729D01*
X256244Y56549D01*
X256216Y56827D01*
X256161Y57062D01*
X256105Y57270D01*
X256036Y57423D01*
X255981Y57548D01*
X255925Y57631D01*
X255884Y57686D01*
X255870Y57700D01*
X255731Y57811D01*
X255578Y57894D01*
X255426Y57964D01*
X255273Y58005D01*
X255149Y58033D01*
X255038Y58047D01*
X254940D01*
X254732Y58033D01*
X254552Y57991D01*
X254400Y57936D01*
X254261Y57881D01*
X254164Y57825D01*
X254081Y57769D01*
X254039Y57728D01*
X254025Y57714D01*
X253914Y57575D01*
X253831Y57423D01*
X253776Y57270D01*
X253734Y57118D01*
X253706Y56979D01*
X253692Y56854D01*
Y56785D01*
Y56771D01*
Y56757D01*
X253706Y56549D01*
X253748Y56355D01*
X253817Y56161D01*
X253887Y55994D01*
X253956Y55842D01*
X254025Y55731D01*
X254067Y55662D01*
X254081Y55634D01*
X254136Y55551D01*
X254219Y55454D01*
X254330Y55329D01*
X254441Y55218D01*
X254691Y54954D01*
X254940Y54691D01*
X255190Y54441D01*
X255301Y54330D01*
X255412Y54247D01*
X255495Y54164D01*
X255551Y54108D01*
X255592Y54067D01*
X255606Y54053D01*
X255884Y53789D01*
X256133Y53540D01*
X256369Y53304D01*
X256577Y53096D01*
X256771Y52888D01*
X256938Y52694D01*
X257090Y52527D01*
X257215Y52361D01*
X257326Y52222D01*
X257423Y52097D01*
X257506Y52000D01*
X257562Y51903D01*
X257617Y51848D01*
X257645Y51792D01*
X257673Y51764D01*
Y51751D01*
X257853Y51432D01*
X257992Y51099D01*
X258102Y50794D01*
X258186Y50516D01*
X258241Y50267D01*
X258255Y50170D01*
X258269Y50086D01*
X258283Y50017D01*
X258297Y49962D01*
Y49934D01*
Y49920D01*
X251848D01*
Y51626D01*
X255509D01*
X255398Y51806D01*
X255273Y51959D01*
X255218Y52028D01*
X255176Y52084D01*
X255149Y52111D01*
X255135Y52125D01*
X255079Y52181D01*
X255024Y52250D01*
X254857Y52403D01*
X254677Y52583D01*
X254497Y52763D01*
X254317Y52930D01*
X254164Y53068D01*
X254108Y53124D01*
X254067Y53165D01*
X254039Y53179D01*
X254025Y53193D01*
X253720Y53484D01*
X253470Y53720D01*
X253263Y53942D01*
X253096Y54108D01*
X252971Y54247D01*
X252888Y54344D01*
X252833Y54413D01*
X252819Y54427D01*
X252638Y54663D01*
X252486Y54885D01*
X252361Y55093D01*
X252264Y55273D01*
X252181Y55426D01*
X252125Y55551D01*
X252097Y55620D01*
X252084Y55648D01*
X252000Y55870D01*
X251945Y56091D01*
X251903Y56300D01*
X251876Y56494D01*
X251862Y56646D01*
X251848Y56771D01*
Y56854D01*
Y56882D01*
X251862Y57090D01*
X251889Y57298D01*
X251917Y57492D01*
X251973Y57673D01*
X252111Y57991D01*
X252250Y58269D01*
X252333Y58394D01*
X252403Y58491D01*
X252472Y58588D01*
X252541Y58657D01*
X252597Y58713D01*
X252624Y58768D01*
X252652Y58782D01*
X252666Y58796D01*
X252819Y58934D01*
X252999Y59059D01*
X253165Y59156D01*
X253360Y59240D01*
X253720Y59378D01*
X254081Y59475D01*
X254247Y59503D01*
X254400Y59531D01*
X254538Y59545D01*
X254663Y59559D01*
X254760Y59572D01*
X254899D01*
X255135Y59559D01*
D02*
G37*
G36*
X268850Y49920D02*
X267062D01*
Y57464D01*
X265175Y49920D01*
X263303D01*
X261417Y57464D01*
X261403Y49920D01*
X259614D01*
Y59517D01*
X262527D01*
X264232Y52957D01*
X265952Y59517D01*
X268850D01*
Y49920D01*
D02*
G37*
G36*
X352524Y25199D02*
X345278D01*
Y28891D01*
X352524D01*
Y25199D01*
D02*
G37*
G36*
X349687Y51972D02*
X354712D01*
Y48530D01*
X349687D01*
Y43560D01*
X346328D01*
Y48530D01*
X341275D01*
Y51972D01*
X346328D01*
Y56941D01*
X349687D01*
Y51972D01*
D02*
G37*
G36*
X1216841Y48689D02*
X1214378Y48689D01*
Y50967D01*
X1216841Y50967D01*
Y48689D01*
D02*
G37*
G36*
X1184103Y38153D02*
X1181826D01*
Y39505D01*
X1181604Y39227D01*
X1181381Y38986D01*
X1181159Y38801D01*
X1180956Y38635D01*
X1180770Y38505D01*
X1180622Y38412D01*
X1180530Y38357D01*
X1180493Y38338D01*
X1180196Y38209D01*
X1179919Y38116D01*
X1179659Y38042D01*
X1179419Y38005D01*
X1179215Y37968D01*
X1179048Y37950D01*
X1178919D01*
X1178622Y37968D01*
X1178326Y38005D01*
X1178067Y38061D01*
X1177808Y38153D01*
X1177326Y38357D01*
X1177122Y38468D01*
X1176919Y38598D01*
X1176752Y38709D01*
X1176604Y38820D01*
X1176475Y38931D01*
X1176363Y39023D01*
X1176271Y39116D01*
X1176215Y39172D01*
X1176178Y39209D01*
X1176160Y39227D01*
X1175956Y39486D01*
X1175789Y39746D01*
X1175623Y40042D01*
X1175493Y40338D01*
X1175382Y40653D01*
X1175289Y40949D01*
X1175160Y41542D01*
X1175104Y41819D01*
X1175067Y42079D01*
X1175049Y42301D01*
X1175030Y42505D01*
X1175012Y42671D01*
Y42782D01*
Y42875D01*
Y42893D01*
X1175030Y43319D01*
X1175067Y43708D01*
X1175123Y44078D01*
X1175178Y44412D01*
X1175271Y44727D01*
X1175363Y45023D01*
X1175475Y45282D01*
X1175567Y45523D01*
X1175678Y45726D01*
X1175789Y45912D01*
X1175882Y46060D01*
X1175956Y46189D01*
X1176030Y46282D01*
X1176086Y46356D01*
X1176123Y46393D01*
X1176141Y46412D01*
X1176363Y46634D01*
X1176586Y46819D01*
X1176808Y46986D01*
X1177048Y47134D01*
X1177289Y47245D01*
X1177511Y47356D01*
X1177956Y47504D01*
X1178178Y47541D01*
X1178363Y47578D01*
X1178530Y47615D01*
X1178678Y47634D01*
X1178789Y47652D01*
X1178956D01*
X1179233Y47634D01*
X1179511Y47597D01*
X1179789Y47541D01*
X1180030Y47449D01*
X1180493Y47245D01*
X1180881Y47004D01*
X1181048Y46893D01*
X1181196Y46763D01*
X1181326Y46652D01*
X1181437Y46560D01*
X1181529Y46467D01*
X1181585Y46412D01*
X1181622Y46375D01*
X1181641Y46356D01*
Y50967D01*
X1184103D01*
Y38153D01*
D02*
G37*
G36*
X1287500Y38153D02*
X1285037D01*
Y42801D01*
X1285019Y43208D01*
X1285000Y43560D01*
X1284963Y43875D01*
X1284926Y44116D01*
X1284889Y44319D01*
X1284852Y44449D01*
X1284815Y44541D01*
Y44560D01*
X1284722Y44764D01*
X1284611Y44949D01*
X1284500Y45097D01*
X1284371Y45226D01*
X1284278Y45319D01*
X1284185Y45393D01*
X1284130Y45430D01*
X1284111Y45449D01*
X1283926Y45560D01*
X1283741Y45634D01*
X1283556Y45689D01*
X1283389Y45726D01*
X1283241Y45745D01*
X1283130Y45764D01*
X1283019D01*
X1282834Y45745D01*
X1282649Y45726D01*
X1282500Y45689D01*
X1282371Y45652D01*
X1282278Y45597D01*
X1282186Y45560D01*
X1282149Y45541D01*
X1282130Y45523D01*
X1282001Y45430D01*
X1281908Y45319D01*
X1281741Y45115D01*
X1281704Y45023D01*
X1281667Y44967D01*
X1281630Y44912D01*
Y44893D01*
X1281612Y44801D01*
X1281575Y44708D01*
X1281538Y44449D01*
X1281519Y44134D01*
X1281501Y43819D01*
X1281482Y43523D01*
Y43393D01*
Y43282D01*
Y43171D01*
Y43097D01*
Y43060D01*
Y43042D01*
Y38153D01*
X1279019D01*
Y43597D01*
Y44042D01*
X1279038Y44412D01*
X1279056Y44727D01*
X1279075Y44986D01*
X1279112Y45171D01*
X1279130Y45319D01*
X1279149Y45412D01*
Y45430D01*
X1279205Y45652D01*
X1279279Y45856D01*
X1279353Y46041D01*
X1279445Y46208D01*
X1279519Y46337D01*
X1279575Y46430D01*
X1279612Y46504D01*
X1279630Y46523D01*
X1279779Y46689D01*
X1279945Y46856D01*
X1280112Y46986D01*
X1280278Y47097D01*
X1280427Y47189D01*
X1280556Y47263D01*
X1280630Y47300D01*
X1280667Y47319D01*
X1280927Y47430D01*
X1281204Y47504D01*
X1281445Y47578D01*
X1281686Y47615D01*
X1281889Y47634D01*
X1282056Y47652D01*
X1282204D01*
X1282500Y47634D01*
X1282797Y47597D01*
X1283074Y47523D01*
X1283334Y47430D01*
X1283815Y47208D01*
X1284037Y47078D01*
X1284241Y46949D01*
X1284408Y46800D01*
X1284574Y46671D01*
X1284704Y46560D01*
X1284834Y46449D01*
X1284908Y46356D01*
X1284982Y46282D01*
X1285019Y46245D01*
X1285037Y46226D01*
Y50967D01*
X1287500D01*
Y38153D01*
D02*
G37*
G36*
X1205916Y38153D02*
X1203453D01*
Y42801D01*
X1203435Y43208D01*
X1203416Y43560D01*
X1203379Y43875D01*
X1203342Y44116D01*
X1203305Y44319D01*
X1203268Y44449D01*
X1203231Y44541D01*
Y44560D01*
X1203138Y44764D01*
X1203027Y44949D01*
X1202916Y45097D01*
X1202786Y45226D01*
X1202694Y45319D01*
X1202601Y45393D01*
X1202546Y45430D01*
X1202527Y45449D01*
X1202342Y45560D01*
X1202157Y45634D01*
X1201972Y45689D01*
X1201805Y45726D01*
X1201657Y45745D01*
X1201546Y45764D01*
X1201435D01*
X1201250Y45745D01*
X1201065Y45726D01*
X1200916Y45689D01*
X1200787Y45652D01*
X1200694Y45597D01*
X1200602Y45560D01*
X1200565Y45541D01*
X1200546Y45523D01*
X1200416Y45430D01*
X1200324Y45319D01*
X1200157Y45115D01*
X1200120Y45023D01*
X1200083Y44967D01*
X1200046Y44912D01*
Y44893D01*
X1200028Y44801D01*
X1199990Y44708D01*
X1199954Y44449D01*
X1199935Y44134D01*
X1199917Y43819D01*
X1199898Y43523D01*
Y43393D01*
Y43282D01*
Y43171D01*
Y43097D01*
Y43060D01*
Y43042D01*
Y38153D01*
X1197435D01*
Y43597D01*
Y44041D01*
X1197454Y44412D01*
X1197472Y44727D01*
X1197491Y44986D01*
X1197528Y45171D01*
X1197546Y45319D01*
X1197565Y45412D01*
Y45430D01*
X1197620Y45652D01*
X1197694Y45856D01*
X1197768Y46041D01*
X1197861Y46208D01*
X1197935Y46337D01*
X1197991Y46430D01*
X1198028Y46504D01*
X1198046Y46523D01*
X1198194Y46689D01*
X1198361Y46856D01*
X1198528Y46986D01*
X1198694Y47097D01*
X1198842Y47189D01*
X1198972Y47263D01*
X1199046Y47300D01*
X1199083Y47319D01*
X1199342Y47430D01*
X1199620Y47504D01*
X1199861Y47578D01*
X1200102Y47615D01*
X1200305Y47634D01*
X1200472Y47652D01*
X1200620D01*
X1200916Y47634D01*
X1201213Y47597D01*
X1201490Y47523D01*
X1201750Y47430D01*
X1202231Y47208D01*
X1202453Y47078D01*
X1202657Y46948D01*
X1202824Y46800D01*
X1202990Y46671D01*
X1203120Y46560D01*
X1203250Y46449D01*
X1203324Y46356D01*
X1203398Y46282D01*
X1203435Y46245D01*
X1203453Y46226D01*
Y50967D01*
X1205916D01*
Y38153D01*
D02*
G37*
G36*
X1142515Y47634D02*
X1142811Y47597D01*
X1143089Y47523D01*
X1143367Y47430D01*
X1143848Y47189D01*
X1144070Y47041D01*
X1144274Y46912D01*
X1144459Y46782D01*
X1144626Y46634D01*
X1144755Y46523D01*
X1144867Y46412D01*
X1144959Y46301D01*
X1145033Y46226D01*
X1145070Y46189D01*
X1145089Y46171D01*
Y47449D01*
X1147348D01*
Y38153D01*
X1144885D01*
Y42653D01*
Y43116D01*
X1144848Y43523D01*
X1144830Y43838D01*
X1144793Y44116D01*
X1144755Y44301D01*
X1144737Y44449D01*
X1144700Y44541D01*
Y44560D01*
X1144607Y44764D01*
X1144515Y44949D01*
X1144404Y45097D01*
X1144293Y45226D01*
X1144200Y45319D01*
X1144126Y45393D01*
X1144070Y45430D01*
X1144052Y45449D01*
X1143867Y45560D01*
X1143700Y45634D01*
X1143533Y45689D01*
X1143367Y45726D01*
X1143237Y45745D01*
X1143126Y45764D01*
X1142867D01*
X1142719Y45726D01*
X1142589Y45708D01*
X1142478Y45671D01*
X1142404Y45634D01*
X1142348Y45597D01*
X1142311Y45578D01*
X1142293Y45560D01*
X1142200Y45486D01*
X1142108Y45393D01*
X1141978Y45189D01*
X1141941Y45115D01*
X1141904Y45041D01*
X1141885Y44986D01*
Y44967D01*
X1141867Y44893D01*
X1141830Y44782D01*
X1141793Y44523D01*
X1141774Y44245D01*
X1141756Y43949D01*
X1141737Y43671D01*
Y43449D01*
Y43356D01*
Y43282D01*
Y43245D01*
Y43227D01*
Y38153D01*
X1139275D01*
Y42597D01*
Y43060D01*
X1139238Y43449D01*
X1139219Y43782D01*
X1139182Y44060D01*
X1139145Y44264D01*
X1139127Y44412D01*
X1139089Y44486D01*
Y44523D01*
X1138997Y44745D01*
X1138904Y44930D01*
X1138793Y45078D01*
X1138682Y45208D01*
X1138589Y45319D01*
X1138515Y45393D01*
X1138460Y45430D01*
X1138441Y45449D01*
X1138275Y45560D01*
X1138090Y45634D01*
X1137923Y45689D01*
X1137775Y45726D01*
X1137645Y45745D01*
X1137553Y45764D01*
X1137460D01*
X1137219Y45745D01*
X1136997Y45689D01*
X1136812Y45597D01*
X1136664Y45504D01*
X1136553Y45393D01*
X1136479Y45319D01*
X1136423Y45245D01*
X1136404Y45226D01*
X1136367Y45134D01*
X1136312Y45041D01*
X1136256Y44782D01*
X1136201Y44486D01*
X1136182Y44190D01*
X1136164Y43912D01*
X1136145Y43671D01*
Y43579D01*
Y43505D01*
Y43467D01*
Y43449D01*
Y38153D01*
X1133683D01*
Y44078D01*
X1133701Y44541D01*
X1133720Y44949D01*
X1133757Y45282D01*
X1133812Y45541D01*
X1133868Y45745D01*
X1133905Y45893D01*
X1133923Y45986D01*
X1133942Y46004D01*
X1134090Y46301D01*
X1134257Y46541D01*
X1134442Y46745D01*
X1134608Y46930D01*
X1134775Y47060D01*
X1134905Y47152D01*
X1134979Y47208D01*
X1135016Y47226D01*
X1135294Y47374D01*
X1135590Y47467D01*
X1135868Y47541D01*
X1136145Y47597D01*
X1136386Y47634D01*
X1136571Y47652D01*
X1136738D01*
X1137034Y47634D01*
X1137312Y47597D01*
X1137571Y47541D01*
X1137793Y47467D01*
X1137978Y47393D01*
X1138127Y47337D01*
X1138219Y47300D01*
X1138256Y47282D01*
X1138515Y47134D01*
X1138756Y46948D01*
X1138978Y46763D01*
X1139182Y46578D01*
X1139349Y46412D01*
X1139460Y46282D01*
X1139534Y46189D01*
X1139571Y46152D01*
X1139737Y46412D01*
X1139923Y46652D01*
X1140108Y46837D01*
X1140275Y47004D01*
X1140423Y47134D01*
X1140552Y47208D01*
X1140626Y47263D01*
X1140663Y47282D01*
X1140923Y47411D01*
X1141182Y47504D01*
X1141441Y47560D01*
X1141682Y47615D01*
X1141885Y47634D01*
X1142052Y47652D01*
X1142200D01*
X1142515Y47634D01*
D02*
G37*
G36*
X1224710Y47634D02*
X1225006Y47597D01*
X1225284Y47541D01*
X1225562Y47467D01*
X1226025Y47263D01*
X1226247Y47152D01*
X1226432Y47041D01*
X1226617Y46912D01*
X1226766Y46800D01*
X1226895Y46708D01*
X1227006Y46615D01*
X1227099Y46523D01*
X1227154Y46467D01*
X1227191Y46430D01*
X1227210Y46412D01*
X1227414Y46171D01*
X1227580Y45912D01*
X1227728Y45615D01*
X1227858Y45338D01*
X1227951Y45041D01*
X1228043Y44745D01*
X1228173Y44153D01*
X1228228Y43893D01*
X1228265Y43634D01*
X1228284Y43412D01*
X1228302Y43227D01*
X1228321Y43060D01*
Y42949D01*
Y42856D01*
Y42838D01*
X1228302Y42505D01*
X1228284Y42171D01*
X1228191Y41579D01*
X1228117Y41301D01*
X1228043Y41042D01*
X1227969Y40801D01*
X1227895Y40597D01*
X1227821Y40394D01*
X1227747Y40227D01*
X1227673Y40079D01*
X1227599Y39949D01*
X1227543Y39857D01*
X1227506Y39783D01*
X1227469Y39746D01*
Y39727D01*
X1227247Y39449D01*
X1227025Y39209D01*
X1226784Y39005D01*
X1226543Y38820D01*
X1226303Y38672D01*
X1226043Y38542D01*
X1225803Y38431D01*
X1225581Y38357D01*
X1225358Y38283D01*
X1225155Y38246D01*
X1224969Y38209D01*
X1224821Y38172D01*
X1224692D01*
X1224581Y38153D01*
X1224507D01*
X1224192Y38172D01*
X1223895Y38227D01*
X1223618Y38301D01*
X1223359Y38394D01*
X1222896Y38635D01*
X1222673Y38764D01*
X1222488Y38912D01*
X1222322Y39042D01*
X1222155Y39172D01*
X1222025Y39301D01*
X1221933Y39412D01*
X1221840Y39523D01*
X1221785Y39597D01*
X1221748Y39634D01*
X1221729Y39653D01*
Y38301D01*
Y38024D01*
X1221748Y37783D01*
X1221766Y37598D01*
X1221785Y37450D01*
X1221822Y37320D01*
X1221840Y37246D01*
X1221859Y37209D01*
Y37190D01*
X1221933Y37042D01*
X1222007Y36913D01*
X1222081Y36802D01*
X1222155Y36709D01*
X1222229Y36635D01*
X1222284Y36598D01*
X1222322Y36579D01*
X1222340Y36561D01*
X1222544Y36468D01*
X1222766Y36394D01*
X1223007Y36339D01*
X1223247Y36302D01*
X1223451Y36283D01*
X1223618Y36265D01*
X1223784D01*
X1224044Y36283D01*
X1224266Y36302D01*
X1224451Y36357D01*
X1224599Y36413D01*
X1224729Y36450D01*
X1224803Y36505D01*
X1224858Y36524D01*
X1224877Y36542D01*
X1224969Y36616D01*
X1225043Y36727D01*
X1225136Y36950D01*
X1225155Y37042D01*
X1225173Y37135D01*
X1225192Y37190D01*
Y37209D01*
X1228006Y37542D01*
X1228025Y37431D01*
Y37339D01*
Y37264D01*
Y37246D01*
X1228006Y37024D01*
X1227988Y36802D01*
X1227877Y36394D01*
X1227710Y36042D01*
X1227525Y35746D01*
X1227358Y35505D01*
X1227191Y35339D01*
X1227080Y35228D01*
X1227062Y35209D01*
X1227043Y35190D01*
X1226840Y35042D01*
X1226617Y34931D01*
X1226358Y34820D01*
X1226099Y34728D01*
X1225543Y34580D01*
X1224988Y34487D01*
X1224729Y34450D01*
X1224488Y34413D01*
X1224266Y34394D01*
X1224081D01*
X1223914Y34376D01*
X1223692D01*
X1223247Y34394D01*
X1222840Y34413D01*
X1222488Y34468D01*
X1222173Y34524D01*
X1221933Y34561D01*
X1221766Y34616D01*
X1221655Y34635D01*
X1221618Y34654D01*
X1221322Y34765D01*
X1221062Y34876D01*
X1220840Y35005D01*
X1220655Y35117D01*
X1220525Y35209D01*
X1220414Y35302D01*
X1220340Y35357D01*
X1220322Y35376D01*
X1220137Y35561D01*
X1219988Y35765D01*
X1219859Y35987D01*
X1219748Y36190D01*
X1219655Y36376D01*
X1219600Y36524D01*
X1219563Y36616D01*
X1219544Y36653D01*
X1219489Y36820D01*
X1219452Y36987D01*
X1219377Y37376D01*
X1219340Y37783D01*
X1219303Y38190D01*
X1219285Y38542D01*
X1219266Y38690D01*
Y38838D01*
Y38949D01*
Y39023D01*
Y39079D01*
Y39097D01*
Y47449D01*
X1221562D01*
Y46115D01*
X1221785Y46393D01*
X1222007Y46615D01*
X1222247Y46838D01*
X1222488Y47004D01*
X1222729Y47152D01*
X1222970Y47282D01*
X1223192Y47375D01*
X1223414Y47467D01*
X1223618Y47523D01*
X1223803Y47578D01*
X1223988Y47597D01*
X1224118Y47634D01*
X1224247D01*
X1224340Y47652D01*
X1224414D01*
X1224710Y47634D01*
D02*
G37*
G36*
X1243245Y44986D02*
X1240783D01*
Y47449D01*
X1243245D01*
Y44986D01*
D02*
G37*
G36*
X1276408Y49300D02*
Y47449D01*
X1277538D01*
Y45486D01*
X1276408D01*
Y41431D01*
Y41190D01*
Y40986D01*
Y40782D01*
X1276390Y40616D01*
Y40320D01*
X1276372Y40079D01*
X1276353Y39894D01*
Y39783D01*
X1276335Y39709D01*
Y39690D01*
X1276297Y39486D01*
X1276242Y39301D01*
X1276186Y39135D01*
X1276131Y39005D01*
X1276075Y38894D01*
X1276038Y38820D01*
X1276020Y38764D01*
X1276001Y38746D01*
X1275890Y38616D01*
X1275760Y38505D01*
X1275501Y38320D01*
X1275390Y38264D01*
X1275298Y38209D01*
X1275223Y38190D01*
X1275205Y38172D01*
X1275001Y38098D01*
X1274798Y38042D01*
X1274594Y38005D01*
X1274409Y37987D01*
X1274242Y37968D01*
X1274112Y37950D01*
X1274001D01*
X1273613Y37968D01*
X1273242Y38005D01*
X1272909Y38061D01*
X1272631Y38135D01*
X1272390Y38190D01*
X1272205Y38246D01*
X1272094Y38283D01*
X1272076Y38301D01*
X1272057D01*
X1272279Y40209D01*
X1272502Y40135D01*
X1272705Y40079D01*
X1272872Y40042D01*
X1273020Y40023D01*
X1273131Y40005D01*
X1273205Y39986D01*
X1273279D01*
X1273446Y40005D01*
X1273576Y40042D01*
X1273650Y40079D01*
X1273687Y40097D01*
X1273798Y40209D01*
X1273853Y40301D01*
X1273890Y40375D01*
X1273909Y40412D01*
Y40449D01*
X1273927Y40523D01*
Y40690D01*
Y40912D01*
X1273946Y41134D01*
Y41357D01*
Y41542D01*
Y41616D01*
Y41671D01*
Y41708D01*
Y41727D01*
Y45486D01*
X1272261D01*
Y47449D01*
X1273946D01*
Y50745D01*
X1276408Y49300D01*
D02*
G37*
G36*
X1270446D02*
Y47449D01*
X1271576D01*
Y45486D01*
X1270446D01*
Y41431D01*
Y41190D01*
Y40986D01*
Y40782D01*
X1270428Y40616D01*
Y40320D01*
X1270409Y40079D01*
X1270391Y39894D01*
Y39783D01*
X1270372Y39709D01*
Y39690D01*
X1270335Y39486D01*
X1270280Y39301D01*
X1270224Y39135D01*
X1270169Y39005D01*
X1270113Y38894D01*
X1270076Y38820D01*
X1270057Y38764D01*
X1270039Y38746D01*
X1269928Y38616D01*
X1269798Y38505D01*
X1269539Y38320D01*
X1269428Y38264D01*
X1269335Y38209D01*
X1269261Y38190D01*
X1269243Y38172D01*
X1269039Y38098D01*
X1268835Y38042D01*
X1268632Y38005D01*
X1268446Y37987D01*
X1268280Y37968D01*
X1268150Y37950D01*
X1268039D01*
X1267650Y37968D01*
X1267280Y38005D01*
X1266947Y38061D01*
X1266669Y38135D01*
X1266428Y38190D01*
X1266243Y38246D01*
X1266132Y38283D01*
X1266113Y38301D01*
X1266095D01*
X1266317Y40209D01*
X1266539Y40135D01*
X1266743Y40079D01*
X1266909Y40042D01*
X1267058Y40023D01*
X1267169Y40005D01*
X1267243Y39986D01*
X1267317D01*
X1267484Y40005D01*
X1267613Y40042D01*
X1267687Y40079D01*
X1267724Y40097D01*
X1267835Y40209D01*
X1267891Y40301D01*
X1267928Y40375D01*
X1267946Y40412D01*
Y40449D01*
X1267965Y40523D01*
Y40690D01*
Y40912D01*
X1267983Y41134D01*
Y41357D01*
Y41542D01*
Y41616D01*
Y41671D01*
Y41708D01*
Y41727D01*
Y45486D01*
X1266299D01*
Y47449D01*
X1267983D01*
Y50745D01*
X1270446Y49300D01*
D02*
G37*
G36*
X1211730Y49300D02*
Y47449D01*
X1212860D01*
Y45486D01*
X1211730D01*
Y41431D01*
Y41190D01*
Y40986D01*
Y40782D01*
X1211712Y40616D01*
Y40320D01*
X1211693Y40079D01*
X1211674Y39894D01*
Y39783D01*
X1211656Y39709D01*
Y39690D01*
X1211619Y39486D01*
X1211563Y39301D01*
X1211508Y39135D01*
X1211452Y39005D01*
X1211397Y38894D01*
X1211360Y38820D01*
X1211341Y38764D01*
X1211323Y38746D01*
X1211212Y38616D01*
X1211082Y38505D01*
X1210823Y38320D01*
X1210712Y38264D01*
X1210619Y38209D01*
X1210545Y38190D01*
X1210527Y38172D01*
X1210323Y38098D01*
X1210119Y38042D01*
X1209915Y38005D01*
X1209730Y37987D01*
X1209564Y37968D01*
X1209434Y37950D01*
X1209323D01*
X1208934Y37968D01*
X1208564Y38005D01*
X1208230Y38061D01*
X1207953Y38135D01*
X1207712Y38190D01*
X1207527Y38246D01*
X1207416Y38283D01*
X1207397Y38301D01*
X1207379D01*
X1207601Y40209D01*
X1207823Y40134D01*
X1208027Y40079D01*
X1208193Y40042D01*
X1208342Y40023D01*
X1208453Y40005D01*
X1208527Y39986D01*
X1208601D01*
X1208767Y40005D01*
X1208897Y40042D01*
X1208971Y40079D01*
X1209008Y40097D01*
X1209119Y40209D01*
X1209175Y40301D01*
X1209212Y40375D01*
X1209230Y40412D01*
Y40449D01*
X1209249Y40523D01*
Y40690D01*
Y40912D01*
X1209267Y41134D01*
Y41357D01*
Y41542D01*
Y41616D01*
Y41671D01*
Y41708D01*
Y41727D01*
Y45486D01*
X1207582D01*
Y47449D01*
X1209267D01*
Y50745D01*
X1211730Y49300D01*
D02*
G37*
G36*
X1164513Y47634D02*
X1164865Y47597D01*
X1165216Y47541D01*
X1165513Y47449D01*
X1165809Y47356D01*
X1166087Y47245D01*
X1166327Y47134D01*
X1166550Y47004D01*
X1166753Y46893D01*
X1166920Y46763D01*
X1167068Y46652D01*
X1167198Y46560D01*
X1167290Y46467D01*
X1167364Y46412D01*
X1167401Y46375D01*
X1167420Y46356D01*
X1167624Y46097D01*
X1167809Y45838D01*
X1167975Y45560D01*
X1168123Y45264D01*
X1168235Y44967D01*
X1168327Y44671D01*
X1168475Y44097D01*
X1168531Y43819D01*
X1168568Y43579D01*
X1168586Y43356D01*
X1168605Y43153D01*
X1168623Y43004D01*
Y42875D01*
Y42801D01*
Y42782D01*
X1168605Y42375D01*
X1168568Y41968D01*
X1168512Y41616D01*
X1168438Y41264D01*
X1168346Y40949D01*
X1168235Y40653D01*
X1168142Y40394D01*
X1168012Y40153D01*
X1167901Y39931D01*
X1167809Y39746D01*
X1167698Y39597D01*
X1167605Y39468D01*
X1167531Y39357D01*
X1167475Y39283D01*
X1167438Y39246D01*
X1167420Y39227D01*
X1167179Y39005D01*
X1166938Y38801D01*
X1166679Y38635D01*
X1166401Y38486D01*
X1166142Y38357D01*
X1165864Y38264D01*
X1165605Y38172D01*
X1165346Y38116D01*
X1165105Y38061D01*
X1164883Y38024D01*
X1164679Y37987D01*
X1164513Y37968D01*
X1164383Y37950D01*
X1164179D01*
X1163846Y37968D01*
X1163550Y37987D01*
X1163254Y38024D01*
X1162976Y38079D01*
X1162717Y38135D01*
X1162494Y38209D01*
X1162272Y38283D01*
X1162087Y38375D01*
X1161902Y38449D01*
X1161754Y38523D01*
X1161624Y38598D01*
X1161513Y38653D01*
X1161439Y38709D01*
X1161383Y38746D01*
X1161346Y38783D01*
X1161328D01*
X1161143Y38949D01*
X1160957Y39135D01*
X1160643Y39542D01*
X1160384Y39949D01*
X1160198Y40357D01*
X1160050Y40727D01*
X1159995Y40894D01*
X1159939Y41023D01*
X1159902Y41134D01*
X1159884Y41227D01*
X1159865Y41283D01*
Y41301D01*
X1162272Y41708D01*
X1162346Y41375D01*
X1162457Y41079D01*
X1162550Y40838D01*
X1162661Y40653D01*
X1162772Y40505D01*
X1162846Y40412D01*
X1162902Y40357D01*
X1162920Y40338D01*
X1163105Y40209D01*
X1163291Y40116D01*
X1163476Y40042D01*
X1163661Y40005D01*
X1163828Y39968D01*
X1163957Y39949D01*
X1164068D01*
X1164402Y39986D01*
X1164698Y40060D01*
X1164939Y40153D01*
X1165161Y40283D01*
X1165328Y40412D01*
X1165439Y40505D01*
X1165531Y40579D01*
X1165550Y40616D01*
X1165642Y40764D01*
X1165735Y40912D01*
X1165864Y41264D01*
X1165975Y41653D01*
X1166031Y42042D01*
X1166068Y42412D01*
X1166087Y42560D01*
Y42690D01*
X1166105Y42801D01*
Y42893D01*
Y42949D01*
Y42968D01*
Y43227D01*
X1166087Y43486D01*
X1166050Y43708D01*
X1166013Y43930D01*
X1165975Y44116D01*
X1165938Y44282D01*
X1165827Y44578D01*
X1165735Y44801D01*
X1165642Y44949D01*
X1165587Y45041D01*
X1165568Y45078D01*
X1165346Y45301D01*
X1165105Y45449D01*
X1164865Y45560D01*
X1164642Y45652D01*
X1164420Y45689D01*
X1164253Y45708D01*
X1164142Y45726D01*
X1164105D01*
X1163865Y45708D01*
X1163643Y45671D01*
X1163457Y45615D01*
X1163291Y45541D01*
X1163161Y45467D01*
X1163068Y45412D01*
X1163013Y45375D01*
X1162994Y45356D01*
X1162846Y45208D01*
X1162717Y45041D01*
X1162624Y44856D01*
X1162532Y44689D01*
X1162476Y44523D01*
X1162439Y44393D01*
X1162420Y44319D01*
Y44282D01*
X1159995Y44727D01*
X1160180Y45245D01*
X1160402Y45689D01*
X1160643Y46060D01*
X1160883Y46375D01*
X1161106Y46615D01*
X1161272Y46782D01*
X1161346Y46837D01*
X1161402Y46874D01*
X1161421Y46912D01*
X1161439D01*
X1161846Y47152D01*
X1162291Y47337D01*
X1162735Y47467D01*
X1163161Y47560D01*
X1163365Y47597D01*
X1163550Y47615D01*
X1163717Y47634D01*
X1163865D01*
X1163976Y47652D01*
X1164142D01*
X1164513Y47634D01*
D02*
G37*
G36*
X1194991Y41560D02*
X1194973Y41097D01*
X1194936Y40690D01*
X1194880Y40338D01*
X1194824Y40042D01*
X1194769Y39801D01*
X1194713Y39634D01*
X1194676Y39542D01*
X1194658Y39505D01*
X1194510Y39246D01*
X1194343Y39005D01*
X1194176Y38820D01*
X1193991Y38653D01*
X1193843Y38523D01*
X1193695Y38431D01*
X1193621Y38375D01*
X1193584Y38357D01*
X1193306Y38227D01*
X1193010Y38116D01*
X1192732Y38042D01*
X1192454Y38005D01*
X1192232Y37968D01*
X1192065Y37950D01*
X1191899D01*
X1191565Y37968D01*
X1191251Y38005D01*
X1190954Y38079D01*
X1190695Y38153D01*
X1190473Y38227D01*
X1190306Y38301D01*
X1190195Y38338D01*
X1190158Y38357D01*
X1189862Y38523D01*
X1189603Y38727D01*
X1189362Y38912D01*
X1189177Y39116D01*
X1189010Y39283D01*
X1188899Y39412D01*
X1188825Y39505D01*
X1188807Y39542D01*
Y38153D01*
X1186529D01*
Y47449D01*
X1188992D01*
Y43523D01*
Y43171D01*
Y42856D01*
X1189010Y42560D01*
X1189029Y42301D01*
Y42060D01*
X1189047Y41856D01*
X1189066Y41690D01*
X1189084Y41523D01*
X1189103Y41394D01*
X1189121Y41301D01*
X1189140Y41208D01*
Y41134D01*
X1189177Y41042D01*
Y41023D01*
X1189251Y40838D01*
X1189362Y40671D01*
X1189473Y40542D01*
X1189584Y40412D01*
X1189695Y40301D01*
X1189788Y40227D01*
X1189843Y40190D01*
X1189862Y40171D01*
X1190047Y40060D01*
X1190251Y39986D01*
X1190436Y39912D01*
X1190621Y39875D01*
X1190769Y39857D01*
X1190880Y39838D01*
X1190992D01*
X1191195Y39857D01*
X1191362Y39875D01*
X1191528Y39912D01*
X1191658Y39968D01*
X1191769Y40005D01*
X1191843Y40042D01*
X1191899Y40060D01*
X1191917Y40079D01*
X1192047Y40190D01*
X1192140Y40301D01*
X1192232Y40412D01*
X1192288Y40523D01*
X1192343Y40634D01*
X1192380Y40708D01*
X1192399Y40764D01*
Y40782D01*
X1192417Y40875D01*
X1192436Y41005D01*
X1192454Y41171D01*
X1192473Y41338D01*
X1192491Y41727D01*
X1192510Y42153D01*
X1192528Y42542D01*
Y42708D01*
Y42856D01*
Y42986D01*
Y43079D01*
Y43153D01*
Y43171D01*
Y47449D01*
X1194991D01*
Y41560D01*
D02*
G37*
G36*
X1243245Y38153D02*
X1240783D01*
Y40616D01*
X1243245D01*
Y38153D01*
D02*
G37*
G36*
X1216841D02*
X1214378Y38153D01*
Y47449D01*
X1216841Y47449D01*
Y38153D01*
D02*
G37*
G36*
X1173067Y38153D02*
X1170605D01*
Y40616D01*
X1173067D01*
Y38153D01*
D02*
G37*
G36*
X1250985Y47615D02*
X1251300Y47578D01*
X1251596Y47523D01*
X1251855Y47467D01*
X1252096Y47393D01*
X1252318Y47319D01*
X1252522Y47245D01*
X1252689Y47152D01*
X1252837Y47078D01*
X1252967Y47004D01*
X1253059Y46949D01*
X1253152Y46893D01*
X1253207Y46856D01*
X1253226Y46838D01*
X1253244Y46819D01*
X1253411Y46671D01*
X1253559Y46504D01*
X1253689Y46337D01*
X1253781Y46152D01*
X1253966Y45819D01*
X1254078Y45504D01*
X1254133Y45226D01*
X1254152Y45097D01*
X1254170Y45004D01*
X1254189Y44912D01*
Y44856D01*
Y44819D01*
Y44801D01*
X1254170Y44560D01*
X1254133Y44338D01*
X1254096Y44116D01*
X1254022Y43912D01*
X1253837Y43560D01*
X1253633Y43264D01*
X1253448Y43023D01*
X1253263Y42856D01*
X1253189Y42782D01*
X1253152Y42745D01*
X1253115Y42727D01*
X1253096Y42708D01*
X1252930Y42616D01*
X1252707Y42505D01*
X1252448Y42393D01*
X1252170Y42301D01*
X1251874Y42190D01*
X1251559Y42097D01*
X1250911Y41912D01*
X1250596Y41820D01*
X1250300Y41745D01*
X1250041Y41671D01*
X1249800Y41616D01*
X1249596Y41579D01*
X1249448Y41542D01*
X1249356Y41505D01*
X1249319D01*
X1249097Y41449D01*
X1248930Y41394D01*
X1248782Y41338D01*
X1248671Y41301D01*
X1248597Y41245D01*
X1248541Y41227D01*
X1248504Y41190D01*
X1248393Y41042D01*
X1248337Y40894D01*
X1248319Y40782D01*
Y40746D01*
Y40727D01*
X1248337Y40579D01*
X1248374Y40449D01*
X1248430Y40338D01*
X1248485Y40246D01*
X1248541Y40171D01*
X1248597Y40116D01*
X1248634Y40079D01*
X1248652Y40060D01*
X1248856Y39949D01*
X1249078Y39875D01*
X1249319Y39801D01*
X1249541Y39764D01*
X1249745Y39746D01*
X1249930Y39727D01*
X1250078D01*
X1250393Y39746D01*
X1250652Y39783D01*
X1250893Y39838D01*
X1251078Y39912D01*
X1251226Y39968D01*
X1251337Y40023D01*
X1251411Y40060D01*
X1251430Y40079D01*
X1251596Y40227D01*
X1251726Y40412D01*
X1251837Y40579D01*
X1251930Y40764D01*
X1251985Y40931D01*
X1252022Y41060D01*
X1252059Y41134D01*
Y41171D01*
X1254522Y40801D01*
X1254355Y40338D01*
X1254152Y39912D01*
X1253929Y39560D01*
X1253689Y39264D01*
X1253466Y39023D01*
X1253263Y38857D01*
X1253207Y38783D01*
X1253152Y38746D01*
X1253115Y38727D01*
X1253096Y38709D01*
X1252874Y38579D01*
X1252652Y38449D01*
X1252152Y38264D01*
X1251652Y38135D01*
X1251170Y38042D01*
X1250948Y38005D01*
X1250744Y37987D01*
X1250559Y37968D01*
X1250393D01*
X1250263Y37950D01*
X1250078D01*
X1249708Y37968D01*
X1249356Y37987D01*
X1249023Y38042D01*
X1248708Y38098D01*
X1248430Y38153D01*
X1248171Y38246D01*
X1247930Y38320D01*
X1247726Y38412D01*
X1247541Y38486D01*
X1247374Y38579D01*
X1247245Y38653D01*
X1247134Y38709D01*
X1247041Y38783D01*
X1246986Y38820D01*
X1246949Y38838D01*
X1246930Y38857D01*
X1246745Y39042D01*
X1246578Y39227D01*
X1246430Y39412D01*
X1246301Y39597D01*
X1246208Y39783D01*
X1246115Y39968D01*
X1245986Y40301D01*
X1245912Y40616D01*
X1245893Y40746D01*
X1245875Y40838D01*
X1245856Y40931D01*
Y41005D01*
Y41042D01*
Y41060D01*
X1245893Y41468D01*
X1245986Y41838D01*
X1246097Y42153D01*
X1246245Y42412D01*
X1246393Y42616D01*
X1246504Y42764D01*
X1246597Y42838D01*
X1246634Y42875D01*
X1246801Y42986D01*
X1246967Y43116D01*
X1247171Y43208D01*
X1247393Y43319D01*
X1247837Y43505D01*
X1248300Y43671D01*
X1248708Y43801D01*
X1248893Y43838D01*
X1249060Y43893D01*
X1249189Y43930D01*
X1249282Y43949D01*
X1249356Y43967D01*
X1249374D01*
X1249726Y44060D01*
X1250041Y44134D01*
X1250319Y44208D01*
X1250559Y44282D01*
X1250782Y44338D01*
X1250967Y44393D01*
X1251115Y44449D01*
X1251263Y44486D01*
X1251374Y44541D01*
X1251467Y44578D01*
X1251541Y44597D01*
X1251578Y44634D01*
X1251652Y44653D01*
X1251670Y44671D01*
X1251744Y44745D01*
X1251800Y44819D01*
X1251874Y44967D01*
X1251911Y45078D01*
Y45097D01*
Y45115D01*
X1251893Y45226D01*
X1251874Y45319D01*
X1251763Y45486D01*
X1251670Y45578D01*
X1251652Y45615D01*
X1251633D01*
X1251448Y45708D01*
X1251245Y45782D01*
X1251022Y45819D01*
X1250782Y45856D01*
X1250578Y45875D01*
X1250411Y45893D01*
X1250245D01*
X1249967Y45875D01*
X1249726Y45856D01*
X1249522Y45800D01*
X1249356Y45745D01*
X1249226Y45689D01*
X1249134Y45652D01*
X1249078Y45615D01*
X1249060Y45597D01*
X1248911Y45486D01*
X1248800Y45356D01*
X1248689Y45226D01*
X1248615Y45078D01*
X1248560Y44967D01*
X1248522Y44875D01*
X1248485Y44801D01*
Y44782D01*
X1246171Y45208D01*
X1246319Y45634D01*
X1246523Y46004D01*
X1246726Y46319D01*
X1246949Y46560D01*
X1247134Y46763D01*
X1247300Y46912D01*
X1247412Y46986D01*
X1247430Y47023D01*
X1247449D01*
X1247634Y47134D01*
X1247837Y47226D01*
X1248282Y47393D01*
X1248745Y47504D01*
X1249208Y47578D01*
X1249430Y47597D01*
X1249633Y47615D01*
X1249819Y47634D01*
X1249967Y47652D01*
X1250652D01*
X1250985Y47615D01*
D02*
G37*
G36*
X1154403Y47634D02*
X1154866Y47560D01*
X1155292Y47467D01*
X1155662Y47356D01*
X1155810Y47282D01*
X1155958Y47226D01*
X1156088Y47189D01*
X1156180Y47134D01*
X1156273Y47097D01*
X1156328Y47060D01*
X1156365Y47041D01*
X1156384D01*
X1156773Y46782D01*
X1157106Y46504D01*
X1157402Y46208D01*
X1157643Y45930D01*
X1157828Y45671D01*
X1157976Y45467D01*
X1158032Y45393D01*
X1158050Y45338D01*
X1158087Y45301D01*
Y45282D01*
X1158291Y44856D01*
X1158421Y44430D01*
X1158532Y44041D01*
X1158606Y43690D01*
X1158643Y43375D01*
X1158661Y43245D01*
Y43134D01*
X1158680Y43060D01*
Y42986D01*
Y42949D01*
Y42930D01*
X1158661Y42356D01*
X1158587Y41819D01*
X1158495Y41357D01*
X1158439Y41153D01*
X1158384Y40968D01*
X1158328Y40801D01*
X1158273Y40653D01*
X1158217Y40523D01*
X1158180Y40412D01*
X1158143Y40320D01*
X1158106Y40264D01*
X1158087Y40227D01*
Y40209D01*
X1157828Y39820D01*
X1157551Y39486D01*
X1157254Y39190D01*
X1156976Y38949D01*
X1156717Y38764D01*
X1156514Y38635D01*
X1156440Y38579D01*
X1156384Y38542D01*
X1156347Y38523D01*
X1156328D01*
X1155884Y38338D01*
X1155458Y38190D01*
X1155051Y38098D01*
X1154662Y38024D01*
X1154347Y37987D01*
X1154218Y37968D01*
X1154106D01*
X1154014Y37950D01*
X1153884D01*
X1153495Y37968D01*
X1153143Y38005D01*
X1152792Y38079D01*
X1152477Y38172D01*
X1152162Y38264D01*
X1151884Y38375D01*
X1151625Y38505D01*
X1151385Y38635D01*
X1151181Y38764D01*
X1150996Y38894D01*
X1150829Y39005D01*
X1150699Y39097D01*
X1150588Y39190D01*
X1150514Y39264D01*
X1150477Y39301D01*
X1150459Y39320D01*
X1150218Y39597D01*
X1150014Y39875D01*
X1149829Y40153D01*
X1149662Y40449D01*
X1149533Y40746D01*
X1149422Y41042D01*
X1149329Y41319D01*
X1149255Y41597D01*
X1149200Y41838D01*
X1149163Y42079D01*
X1149125Y42282D01*
X1149107Y42467D01*
X1149088Y42616D01*
Y42727D01*
Y42801D01*
Y42819D01*
X1149107Y43208D01*
X1149144Y43579D01*
X1149218Y43912D01*
X1149292Y44245D01*
X1149403Y44541D01*
X1149514Y44838D01*
X1149644Y45097D01*
X1149755Y45338D01*
X1149885Y45541D01*
X1150014Y45745D01*
X1150125Y45893D01*
X1150236Y46041D01*
X1150311Y46134D01*
X1150385Y46226D01*
X1150422Y46263D01*
X1150440Y46282D01*
X1150699Y46523D01*
X1150977Y46726D01*
X1151255Y46912D01*
X1151551Y47078D01*
X1151847Y47208D01*
X1152125Y47319D01*
X1152403Y47411D01*
X1152681Y47485D01*
X1152921Y47541D01*
X1153162Y47578D01*
X1153366Y47615D01*
X1153551Y47634D01*
X1153699Y47652D01*
X1153903D01*
X1154403Y47634D01*
D02*
G37*
G36*
X1239042Y37931D02*
X1237227D01*
X1234024Y51189D01*
X1235876D01*
X1239042Y37931D01*
D02*
G37*
G36*
X1234061D02*
X1232246D01*
X1229043Y51189D01*
X1230895D01*
X1234061Y37931D01*
D02*
G37*
G36*
X1132553Y37931D02*
X1130739D01*
X1127535Y51189D01*
X1129387D01*
X1132553Y37931D01*
D02*
G37*
G36*
X1259818Y47634D02*
X1260133Y47578D01*
X1260429Y47504D01*
X1260669Y47430D01*
X1260873Y47356D01*
X1261040Y47282D01*
X1261132Y47226D01*
X1261169Y47208D01*
X1261447Y47041D01*
X1261669Y46856D01*
X1261891Y46671D01*
X1262058Y46486D01*
X1262188Y46319D01*
X1262299Y46189D01*
X1262354Y46115D01*
X1262373Y46078D01*
Y47449D01*
X1264669D01*
Y34598D01*
X1262206D01*
Y39301D01*
X1261947Y39042D01*
X1261706Y38820D01*
X1261503Y38635D01*
X1261299Y38505D01*
X1261132Y38394D01*
X1261021Y38301D01*
X1260929Y38264D01*
X1260910Y38246D01*
X1260669Y38153D01*
X1260429Y38079D01*
X1260188Y38024D01*
X1259966Y37987D01*
X1259781Y37968D01*
X1259632Y37950D01*
X1259503D01*
X1259207Y37968D01*
X1258929Y38005D01*
X1258651Y38061D01*
X1258392Y38153D01*
X1257929Y38357D01*
X1257725Y38468D01*
X1257522Y38598D01*
X1257355Y38709D01*
X1257207Y38820D01*
X1257077Y38931D01*
X1256966Y39023D01*
X1256873Y39116D01*
X1256818Y39172D01*
X1256781Y39209D01*
X1256762Y39227D01*
X1256559Y39486D01*
X1256392Y39764D01*
X1256226Y40042D01*
X1256096Y40338D01*
X1255985Y40634D01*
X1255892Y40931D01*
X1255762Y41523D01*
X1255707Y41782D01*
X1255670Y42042D01*
X1255651Y42264D01*
X1255633Y42449D01*
X1255614Y42616D01*
Y42745D01*
Y42819D01*
Y42838D01*
X1255633Y43245D01*
X1255670Y43653D01*
X1255725Y44004D01*
X1255781Y44356D01*
X1255874Y44671D01*
X1255966Y44967D01*
X1256077Y45226D01*
X1256170Y45467D01*
X1256281Y45671D01*
X1256392Y45856D01*
X1256485Y46023D01*
X1256559Y46134D01*
X1256633Y46245D01*
X1256688Y46319D01*
X1256725Y46356D01*
X1256744Y46375D01*
X1256966Y46597D01*
X1257188Y46800D01*
X1257411Y46967D01*
X1257651Y47115D01*
X1257873Y47245D01*
X1258114Y47337D01*
X1258318Y47430D01*
X1258540Y47486D01*
X1258725Y47541D01*
X1258910Y47578D01*
X1259077Y47615D01*
X1259207Y47634D01*
X1259336Y47652D01*
X1259484D01*
X1259818Y47634D01*
D02*
G37*
G36*
X1181844Y18777D02*
X1179567D01*
Y20129D01*
X1179344Y19851D01*
X1179122Y19611D01*
X1178900Y19425D01*
X1178696Y19259D01*
X1178511Y19129D01*
X1178363Y19037D01*
X1178271Y18981D01*
X1178233Y18963D01*
X1177937Y18833D01*
X1177660Y18740D01*
X1177400Y18666D01*
X1177160Y18629D01*
X1176956Y18592D01*
X1176789Y18574D01*
X1176660D01*
X1176363Y18592D01*
X1176067Y18629D01*
X1175808Y18685D01*
X1175549Y18777D01*
X1175067Y18981D01*
X1174864Y19092D01*
X1174660Y19222D01*
X1174493Y19333D01*
X1174345Y19444D01*
X1174215Y19555D01*
X1174104Y19648D01*
X1174012Y19740D01*
X1173956Y19796D01*
X1173919Y19833D01*
X1173901Y19851D01*
X1173697Y20111D01*
X1173530Y20370D01*
X1173364Y20666D01*
X1173234Y20962D01*
X1173123Y21277D01*
X1173030Y21573D01*
X1172901Y22166D01*
X1172845Y22444D01*
X1172808Y22703D01*
X1172790Y22925D01*
X1172771Y23129D01*
X1172753Y23295D01*
Y23407D01*
Y23499D01*
Y23518D01*
X1172771Y23944D01*
X1172808Y24332D01*
X1172864Y24703D01*
X1172919Y25036D01*
X1173012Y25351D01*
X1173104Y25647D01*
X1173215Y25906D01*
X1173308Y26147D01*
X1173419Y26351D01*
X1173530Y26536D01*
X1173623Y26684D01*
X1173697Y26814D01*
X1173771Y26906D01*
X1173827Y26980D01*
X1173864Y27017D01*
X1173882Y27036D01*
X1174104Y27258D01*
X1174326Y27443D01*
X1174549Y27610D01*
X1174789Y27758D01*
X1175030Y27869D01*
X1175252Y27980D01*
X1175697Y28128D01*
X1175919Y28165D01*
X1176104Y28202D01*
X1176271Y28239D01*
X1176419Y28258D01*
X1176530Y28276D01*
X1176697D01*
X1176974Y28258D01*
X1177252Y28221D01*
X1177530Y28165D01*
X1177771Y28073D01*
X1178233Y27869D01*
X1178622Y27628D01*
X1178789Y27517D01*
X1178937Y27388D01*
X1179067Y27276D01*
X1179178Y27184D01*
X1179270Y27091D01*
X1179326Y27036D01*
X1179363Y26999D01*
X1179382Y26980D01*
Y31591D01*
X1181844D01*
Y18777D01*
D02*
G37*
G36*
X1149829Y28258D02*
X1150125Y28221D01*
X1150403Y28165D01*
X1150681Y28091D01*
X1151144Y27887D01*
X1151366Y27776D01*
X1151551Y27665D01*
X1151736Y27536D01*
X1151884Y27425D01*
X1152014Y27332D01*
X1152125Y27239D01*
X1152218Y27147D01*
X1152273Y27091D01*
X1152310Y27054D01*
X1152329Y27036D01*
X1152533Y26795D01*
X1152699Y26536D01*
X1152847Y26240D01*
X1152977Y25962D01*
X1153070Y25666D01*
X1153162Y25369D01*
X1153292Y24777D01*
X1153347Y24518D01*
X1153384Y24258D01*
X1153403Y24036D01*
X1153421Y23851D01*
X1153440Y23684D01*
Y23573D01*
Y23481D01*
Y23462D01*
X1153421Y23129D01*
X1153403Y22796D01*
X1153310Y22203D01*
X1153236Y21925D01*
X1153162Y21666D01*
X1153088Y21425D01*
X1153014Y21222D01*
X1152940Y21018D01*
X1152866Y20851D01*
X1152792Y20703D01*
X1152718Y20573D01*
X1152662Y20481D01*
X1152625Y20407D01*
X1152588Y20370D01*
Y20351D01*
X1152366Y20073D01*
X1152144Y19833D01*
X1151903Y19629D01*
X1151662Y19444D01*
X1151422Y19296D01*
X1151162Y19166D01*
X1150921Y19055D01*
X1150699Y18981D01*
X1150477Y18907D01*
X1150274Y18870D01*
X1150088Y18833D01*
X1149940Y18796D01*
X1149811D01*
X1149699Y18777D01*
X1149625D01*
X1149311Y18796D01*
X1149014Y18851D01*
X1148737Y18925D01*
X1148477Y19018D01*
X1148014Y19259D01*
X1147792Y19388D01*
X1147607Y19537D01*
X1147440Y19666D01*
X1147274Y19796D01*
X1147144Y19925D01*
X1147052Y20036D01*
X1146959Y20148D01*
X1146903Y20222D01*
X1146866Y20259D01*
X1146848Y20277D01*
Y18925D01*
Y18648D01*
X1146866Y18407D01*
X1146885Y18222D01*
X1146903Y18074D01*
X1146941Y17944D01*
X1146959Y17870D01*
X1146977Y17833D01*
Y17815D01*
X1147052Y17666D01*
X1147126Y17537D01*
X1147200Y17426D01*
X1147274Y17333D01*
X1147348Y17259D01*
X1147403Y17222D01*
X1147440Y17204D01*
X1147459Y17185D01*
X1147663Y17092D01*
X1147885Y17018D01*
X1148126Y16963D01*
X1148366Y16926D01*
X1148570Y16907D01*
X1148737Y16889D01*
X1148903D01*
X1149163Y16907D01*
X1149385Y16926D01*
X1149570Y16981D01*
X1149718Y17037D01*
X1149848Y17074D01*
X1149922Y17129D01*
X1149977Y17148D01*
X1149996Y17166D01*
X1150088Y17241D01*
X1150162Y17352D01*
X1150255Y17574D01*
X1150274Y17666D01*
X1150292Y17759D01*
X1150311Y17815D01*
Y17833D01*
X1153125Y18166D01*
X1153143Y18055D01*
Y17963D01*
Y17889D01*
Y17870D01*
X1153125Y17648D01*
X1153107Y17426D01*
X1152995Y17018D01*
X1152829Y16667D01*
X1152644Y16370D01*
X1152477Y16129D01*
X1152310Y15963D01*
X1152199Y15852D01*
X1152181Y15833D01*
X1152162Y15815D01*
X1151958Y15667D01*
X1151736Y15555D01*
X1151477Y15444D01*
X1151218Y15352D01*
X1150662Y15204D01*
X1150107Y15111D01*
X1149848Y15074D01*
X1149607Y15037D01*
X1149385Y15019D01*
X1149200D01*
X1149033Y15000D01*
X1148811D01*
X1148366Y15019D01*
X1147959Y15037D01*
X1147607Y15093D01*
X1147292Y15148D01*
X1147052Y15185D01*
X1146885Y15241D01*
X1146774Y15259D01*
X1146737Y15278D01*
X1146441Y15389D01*
X1146181Y15500D01*
X1145959Y15630D01*
X1145774Y15741D01*
X1145644Y15833D01*
X1145533Y15926D01*
X1145459Y15981D01*
X1145441Y16000D01*
X1145256Y16185D01*
X1145107Y16389D01*
X1144978Y16611D01*
X1144867Y16815D01*
X1144774Y17000D01*
X1144718Y17148D01*
X1144681Y17241D01*
X1144663Y17277D01*
X1144607Y17444D01*
X1144570Y17611D01*
X1144496Y18000D01*
X1144459Y18407D01*
X1144422Y18814D01*
X1144404Y19166D01*
X1144385Y19314D01*
Y19462D01*
Y19574D01*
Y19648D01*
Y19703D01*
Y19722D01*
Y28073D01*
X1146681D01*
Y26739D01*
X1146903Y27017D01*
X1147126Y27239D01*
X1147366Y27462D01*
X1147607Y27628D01*
X1147848Y27776D01*
X1148089Y27906D01*
X1148311Y27999D01*
X1148533Y28091D01*
X1148737Y28147D01*
X1148922Y28202D01*
X1149107Y28221D01*
X1149237Y28258D01*
X1149366D01*
X1149459Y28276D01*
X1149533D01*
X1149829Y28258D01*
D02*
G37*
G36*
X1082669Y31239D02*
X1082910Y30850D01*
X1083169Y30480D01*
X1083428Y30184D01*
X1083651Y29943D01*
X1083854Y29758D01*
X1083929Y29684D01*
X1083984Y29628D01*
X1084021Y29610D01*
X1084040Y29591D01*
X1084447Y29295D01*
X1084836Y29036D01*
X1085188Y28832D01*
X1085502Y28684D01*
X1085762Y28573D01*
X1085947Y28480D01*
X1086021Y28462D01*
X1086076Y28443D01*
X1086095Y28424D01*
X1086113D01*
Y26202D01*
X1085447Y26462D01*
X1084854Y26739D01*
X1084577Y26888D01*
X1084317Y27054D01*
X1084077Y27202D01*
X1083854Y27351D01*
X1083651Y27499D01*
X1083466Y27628D01*
X1083317Y27739D01*
X1083188Y27850D01*
X1083077Y27943D01*
X1083003Y27999D01*
X1082966Y28036D01*
X1082947Y28054D01*
Y18777D01*
X1080484D01*
Y31665D01*
X1082484D01*
X1082669Y31239D01*
D02*
G37*
G36*
X1188714Y28239D02*
X1189010Y28221D01*
X1189269Y28165D01*
X1189529Y28128D01*
X1189751Y28073D01*
X1189955Y27999D01*
X1190140Y27943D01*
X1190288Y27887D01*
X1190436Y27813D01*
X1190547Y27758D01*
X1190658Y27721D01*
X1190732Y27665D01*
X1190788Y27647D01*
X1190806Y27610D01*
X1190825D01*
X1191140Y27332D01*
X1191399Y27017D01*
X1191621Y26684D01*
X1191806Y26369D01*
X1191936Y26073D01*
X1191991Y25943D01*
X1192028Y25832D01*
X1192065Y25740D01*
X1192084Y25666D01*
X1192103Y25628D01*
Y25610D01*
X1189899Y25203D01*
X1189806Y25425D01*
X1189714Y25610D01*
X1189621Y25777D01*
X1189510Y25906D01*
X1189436Y25999D01*
X1189362Y26054D01*
X1189325Y26091D01*
X1189306Y26110D01*
X1189158Y26202D01*
X1188992Y26277D01*
X1188807Y26314D01*
X1188640Y26351D01*
X1188492Y26369D01*
X1188381Y26388D01*
X1188270D01*
X1187936Y26369D01*
X1187658Y26332D01*
X1187436Y26295D01*
X1187251Y26240D01*
X1187122Y26165D01*
X1187029Y26128D01*
X1186973Y26091D01*
X1186955Y26073D01*
X1186825Y25943D01*
X1186733Y25795D01*
X1186677Y25628D01*
X1186622Y25462D01*
X1186603Y25295D01*
X1186584Y25166D01*
Y25092D01*
Y25055D01*
Y24814D01*
X1186714Y24758D01*
X1186881Y24703D01*
X1187233Y24592D01*
X1187640Y24499D01*
X1188029Y24406D01*
X1188399Y24314D01*
X1188566Y24277D01*
X1188714Y24258D01*
X1188825Y24240D01*
X1188918Y24221D01*
X1188973Y24203D01*
X1188992D01*
X1189436Y24110D01*
X1189843Y24018D01*
X1190177Y23925D01*
X1190454Y23832D01*
X1190677Y23740D01*
X1190825Y23684D01*
X1190917Y23647D01*
X1190954Y23629D01*
X1191195Y23499D01*
X1191399Y23351D01*
X1191584Y23184D01*
X1191714Y23036D01*
X1191843Y22907D01*
X1191917Y22796D01*
X1191973Y22721D01*
X1191991Y22684D01*
X1192121Y22444D01*
X1192214Y22203D01*
X1192269Y21981D01*
X1192306Y21759D01*
X1192343Y21573D01*
X1192362Y21425D01*
Y21333D01*
Y21296D01*
X1192343Y21073D01*
X1192325Y20870D01*
X1192232Y20481D01*
X1192103Y20148D01*
X1191954Y19870D01*
X1191806Y19648D01*
X1191677Y19481D01*
X1191584Y19370D01*
X1191547Y19351D01*
Y19333D01*
X1191214Y19074D01*
X1190843Y18888D01*
X1190473Y18759D01*
X1190103Y18666D01*
X1189788Y18611D01*
X1189640Y18592D01*
X1189529D01*
X1189418Y18574D01*
X1189288D01*
X1188992Y18592D01*
X1188695Y18629D01*
X1188436Y18666D01*
X1188214Y18722D01*
X1188029Y18777D01*
X1187881Y18833D01*
X1187788Y18851D01*
X1187751Y18870D01*
X1187492Y19000D01*
X1187233Y19129D01*
X1187010Y19296D01*
X1186807Y19444D01*
X1186640Y19574D01*
X1186510Y19685D01*
X1186436Y19759D01*
X1186399Y19777D01*
X1186381Y19703D01*
X1186344Y19611D01*
X1186325Y19537D01*
X1186307Y19518D01*
Y19499D01*
X1186251Y19333D01*
X1186214Y19185D01*
X1186177Y19055D01*
X1186140Y18963D01*
X1186103Y18888D01*
X1186085Y18814D01*
X1186066Y18796D01*
Y18777D01*
X1183640D01*
X1183752Y19018D01*
X1183844Y19240D01*
X1183918Y19444D01*
X1183992Y19629D01*
X1184029Y19777D01*
X1184066Y19907D01*
X1184085Y19981D01*
Y20000D01*
X1184122Y20240D01*
X1184140Y20536D01*
X1184177Y20833D01*
Y21129D01*
X1184196Y21388D01*
Y21610D01*
Y21703D01*
Y21759D01*
Y21796D01*
Y21814D01*
X1184159Y24684D01*
Y24980D01*
X1184177Y25240D01*
X1184196Y25480D01*
X1184214Y25703D01*
X1184233Y25906D01*
X1184270Y26091D01*
X1184288Y26258D01*
X1184325Y26388D01*
X1184362Y26517D01*
X1184381Y26610D01*
X1184437Y26777D01*
X1184474Y26851D01*
X1184492Y26888D01*
X1184640Y27091D01*
X1184807Y27295D01*
X1184992Y27462D01*
X1185196Y27610D01*
X1185362Y27721D01*
X1185511Y27795D01*
X1185603Y27850D01*
X1185622Y27869D01*
X1185640D01*
X1185807Y27943D01*
X1185974Y27999D01*
X1186362Y28110D01*
X1186770Y28184D01*
X1187159Y28221D01*
X1187529Y28258D01*
X1187677D01*
X1187807Y28276D01*
X1188418D01*
X1188714Y28239D01*
D02*
G37*
G36*
X1284463Y18777D02*
X1281649D01*
X1279093Y28351D01*
X1276575Y18777D01*
X1273779D01*
X1270687Y31591D01*
X1273298D01*
X1275260Y22629D01*
X1277483Y31591D01*
X1280593D01*
X1282926Y22777D01*
X1284852Y31591D01*
X1287500D01*
X1284463Y18777D01*
D02*
G37*
G36*
X1118240Y18777D02*
X1115425D01*
X1112870Y28351D01*
X1110352Y18777D01*
X1107556D01*
X1104463Y31591D01*
X1107074D01*
X1109037Y22629D01*
X1111259Y31591D01*
X1114370D01*
X1116703Y22777D01*
X1118629Y31591D01*
X1121276D01*
X1118240Y18777D01*
D02*
G37*
G36*
X1092483Y22203D02*
X1087650D01*
Y24666D01*
X1092483D01*
Y22203D01*
D02*
G37*
G36*
X1235154Y18759D02*
X1235246Y18481D01*
X1235339Y18240D01*
X1235450Y18018D01*
X1235542Y17833D01*
X1235635Y17685D01*
X1235709Y17574D01*
X1235765Y17500D01*
X1235783Y17481D01*
X1235950Y17315D01*
X1236153Y17185D01*
X1236357Y17092D01*
X1236561Y17037D01*
X1236746Y17000D01*
X1236894Y16963D01*
X1237042D01*
X1237394Y16981D01*
X1237579Y17000D01*
X1237727Y17037D01*
X1237876Y17055D01*
X1237987Y17074D01*
X1238061Y17092D01*
X1238079D01*
X1237857Y15167D01*
X1237357Y15074D01*
X1237135Y15037D01*
X1236913Y15019D01*
X1236746D01*
X1236598Y15000D01*
X1236227D01*
X1235987Y15019D01*
X1235783Y15056D01*
X1235598Y15093D01*
X1235431Y15111D01*
X1235320Y15148D01*
X1235246Y15167D01*
X1235228D01*
X1235024Y15222D01*
X1234839Y15296D01*
X1234691Y15370D01*
X1234561Y15426D01*
X1234450Y15481D01*
X1234376Y15537D01*
X1234320Y15555D01*
X1234302Y15574D01*
X1234024Y15796D01*
X1233820Y16018D01*
X1233746Y16129D01*
X1233691Y16204D01*
X1233654Y16259D01*
X1233635Y16278D01*
X1233524Y16463D01*
X1233413Y16648D01*
X1233302Y16852D01*
X1233209Y17055D01*
X1233135Y17241D01*
X1233061Y17389D01*
X1233024Y17481D01*
X1233006Y17518D01*
X1232413Y19111D01*
X1229136Y28073D01*
X1231672D01*
X1233857Y21462D01*
X1236061Y28073D01*
X1238672D01*
X1235154Y18759D01*
D02*
G37*
G36*
X1170845Y22184D02*
X1170827Y21721D01*
X1170790Y21314D01*
X1170734Y20962D01*
X1170679Y20666D01*
X1170623Y20425D01*
X1170568Y20259D01*
X1170531Y20166D01*
X1170512Y20129D01*
X1170364Y19870D01*
X1170197Y19629D01*
X1170031Y19444D01*
X1169846Y19277D01*
X1169697Y19148D01*
X1169549Y19055D01*
X1169475Y19000D01*
X1169438Y18981D01*
X1169160Y18851D01*
X1168864Y18740D01*
X1168586Y18666D01*
X1168309Y18629D01*
X1168086Y18592D01*
X1167920Y18574D01*
X1167753D01*
X1167420Y18592D01*
X1167105Y18629D01*
X1166809Y18703D01*
X1166550Y18777D01*
X1166327Y18851D01*
X1166161Y18925D01*
X1166050Y18963D01*
X1166013Y18981D01*
X1165716Y19148D01*
X1165457Y19351D01*
X1165216Y19537D01*
X1165031Y19740D01*
X1164865Y19907D01*
X1164753Y20036D01*
X1164679Y20129D01*
X1164661Y20166D01*
Y18777D01*
X1162383D01*
Y28073D01*
X1164846D01*
Y24147D01*
Y23795D01*
Y23481D01*
X1164865Y23184D01*
X1164883Y22925D01*
Y22684D01*
X1164902Y22481D01*
X1164920Y22314D01*
X1164939Y22147D01*
X1164957Y22018D01*
X1164976Y21925D01*
X1164994Y21833D01*
Y21759D01*
X1165031Y21666D01*
Y21648D01*
X1165105Y21462D01*
X1165216Y21296D01*
X1165328Y21166D01*
X1165439Y21036D01*
X1165550Y20925D01*
X1165642Y20851D01*
X1165698Y20814D01*
X1165716Y20796D01*
X1165901Y20685D01*
X1166105Y20610D01*
X1166290Y20536D01*
X1166476Y20499D01*
X1166624Y20481D01*
X1166735Y20462D01*
X1166846D01*
X1167049Y20481D01*
X1167216Y20499D01*
X1167383Y20536D01*
X1167512Y20592D01*
X1167624Y20629D01*
X1167698Y20666D01*
X1167753Y20685D01*
X1167772Y20703D01*
X1167901Y20814D01*
X1167994Y20925D01*
X1168086Y21036D01*
X1168142Y21147D01*
X1168197Y21259D01*
X1168235Y21333D01*
X1168253Y21388D01*
Y21407D01*
X1168272Y21499D01*
X1168290Y21629D01*
X1168309Y21796D01*
X1168327Y21962D01*
X1168346Y22351D01*
X1168364Y22777D01*
X1168383Y23166D01*
Y23333D01*
Y23481D01*
Y23610D01*
Y23703D01*
Y23777D01*
Y23795D01*
Y28073D01*
X1170845D01*
Y22184D01*
D02*
G37*
G36*
X1266169Y28258D02*
X1266484Y28221D01*
X1266798Y28147D01*
X1267076Y28073D01*
X1267354Y27980D01*
X1267595Y27869D01*
X1267835Y27739D01*
X1268039Y27628D01*
X1268224Y27499D01*
X1268391Y27369D01*
X1268539Y27258D01*
X1268650Y27165D01*
X1268743Y27091D01*
X1268817Y27017D01*
X1268854Y26980D01*
X1268872Y26962D01*
X1269076Y26702D01*
X1269261Y26425D01*
X1269428Y26147D01*
X1269576Y25851D01*
X1269687Y25536D01*
X1269780Y25240D01*
X1269928Y24666D01*
X1269983Y24388D01*
X1270020Y24147D01*
X1270039Y23925D01*
X1270057Y23740D01*
X1270076Y23573D01*
Y23444D01*
Y23370D01*
Y23351D01*
X1270057Y22999D01*
X1270039Y22647D01*
X1269983Y22333D01*
X1269928Y22036D01*
X1269872Y21740D01*
X1269780Y21481D01*
X1269706Y21240D01*
X1269613Y21018D01*
X1269539Y20814D01*
X1269446Y20648D01*
X1269372Y20499D01*
X1269317Y20370D01*
X1269243Y20277D01*
X1269206Y20203D01*
X1269187Y20166D01*
X1269169Y20148D01*
X1268928Y19870D01*
X1268687Y19629D01*
X1268409Y19425D01*
X1268113Y19240D01*
X1267817Y19092D01*
X1267521Y18963D01*
X1267224Y18851D01*
X1266928Y18777D01*
X1266669Y18703D01*
X1266410Y18666D01*
X1266169Y18629D01*
X1265965Y18592D01*
X1265798D01*
X1265687Y18574D01*
X1265576D01*
X1265039Y18611D01*
X1264539Y18685D01*
X1264113Y18796D01*
X1263743Y18925D01*
X1263577Y19000D01*
X1263447Y19055D01*
X1263317Y19111D01*
X1263225Y19166D01*
X1263151Y19222D01*
X1263077Y19240D01*
X1263058Y19277D01*
X1263040D01*
X1262688Y19574D01*
X1262373Y19888D01*
X1262114Y20240D01*
X1261910Y20573D01*
X1261743Y20870D01*
X1261688Y20999D01*
X1261632Y21110D01*
X1261595Y21203D01*
X1261558Y21277D01*
X1261540Y21314D01*
Y21333D01*
X1263984Y21740D01*
X1264077Y21499D01*
X1264169Y21277D01*
X1264262Y21110D01*
X1264373Y20962D01*
X1264447Y20851D01*
X1264521Y20777D01*
X1264576Y20740D01*
X1264595Y20722D01*
X1264743Y20611D01*
X1264910Y20536D01*
X1265076Y20481D01*
X1265225Y20444D01*
X1265354Y20425D01*
X1265465Y20407D01*
X1265558D01*
X1265854Y20425D01*
X1266132Y20499D01*
X1266391Y20592D01*
X1266595Y20703D01*
X1266761Y20814D01*
X1266872Y20907D01*
X1266965Y20981D01*
X1266984Y20999D01*
X1267169Y21240D01*
X1267298Y21518D01*
X1267410Y21814D01*
X1267484Y22073D01*
X1267521Y22333D01*
X1267539Y22518D01*
X1267558Y22592D01*
Y22647D01*
Y22684D01*
Y22703D01*
X1261410D01*
Y23221D01*
X1261447Y23684D01*
X1261503Y24129D01*
X1261577Y24536D01*
X1261669Y24925D01*
X1261762Y25258D01*
X1261873Y25573D01*
X1261984Y25851D01*
X1262095Y26091D01*
X1262206Y26314D01*
X1262299Y26480D01*
X1262392Y26628D01*
X1262466Y26739D01*
X1262521Y26832D01*
X1262558Y26869D01*
X1262577Y26888D01*
X1262799Y27128D01*
X1263058Y27351D01*
X1263317Y27536D01*
X1263577Y27684D01*
X1263854Y27832D01*
X1264132Y27943D01*
X1264391Y28036D01*
X1264650Y28110D01*
X1264891Y28165D01*
X1265113Y28202D01*
X1265317Y28239D01*
X1265484Y28258D01*
X1265632Y28276D01*
X1265836D01*
X1266169Y28258D01*
D02*
G37*
G36*
X1213415Y28258D02*
X1213730Y28221D01*
X1214045Y28147D01*
X1214322Y28073D01*
X1214600Y27980D01*
X1214841Y27869D01*
X1215082Y27739D01*
X1215285Y27628D01*
X1215470Y27499D01*
X1215637Y27369D01*
X1215785Y27258D01*
X1215896Y27165D01*
X1215989Y27091D01*
X1216063Y27017D01*
X1216100Y26980D01*
X1216118Y26962D01*
X1216322Y26702D01*
X1216507Y26425D01*
X1216674Y26147D01*
X1216822Y25851D01*
X1216933Y25536D01*
X1217026Y25240D01*
X1217174Y24666D01*
X1217230Y24388D01*
X1217266Y24147D01*
X1217285Y23925D01*
X1217304Y23740D01*
X1217322Y23573D01*
Y23444D01*
Y23370D01*
Y23351D01*
X1217304Y22999D01*
X1217285Y22647D01*
X1217230Y22333D01*
X1217174Y22036D01*
X1217118Y21740D01*
X1217026Y21481D01*
X1216952Y21240D01*
X1216859Y21018D01*
X1216785Y20814D01*
X1216693Y20648D01*
X1216618Y20499D01*
X1216563Y20370D01*
X1216489Y20277D01*
X1216452Y20203D01*
X1216433Y20166D01*
X1216415Y20148D01*
X1216174Y19870D01*
X1215933Y19629D01*
X1215656Y19425D01*
X1215359Y19240D01*
X1215063Y19092D01*
X1214767Y18963D01*
X1214471Y18851D01*
X1214174Y18777D01*
X1213915Y18703D01*
X1213656Y18666D01*
X1213415Y18629D01*
X1213211Y18592D01*
X1213045D01*
X1212934Y18574D01*
X1212822D01*
X1212286Y18611D01*
X1211786Y18685D01*
X1211360Y18796D01*
X1210989Y18925D01*
X1210823Y19000D01*
X1210693Y19055D01*
X1210564Y19111D01*
X1210471Y19166D01*
X1210397Y19222D01*
X1210323Y19240D01*
X1210304Y19277D01*
X1210286D01*
X1209934Y19574D01*
X1209619Y19888D01*
X1209360Y20240D01*
X1209156Y20573D01*
X1208990Y20870D01*
X1208934Y20999D01*
X1208878Y21110D01*
X1208841Y21203D01*
X1208804Y21277D01*
X1208786Y21314D01*
Y21333D01*
X1211230Y21740D01*
X1211323Y21499D01*
X1211415Y21277D01*
X1211508Y21110D01*
X1211619Y20962D01*
X1211693Y20851D01*
X1211767Y20777D01*
X1211823Y20740D01*
X1211841Y20722D01*
X1211989Y20610D01*
X1212156Y20536D01*
X1212323Y20481D01*
X1212471Y20444D01*
X1212600Y20425D01*
X1212711Y20407D01*
X1212804D01*
X1213100Y20425D01*
X1213378Y20499D01*
X1213637Y20592D01*
X1213841Y20703D01*
X1214008Y20814D01*
X1214119Y20907D01*
X1214211Y20981D01*
X1214230Y20999D01*
X1214415Y21240D01*
X1214545Y21518D01*
X1214656Y21814D01*
X1214730Y22073D01*
X1214767Y22333D01*
X1214785Y22518D01*
X1214804Y22592D01*
Y22647D01*
Y22684D01*
Y22703D01*
X1208656D01*
Y23221D01*
X1208693Y23684D01*
X1208749Y24129D01*
X1208823Y24536D01*
X1208915Y24925D01*
X1209008Y25258D01*
X1209119Y25573D01*
X1209230Y25851D01*
X1209341Y26091D01*
X1209453Y26314D01*
X1209545Y26480D01*
X1209638Y26628D01*
X1209712Y26739D01*
X1209767Y26832D01*
X1209804Y26869D01*
X1209823Y26888D01*
X1210045Y27128D01*
X1210304Y27351D01*
X1210564Y27536D01*
X1210823Y27684D01*
X1211100Y27832D01*
X1211378Y27943D01*
X1211637Y28036D01*
X1211897Y28110D01*
X1212137Y28165D01*
X1212360Y28202D01*
X1212563Y28239D01*
X1212730Y28258D01*
X1212878Y28276D01*
X1213082D01*
X1213415Y28258D01*
D02*
G37*
G36*
X1138756D02*
X1139071Y28221D01*
X1139386Y28147D01*
X1139663Y28073D01*
X1139941Y27980D01*
X1140182Y27869D01*
X1140423Y27739D01*
X1140626Y27628D01*
X1140811Y27499D01*
X1140978Y27369D01*
X1141126Y27258D01*
X1141237Y27165D01*
X1141330Y27091D01*
X1141404Y27017D01*
X1141441Y26980D01*
X1141460Y26962D01*
X1141663Y26702D01*
X1141848Y26425D01*
X1142015Y26147D01*
X1142163Y25851D01*
X1142274Y25536D01*
X1142367Y25240D01*
X1142515Y24666D01*
X1142571Y24388D01*
X1142608Y24147D01*
X1142626Y23925D01*
X1142645Y23740D01*
X1142663Y23573D01*
Y23444D01*
Y23370D01*
Y23351D01*
X1142645Y22999D01*
X1142626Y22647D01*
X1142571Y22333D01*
X1142515Y22036D01*
X1142459Y21740D01*
X1142367Y21481D01*
X1142293Y21240D01*
X1142200Y21018D01*
X1142126Y20814D01*
X1142034Y20648D01*
X1141960Y20499D01*
X1141904Y20370D01*
X1141830Y20277D01*
X1141793Y20203D01*
X1141774Y20166D01*
X1141756Y20148D01*
X1141515Y19870D01*
X1141274Y19629D01*
X1140997Y19425D01*
X1140700Y19240D01*
X1140404Y19092D01*
X1140108Y18963D01*
X1139812Y18851D01*
X1139515Y18777D01*
X1139256Y18703D01*
X1138997Y18666D01*
X1138756Y18629D01*
X1138552Y18592D01*
X1138386D01*
X1138275Y18574D01*
X1138164D01*
X1137627Y18611D01*
X1137127Y18685D01*
X1136701Y18796D01*
X1136330Y18925D01*
X1136164Y19000D01*
X1136034Y19055D01*
X1135905Y19111D01*
X1135812Y19166D01*
X1135738Y19222D01*
X1135664Y19240D01*
X1135645Y19277D01*
X1135627D01*
X1135275Y19574D01*
X1134960Y19888D01*
X1134701Y20240D01*
X1134497Y20573D01*
X1134331Y20870D01*
X1134275Y20999D01*
X1134220Y21110D01*
X1134183Y21203D01*
X1134146Y21277D01*
X1134127Y21314D01*
Y21333D01*
X1136571Y21740D01*
X1136664Y21499D01*
X1136756Y21277D01*
X1136849Y21110D01*
X1136960Y20962D01*
X1137034Y20851D01*
X1137108Y20777D01*
X1137164Y20740D01*
X1137182Y20722D01*
X1137330Y20610D01*
X1137497Y20536D01*
X1137664Y20481D01*
X1137812Y20444D01*
X1137941Y20425D01*
X1138053Y20407D01*
X1138145D01*
X1138441Y20425D01*
X1138719Y20499D01*
X1138978Y20592D01*
X1139182Y20703D01*
X1139349Y20814D01*
X1139460Y20907D01*
X1139552Y20981D01*
X1139571Y20999D01*
X1139756Y21240D01*
X1139886Y21518D01*
X1139997Y21814D01*
X1140071Y22073D01*
X1140108Y22333D01*
X1140126Y22518D01*
X1140145Y22592D01*
Y22647D01*
Y22684D01*
Y22703D01*
X1133997D01*
Y23221D01*
X1134034Y23684D01*
X1134090Y24129D01*
X1134164Y24536D01*
X1134257Y24925D01*
X1134349Y25258D01*
X1134460Y25573D01*
X1134571Y25851D01*
X1134682Y26091D01*
X1134794Y26314D01*
X1134886Y26480D01*
X1134979Y26628D01*
X1135053Y26739D01*
X1135108Y26832D01*
X1135145Y26869D01*
X1135164Y26888D01*
X1135386Y27128D01*
X1135645Y27351D01*
X1135905Y27536D01*
X1136164Y27684D01*
X1136442Y27832D01*
X1136719Y27943D01*
X1136979Y28036D01*
X1137238Y28110D01*
X1137478Y28165D01*
X1137701Y28202D01*
X1137904Y28239D01*
X1138071Y28258D01*
X1138219Y28276D01*
X1138423D01*
X1138756Y28258D01*
D02*
G37*
G36*
X1254429Y28258D02*
X1254763Y28202D01*
X1255059Y28128D01*
X1255355Y28036D01*
X1255633Y27906D01*
X1255874Y27777D01*
X1256114Y27628D01*
X1256318Y27499D01*
X1256503Y27351D01*
X1256670Y27202D01*
X1256818Y27073D01*
X1256929Y26943D01*
X1257022Y26851D01*
X1257096Y26777D01*
X1257133Y26721D01*
X1257151Y26702D01*
Y28073D01*
X1259429D01*
Y18777D01*
X1256966D01*
Y22962D01*
Y23240D01*
Y23499D01*
X1256948Y23740D01*
X1256929Y23944D01*
Y24147D01*
X1256911Y24314D01*
X1256892Y24481D01*
X1256873Y24610D01*
X1256836Y24832D01*
X1256818Y24980D01*
X1256781Y25073D01*
Y25092D01*
X1256707Y25295D01*
X1256596Y25499D01*
X1256485Y25647D01*
X1256374Y25795D01*
X1256263Y25888D01*
X1256170Y25980D01*
X1256114Y26017D01*
X1256096Y26036D01*
X1255892Y26147D01*
X1255688Y26240D01*
X1255503Y26295D01*
X1255318Y26351D01*
X1255170Y26369D01*
X1255059Y26388D01*
X1254948D01*
X1254763Y26369D01*
X1254596Y26351D01*
X1254466Y26314D01*
X1254337Y26258D01*
X1254226Y26203D01*
X1254152Y26165D01*
X1254115Y26147D01*
X1254096Y26128D01*
X1253966Y26036D01*
X1253874Y25925D01*
X1253707Y25703D01*
X1253652Y25591D01*
X1253615Y25517D01*
X1253578Y25462D01*
Y25443D01*
X1253540Y25351D01*
X1253522Y25240D01*
X1253485Y24962D01*
X1253448Y24629D01*
X1253429Y24314D01*
X1253411Y23999D01*
Y23870D01*
Y23740D01*
Y23647D01*
Y23573D01*
Y23518D01*
Y23499D01*
Y18777D01*
X1250948D01*
Y24536D01*
Y24925D01*
X1250967Y25240D01*
X1250985Y25536D01*
X1251022Y25758D01*
X1251041Y25943D01*
X1251078Y26073D01*
X1251096Y26165D01*
Y26184D01*
X1251152Y26406D01*
X1251226Y26591D01*
X1251300Y26777D01*
X1251393Y26925D01*
X1251467Y27054D01*
X1251522Y27147D01*
X1251559Y27202D01*
X1251578Y27221D01*
X1251726Y27388D01*
X1251893Y27536D01*
X1252059Y27665D01*
X1252226Y27777D01*
X1252374Y27869D01*
X1252504Y27925D01*
X1252578Y27962D01*
X1252615Y27980D01*
X1252874Y28073D01*
X1253133Y28147D01*
X1253374Y28202D01*
X1253596Y28239D01*
X1253800Y28258D01*
X1253966Y28276D01*
X1254096D01*
X1254429Y28258D01*
D02*
G37*
G36*
X1228432Y29425D02*
X1224636D01*
Y18777D01*
X1222044D01*
Y29425D01*
X1218266D01*
Y31591D01*
X1228432D01*
Y29425D01*
D02*
G37*
G36*
X1196695Y18777D02*
X1194232D01*
Y31591D01*
X1196695D01*
Y18777D01*
D02*
G37*
G36*
X1155810Y28258D02*
X1155995Y28239D01*
X1156180Y28184D01*
X1156328Y28128D01*
X1156458Y28073D01*
X1156569Y28036D01*
X1156625Y27999D01*
X1156643Y27980D01*
X1156828Y27850D01*
X1156995Y27665D01*
X1157180Y27462D01*
X1157328Y27258D01*
X1157476Y27054D01*
X1157588Y26888D01*
X1157662Y26777D01*
X1157680Y26758D01*
Y28073D01*
X1159958D01*
Y18777D01*
X1157495D01*
Y21629D01*
Y22055D01*
Y22444D01*
X1157476Y22796D01*
X1157458Y23110D01*
Y23407D01*
X1157439Y23647D01*
X1157421Y23888D01*
X1157402Y24073D01*
X1157384Y24240D01*
X1157365Y24388D01*
X1157347Y24499D01*
Y24592D01*
X1157328Y24647D01*
X1157310Y24703D01*
Y24740D01*
X1157236Y24999D01*
X1157143Y25221D01*
X1157050Y25406D01*
X1156958Y25536D01*
X1156884Y25647D01*
X1156810Y25721D01*
X1156773Y25758D01*
X1156754Y25777D01*
X1156606Y25869D01*
X1156458Y25943D01*
X1156310Y25999D01*
X1156180Y26036D01*
X1156069Y26054D01*
X1155958Y26073D01*
X1155884D01*
X1155680Y26054D01*
X1155477Y26017D01*
X1155292Y25943D01*
X1155106Y25869D01*
X1154958Y25795D01*
X1154847Y25721D01*
X1154754Y25684D01*
X1154736Y25666D01*
X1153958Y27795D01*
X1154255Y27962D01*
X1154532Y28073D01*
X1154810Y28165D01*
X1155069Y28221D01*
X1155273Y28258D01*
X1155440Y28276D01*
X1155588D01*
X1155810Y28258D01*
D02*
G37*
G36*
X1127942D02*
X1128128Y28239D01*
X1128313Y28184D01*
X1128461Y28128D01*
X1128590Y28073D01*
X1128702Y28036D01*
X1128757Y27999D01*
X1128776Y27980D01*
X1128961Y27850D01*
X1129128Y27665D01*
X1129313Y27462D01*
X1129461Y27258D01*
X1129609Y27054D01*
X1129720Y26888D01*
X1129794Y26777D01*
X1129813Y26758D01*
Y28073D01*
X1132090D01*
Y18777D01*
X1129628D01*
Y21629D01*
Y22055D01*
Y22444D01*
X1129609Y22796D01*
X1129590Y23110D01*
Y23407D01*
X1129572Y23647D01*
X1129553Y23888D01*
X1129535Y24073D01*
X1129516Y24240D01*
X1129498Y24388D01*
X1129479Y24499D01*
Y24592D01*
X1129461Y24647D01*
X1129442Y24703D01*
Y24740D01*
X1129368Y24999D01*
X1129276Y25221D01*
X1129183Y25406D01*
X1129090Y25536D01*
X1129016Y25647D01*
X1128942Y25721D01*
X1128905Y25758D01*
X1128887Y25777D01*
X1128739Y25869D01*
X1128590Y25943D01*
X1128442Y25999D01*
X1128313Y26036D01*
X1128202Y26054D01*
X1128091Y26073D01*
X1128017D01*
X1127813Y26054D01*
X1127609Y26017D01*
X1127424Y25943D01*
X1127239Y25869D01*
X1127091Y25795D01*
X1126980Y25721D01*
X1126887Y25684D01*
X1126869Y25666D01*
X1126091Y27795D01*
X1126387Y27962D01*
X1126665Y28073D01*
X1126943Y28165D01*
X1127202Y28221D01*
X1127405Y28258D01*
X1127572Y28276D01*
X1127720D01*
X1127942Y28258D01*
D02*
G37*
G36*
X1104019Y29424D02*
X1100223D01*
Y18777D01*
X1097631D01*
Y29424D01*
X1093853D01*
Y31591D01*
X1104019D01*
Y29424D01*
D02*
G37*
G36*
X1242394Y26980D02*
X1242616Y27202D01*
X1242838Y27406D01*
X1243060Y27573D01*
X1243301Y27739D01*
X1243523Y27850D01*
X1243745Y27962D01*
X1243968Y28054D01*
X1244171Y28110D01*
X1244375Y28165D01*
X1244541Y28202D01*
X1244708Y28239D01*
X1244838Y28258D01*
X1244949Y28276D01*
X1245097D01*
X1245412Y28258D01*
X1245708Y28221D01*
X1245986Y28165D01*
X1246264Y28091D01*
X1246726Y27888D01*
X1246949Y27777D01*
X1247134Y27665D01*
X1247319Y27536D01*
X1247467Y27425D01*
X1247597Y27332D01*
X1247708Y27239D01*
X1247800Y27147D01*
X1247856Y27091D01*
X1247893Y27054D01*
X1247912Y27036D01*
X1248097Y26795D01*
X1248263Y26536D01*
X1248411Y26258D01*
X1248541Y25962D01*
X1248652Y25666D01*
X1248745Y25369D01*
X1248874Y24777D01*
X1248911Y24518D01*
X1248948Y24258D01*
X1248967Y24036D01*
X1248986Y23832D01*
X1249004Y23666D01*
Y23555D01*
Y23462D01*
Y23444D01*
X1248986Y23018D01*
X1248948Y22629D01*
X1248893Y22259D01*
X1248819Y21907D01*
X1248745Y21592D01*
X1248652Y21296D01*
X1248541Y21036D01*
X1248430Y20796D01*
X1248337Y20573D01*
X1248226Y20388D01*
X1248134Y20222D01*
X1248041Y20092D01*
X1247986Y19981D01*
X1247930Y19907D01*
X1247893Y19870D01*
X1247875Y19851D01*
X1247652Y19629D01*
X1247430Y19425D01*
X1247189Y19259D01*
X1246967Y19111D01*
X1246726Y18981D01*
X1246504Y18888D01*
X1246282Y18796D01*
X1246078Y18740D01*
X1245875Y18685D01*
X1245689Y18648D01*
X1245541Y18611D01*
X1245393Y18592D01*
X1245282Y18574D01*
X1245134D01*
X1244838Y18592D01*
X1244560Y18629D01*
X1244282Y18685D01*
X1244042Y18759D01*
X1243856Y18833D01*
X1243690Y18888D01*
X1243597Y18925D01*
X1243560Y18944D01*
X1243282Y19111D01*
X1243023Y19296D01*
X1242782Y19500D01*
X1242597Y19685D01*
X1242431Y19851D01*
X1242301Y20000D01*
X1242227Y20092D01*
X1242208Y20129D01*
Y18777D01*
X1239931D01*
Y31591D01*
X1242394D01*
Y26980D01*
D02*
G37*
G36*
X1203972Y28239D02*
X1204286Y28202D01*
X1204583Y28147D01*
X1204842Y28091D01*
X1205083Y28017D01*
X1205305Y27943D01*
X1205508Y27869D01*
X1205675Y27776D01*
X1205823Y27702D01*
X1205953Y27628D01*
X1206046Y27573D01*
X1206138Y27517D01*
X1206194Y27480D01*
X1206212Y27462D01*
X1206231Y27443D01*
X1206397Y27295D01*
X1206545Y27128D01*
X1206675Y26962D01*
X1206768Y26777D01*
X1206953Y26443D01*
X1207064Y26128D01*
X1207119Y25851D01*
X1207138Y25721D01*
X1207157Y25628D01*
X1207175Y25536D01*
Y25480D01*
Y25443D01*
Y25425D01*
X1207157Y25184D01*
X1207119Y24962D01*
X1207082Y24740D01*
X1207008Y24536D01*
X1206823Y24184D01*
X1206619Y23888D01*
X1206434Y23647D01*
X1206249Y23481D01*
X1206175Y23407D01*
X1206138Y23370D01*
X1206101Y23351D01*
X1206083Y23333D01*
X1205916Y23240D01*
X1205694Y23129D01*
X1205434Y23018D01*
X1205157Y22925D01*
X1204860Y22814D01*
X1204546Y22721D01*
X1203897Y22536D01*
X1203583Y22444D01*
X1203287Y22370D01*
X1203027Y22295D01*
X1202786Y22240D01*
X1202583Y22203D01*
X1202435Y22166D01*
X1202342Y22129D01*
X1202305D01*
X1202083Y22073D01*
X1201916Y22018D01*
X1201768Y21962D01*
X1201657Y21925D01*
X1201583Y21870D01*
X1201527Y21851D01*
X1201490Y21814D01*
X1201379Y21666D01*
X1201324Y21518D01*
X1201305Y21407D01*
Y21370D01*
Y21351D01*
X1201324Y21203D01*
X1201361Y21073D01*
X1201416Y20962D01*
X1201472Y20870D01*
X1201527Y20796D01*
X1201583Y20740D01*
X1201620Y20703D01*
X1201638Y20685D01*
X1201842Y20573D01*
X1202064Y20499D01*
X1202305Y20425D01*
X1202527Y20388D01*
X1202731Y20370D01*
X1202916Y20351D01*
X1203064D01*
X1203379Y20370D01*
X1203638Y20407D01*
X1203879Y20462D01*
X1204064Y20536D01*
X1204212Y20592D01*
X1204323Y20648D01*
X1204398Y20685D01*
X1204416Y20703D01*
X1204583Y20851D01*
X1204712Y21036D01*
X1204823Y21203D01*
X1204916Y21388D01*
X1204971Y21555D01*
X1205008Y21685D01*
X1205046Y21759D01*
Y21796D01*
X1207508Y21425D01*
X1207342Y20962D01*
X1207138Y20536D01*
X1206916Y20185D01*
X1206675Y19888D01*
X1206453Y19648D01*
X1206249Y19481D01*
X1206194Y19407D01*
X1206138Y19370D01*
X1206101Y19351D01*
X1206083Y19333D01*
X1205860Y19203D01*
X1205638Y19074D01*
X1205138Y18888D01*
X1204638Y18759D01*
X1204157Y18666D01*
X1203935Y18629D01*
X1203731Y18611D01*
X1203546Y18592D01*
X1203379D01*
X1203250Y18574D01*
X1203064D01*
X1202694Y18592D01*
X1202342Y18611D01*
X1202009Y18666D01*
X1201694Y18722D01*
X1201416Y18777D01*
X1201157Y18870D01*
X1200916Y18944D01*
X1200713Y19037D01*
X1200527Y19111D01*
X1200361Y19203D01*
X1200231Y19277D01*
X1200120Y19333D01*
X1200028Y19407D01*
X1199972Y19444D01*
X1199935Y19462D01*
X1199917Y19481D01*
X1199731Y19666D01*
X1199565Y19851D01*
X1199417Y20036D01*
X1199287Y20222D01*
X1199194Y20407D01*
X1199102Y20592D01*
X1198972Y20925D01*
X1198898Y21240D01*
X1198879Y21370D01*
X1198861Y21462D01*
X1198842Y21555D01*
Y21629D01*
Y21666D01*
Y21685D01*
X1198879Y22092D01*
X1198972Y22462D01*
X1199083Y22777D01*
X1199231Y23036D01*
X1199380Y23240D01*
X1199491Y23388D01*
X1199583Y23462D01*
X1199620Y23499D01*
X1199787Y23610D01*
X1199954Y23740D01*
X1200157Y23832D01*
X1200379Y23944D01*
X1200824Y24129D01*
X1201287Y24295D01*
X1201694Y24425D01*
X1201879Y24462D01*
X1202046Y24518D01*
X1202176Y24555D01*
X1202268Y24573D01*
X1202342Y24592D01*
X1202361D01*
X1202712Y24684D01*
X1203027Y24758D01*
X1203305Y24832D01*
X1203546Y24906D01*
X1203768Y24962D01*
X1203953Y25017D01*
X1204101Y25073D01*
X1204249Y25110D01*
X1204361Y25166D01*
X1204453Y25203D01*
X1204527Y25221D01*
X1204564Y25258D01*
X1204638Y25277D01*
X1204657Y25295D01*
X1204731Y25369D01*
X1204786Y25443D01*
X1204860Y25591D01*
X1204897Y25703D01*
Y25721D01*
Y25740D01*
X1204879Y25851D01*
X1204860Y25943D01*
X1204749Y26110D01*
X1204657Y26202D01*
X1204638Y26240D01*
X1204620D01*
X1204435Y26332D01*
X1204231Y26406D01*
X1204009Y26443D01*
X1203768Y26480D01*
X1203564Y26499D01*
X1203398Y26517D01*
X1203231D01*
X1202953Y26499D01*
X1202712Y26480D01*
X1202509Y26425D01*
X1202342Y26369D01*
X1202213Y26314D01*
X1202120Y26277D01*
X1202064Y26240D01*
X1202046Y26221D01*
X1201898Y26110D01*
X1201787Y25980D01*
X1201675Y25851D01*
X1201601Y25703D01*
X1201546Y25591D01*
X1201509Y25499D01*
X1201472Y25425D01*
Y25406D01*
X1199157Y25832D01*
X1199305Y26258D01*
X1199509Y26628D01*
X1199713Y26943D01*
X1199935Y27184D01*
X1200120Y27388D01*
X1200287Y27536D01*
X1200398Y27610D01*
X1200416Y27647D01*
X1200435D01*
X1200620Y27758D01*
X1200824Y27850D01*
X1201268Y28017D01*
X1201731Y28128D01*
X1202194Y28202D01*
X1202416Y28221D01*
X1202620Y28239D01*
X1202805Y28258D01*
X1202953Y28276D01*
X1203638D01*
X1203972Y28239D01*
D02*
G37*
G36*
X1126331Y18555D02*
X1124517D01*
X1121313Y31813D01*
X1123165D01*
X1126331Y18555D01*
D02*
G37*
G36*
X1072985Y31646D02*
X1073300Y31609D01*
X1073615Y31535D01*
X1073893Y31461D01*
X1074152Y31350D01*
X1074392Y31239D01*
X1074596Y31128D01*
X1074800Y30998D01*
X1074967Y30869D01*
X1075133Y30758D01*
X1075263Y30647D01*
X1075355Y30535D01*
X1075448Y30461D01*
X1075503Y30387D01*
X1075540Y30350D01*
X1075559Y30332D01*
X1075781Y30017D01*
X1075966Y29647D01*
X1076133Y29258D01*
X1076281Y28850D01*
X1076392Y28424D01*
X1076503Y27980D01*
X1076577Y27554D01*
X1076652Y27128D01*
X1076689Y26721D01*
X1076725Y26351D01*
X1076763Y25999D01*
X1076781Y25703D01*
X1076800Y25462D01*
Y25277D01*
Y25203D01*
Y25147D01*
Y25129D01*
Y25110D01*
X1076781Y24444D01*
X1076744Y23832D01*
X1076689Y23258D01*
X1076614Y22740D01*
X1076540Y22277D01*
X1076448Y21851D01*
X1076337Y21481D01*
X1076226Y21147D01*
X1076133Y20870D01*
X1076022Y20610D01*
X1075929Y20407D01*
X1075837Y20240D01*
X1075781Y20129D01*
X1075726Y20036D01*
X1075689Y19981D01*
X1075670Y19962D01*
X1075448Y19703D01*
X1075207Y19499D01*
X1074967Y19296D01*
X1074707Y19148D01*
X1074466Y19000D01*
X1074207Y18888D01*
X1073967Y18796D01*
X1073726Y18722D01*
X1073504Y18648D01*
X1073300Y18611D01*
X1073115Y18574D01*
X1072967Y18555D01*
X1072837D01*
X1072726Y18537D01*
X1072652D01*
X1072319Y18555D01*
X1072004Y18592D01*
X1071689Y18666D01*
X1071411Y18740D01*
X1071152Y18833D01*
X1070911Y18944D01*
X1070708Y19074D01*
X1070504Y19203D01*
X1070337Y19314D01*
X1070171Y19444D01*
X1070041Y19555D01*
X1069930Y19648D01*
X1069856Y19722D01*
X1069800Y19796D01*
X1069763Y19833D01*
X1069745Y19851D01*
X1069523Y20166D01*
X1069337Y20536D01*
X1069152Y20925D01*
X1069023Y21351D01*
X1068893Y21777D01*
X1068800Y22203D01*
X1068708Y22647D01*
X1068634Y23073D01*
X1068597Y23481D01*
X1068560Y23851D01*
X1068523Y24203D01*
X1068504Y24499D01*
X1068486Y24740D01*
Y24925D01*
Y24999D01*
Y25055D01*
Y25073D01*
Y25092D01*
X1068504Y25758D01*
X1068541Y26369D01*
X1068597Y26925D01*
X1068689Y27443D01*
X1068782Y27925D01*
X1068875Y28350D01*
X1069004Y28739D01*
X1069115Y29073D01*
X1069226Y29387D01*
X1069337Y29628D01*
X1069448Y29850D01*
X1069541Y30035D01*
X1069634Y30165D01*
X1069689Y30258D01*
X1069726Y30313D01*
X1069745Y30332D01*
X1069949Y30573D01*
X1070171Y30776D01*
X1070411Y30943D01*
X1070652Y31109D01*
X1070893Y31239D01*
X1071133Y31332D01*
X1071356Y31424D01*
X1071596Y31498D01*
X1071819Y31554D01*
X1072004Y31591D01*
X1072189Y31628D01*
X1072337Y31646D01*
X1072467Y31665D01*
X1072652D01*
X1072985Y31646D01*
D02*
G37*
G36*
X1063042Y31646D02*
X1063356Y31628D01*
X1063653Y31572D01*
X1063931Y31517D01*
X1064190Y31443D01*
X1064430Y31369D01*
X1064634Y31276D01*
X1064819Y31202D01*
X1065005Y31109D01*
X1065153Y31017D01*
X1065264Y30943D01*
X1065375Y30869D01*
X1065449Y30813D01*
X1065505Y30758D01*
X1065542Y30739D01*
X1065560Y30721D01*
X1065727Y30535D01*
X1065893Y30350D01*
X1066023Y30147D01*
X1066134Y29961D01*
X1066319Y29554D01*
X1066430Y29184D01*
X1066504Y28850D01*
X1066523Y28702D01*
X1066541Y28591D01*
X1066560Y28480D01*
Y28406D01*
Y28369D01*
Y28350D01*
X1066541Y28036D01*
X1066486Y27758D01*
X1066430Y27480D01*
X1066338Y27258D01*
X1066264Y27054D01*
X1066208Y26925D01*
X1066153Y26832D01*
X1066134Y26795D01*
X1065949Y26554D01*
X1065727Y26332D01*
X1065505Y26147D01*
X1065264Y25980D01*
X1065060Y25869D01*
X1064893Y25777D01*
X1064782Y25721D01*
X1064764Y25703D01*
X1064745D01*
X1065134Y25499D01*
X1065467Y25295D01*
X1065745Y25073D01*
X1065967Y24851D01*
X1066153Y24647D01*
X1066282Y24499D01*
X1066356Y24388D01*
X1066375Y24369D01*
Y24351D01*
X1066541Y24018D01*
X1066671Y23684D01*
X1066745Y23351D01*
X1066819Y23055D01*
X1066856Y22814D01*
X1066875Y22610D01*
Y22536D01*
Y22481D01*
Y22444D01*
Y22425D01*
X1066856Y22073D01*
X1066819Y21758D01*
X1066745Y21444D01*
X1066653Y21166D01*
X1066560Y20888D01*
X1066449Y20647D01*
X1066319Y20425D01*
X1066190Y20222D01*
X1066060Y20055D01*
X1065930Y19888D01*
X1065819Y19759D01*
X1065727Y19648D01*
X1065634Y19555D01*
X1065560Y19499D01*
X1065523Y19462D01*
X1065505Y19444D01*
X1065282Y19277D01*
X1065042Y19148D01*
X1064801Y19018D01*
X1064560Y18925D01*
X1064079Y18759D01*
X1063616Y18648D01*
X1063394Y18611D01*
X1063208Y18592D01*
X1063042Y18574D01*
X1062894Y18555D01*
X1062764Y18537D01*
X1062597D01*
X1062246Y18555D01*
X1061931Y18592D01*
X1061616Y18648D01*
X1061320Y18703D01*
X1061060Y18796D01*
X1060820Y18888D01*
X1060579Y18981D01*
X1060375Y19092D01*
X1060190Y19203D01*
X1060042Y19296D01*
X1059894Y19388D01*
X1059783Y19481D01*
X1059690Y19536D01*
X1059635Y19592D01*
X1059598Y19629D01*
X1059579Y19648D01*
X1059376Y19870D01*
X1059209Y20092D01*
X1059042Y20333D01*
X1058913Y20573D01*
X1058801Y20814D01*
X1058709Y21055D01*
X1058579Y21518D01*
X1058524Y21721D01*
X1058487Y21907D01*
X1058468Y22092D01*
X1058450Y22240D01*
X1058431Y22370D01*
Y22462D01*
Y22518D01*
Y22536D01*
X1058450Y22925D01*
X1058524Y23277D01*
X1058598Y23610D01*
X1058709Y23888D01*
X1058801Y24110D01*
X1058894Y24277D01*
X1058968Y24388D01*
X1058987Y24425D01*
X1059209Y24721D01*
X1059468Y24980D01*
X1059746Y25203D01*
X1060005Y25369D01*
X1060246Y25517D01*
X1060431Y25628D01*
X1060505Y25666D01*
X1060561Y25684D01*
X1060598Y25703D01*
X1060616D01*
X1060320Y25851D01*
X1060061Y26017D01*
X1059838Y26184D01*
X1059653Y26369D01*
X1059505Y26517D01*
X1059413Y26647D01*
X1059338Y26721D01*
X1059320Y26758D01*
X1059153Y27036D01*
X1059042Y27313D01*
X1058950Y27573D01*
X1058894Y27813D01*
X1058857Y28036D01*
X1058839Y28202D01*
Y28313D01*
Y28332D01*
Y28350D01*
X1058857Y28610D01*
X1058876Y28869D01*
X1059005Y29332D01*
X1059153Y29721D01*
X1059338Y30073D01*
X1059542Y30350D01*
X1059616Y30461D01*
X1059690Y30554D01*
X1059764Y30628D01*
X1059820Y30684D01*
X1059838Y30702D01*
X1059857Y30721D01*
X1060061Y30887D01*
X1060264Y31035D01*
X1060505Y31165D01*
X1060727Y31276D01*
X1061209Y31443D01*
X1061672Y31554D01*
X1061875Y31591D01*
X1062079Y31609D01*
X1062246Y31628D01*
X1062412Y31646D01*
X1062523Y31665D01*
X1062709D01*
X1063042Y31646D01*
D02*
G37*
G36*
X1248893Y100202D02*
X1249134Y99813D01*
X1249393Y99443D01*
X1249652Y99147D01*
X1249874Y98906D01*
X1250078Y98721D01*
X1250152Y98647D01*
X1250208Y98591D01*
X1250245Y98573D01*
X1250263Y98554D01*
X1250670Y98258D01*
X1251059Y97999D01*
X1251411Y97795D01*
X1251726Y97647D01*
X1251985Y97536D01*
X1252170Y97443D01*
X1252244Y97425D01*
X1252300Y97406D01*
X1252318Y97388D01*
X1252337D01*
Y95166D01*
X1251670Y95425D01*
X1251078Y95703D01*
X1250800Y95851D01*
X1250541Y96018D01*
X1250300Y96166D01*
X1250078Y96314D01*
X1249874Y96462D01*
X1249689Y96592D01*
X1249541Y96703D01*
X1249411Y96814D01*
X1249300Y96906D01*
X1249226Y96962D01*
X1249189Y96999D01*
X1249171Y97017D01*
Y87741D01*
X1246708D01*
Y100628D01*
X1248708D01*
X1248893Y100202D01*
D02*
G37*
G36*
X1284463Y87741D02*
X1281649D01*
X1279093Y97314D01*
X1276575Y87741D01*
X1273779D01*
X1270687Y100554D01*
X1273298D01*
X1275260Y91592D01*
X1277483Y100554D01*
X1280593D01*
X1282926Y91740D01*
X1284852Y100554D01*
X1287500D01*
X1284463Y87741D01*
D02*
G37*
G36*
X1258707Y91166D02*
X1253874D01*
Y93629D01*
X1258707D01*
Y91166D01*
D02*
G37*
G36*
X1270242Y98388D02*
X1266447D01*
Y87741D01*
X1263854D01*
Y98388D01*
X1260077D01*
Y100554D01*
X1270242D01*
Y98388D01*
D02*
G37*
G36*
X1239209Y100610D02*
X1239523Y100573D01*
X1239838Y100499D01*
X1240116Y100425D01*
X1240375Y100314D01*
X1240616Y100202D01*
X1240820Y100091D01*
X1241023Y99962D01*
X1241190Y99832D01*
X1241357Y99721D01*
X1241486Y99610D01*
X1241579Y99499D01*
X1241671Y99425D01*
X1241727Y99351D01*
X1241764Y99314D01*
X1241783Y99295D01*
X1242005Y98980D01*
X1242190Y98610D01*
X1242356Y98221D01*
X1242505Y97814D01*
X1242616Y97388D01*
X1242727Y96944D01*
X1242801Y96518D01*
X1242875Y96092D01*
X1242912Y95684D01*
X1242949Y95314D01*
X1242986Y94962D01*
X1243005Y94666D01*
X1243023Y94425D01*
Y94240D01*
Y94166D01*
Y94110D01*
Y94092D01*
Y94073D01*
X1243005Y93407D01*
X1242968Y92796D01*
X1242912Y92222D01*
X1242838Y91703D01*
X1242764Y91240D01*
X1242671Y90815D01*
X1242560Y90444D01*
X1242449Y90111D01*
X1242356Y89833D01*
X1242245Y89574D01*
X1242153Y89370D01*
X1242060Y89204D01*
X1242005Y89092D01*
X1241949Y89000D01*
X1241912Y88944D01*
X1241894Y88926D01*
X1241671Y88666D01*
X1241431Y88463D01*
X1241190Y88259D01*
X1240931Y88111D01*
X1240690Y87963D01*
X1240431Y87852D01*
X1240190Y87759D01*
X1239949Y87685D01*
X1239727Y87611D01*
X1239523Y87574D01*
X1239338Y87537D01*
X1239190Y87519D01*
X1239061D01*
X1238950Y87500D01*
X1238875D01*
X1238542Y87519D01*
X1238227Y87556D01*
X1237913Y87630D01*
X1237635Y87704D01*
X1237376Y87796D01*
X1237135Y87907D01*
X1236931Y88037D01*
X1236728Y88167D01*
X1236561Y88278D01*
X1236394Y88407D01*
X1236265Y88518D01*
X1236153Y88611D01*
X1236079Y88685D01*
X1236024Y88759D01*
X1235987Y88796D01*
X1235968Y88815D01*
X1235746Y89129D01*
X1235561Y89500D01*
X1235376Y89889D01*
X1235246Y90315D01*
X1235117Y90740D01*
X1235024Y91166D01*
X1234931Y91611D01*
X1234857Y92037D01*
X1234820Y92444D01*
X1234783Y92814D01*
X1234746Y93166D01*
X1234728Y93462D01*
X1234709Y93703D01*
Y93888D01*
Y93962D01*
Y94018D01*
Y94036D01*
Y94055D01*
X1234728Y94721D01*
X1234765Y95332D01*
X1234820Y95888D01*
X1234913Y96406D01*
X1235005Y96888D01*
X1235098Y97314D01*
X1235228Y97703D01*
X1235339Y98036D01*
X1235450Y98351D01*
X1235561Y98591D01*
X1235672Y98814D01*
X1235765Y98999D01*
X1235857Y99128D01*
X1235913Y99221D01*
X1235950Y99277D01*
X1235968Y99295D01*
X1236172Y99536D01*
X1236394Y99740D01*
X1236635Y99906D01*
X1236876Y100073D01*
X1237116Y100202D01*
X1237357Y100295D01*
X1237579Y100388D01*
X1237820Y100462D01*
X1238042Y100517D01*
X1238227Y100554D01*
X1238412Y100591D01*
X1238561Y100610D01*
X1238690Y100628D01*
X1238875D01*
X1239209Y100610D01*
D02*
G37*
G36*
X1229265D02*
X1229580Y100591D01*
X1229876Y100536D01*
X1230154Y100480D01*
X1230413Y100406D01*
X1230654Y100332D01*
X1230858Y100239D01*
X1231043Y100165D01*
X1231228Y100073D01*
X1231376Y99980D01*
X1231487Y99906D01*
X1231598Y99832D01*
X1231672Y99776D01*
X1231728Y99721D01*
X1231765Y99702D01*
X1231784Y99684D01*
X1231950Y99499D01*
X1232117Y99314D01*
X1232246Y99110D01*
X1232358Y98925D01*
X1232543Y98517D01*
X1232654Y98147D01*
X1232728Y97814D01*
X1232746Y97666D01*
X1232765Y97555D01*
X1232783Y97443D01*
Y97369D01*
Y97332D01*
Y97314D01*
X1232765Y96999D01*
X1232709Y96721D01*
X1232654Y96444D01*
X1232561Y96221D01*
X1232487Y96018D01*
X1232432Y95888D01*
X1232376Y95795D01*
X1232358Y95758D01*
X1232172Y95518D01*
X1231950Y95295D01*
X1231728Y95110D01*
X1231487Y94944D01*
X1231284Y94833D01*
X1231117Y94740D01*
X1231006Y94684D01*
X1230987Y94666D01*
X1230969D01*
X1231358Y94462D01*
X1231691Y94259D01*
X1231969Y94036D01*
X1232191Y93814D01*
X1232376Y93610D01*
X1232506Y93462D01*
X1232580Y93351D01*
X1232598Y93333D01*
Y93314D01*
X1232765Y92981D01*
X1232895Y92648D01*
X1232969Y92314D01*
X1233043Y92018D01*
X1233080Y91777D01*
X1233098Y91574D01*
Y91500D01*
Y91444D01*
Y91407D01*
Y91389D01*
X1233080Y91037D01*
X1233043Y90722D01*
X1232969Y90407D01*
X1232876Y90129D01*
X1232783Y89852D01*
X1232672Y89611D01*
X1232543Y89389D01*
X1232413Y89185D01*
X1232283Y89018D01*
X1232154Y88852D01*
X1232043Y88722D01*
X1231950Y88611D01*
X1231858Y88518D01*
X1231784Y88463D01*
X1231747Y88426D01*
X1231728Y88407D01*
X1231506Y88241D01*
X1231265Y88111D01*
X1231024Y87981D01*
X1230784Y87889D01*
X1230302Y87722D01*
X1229839Y87611D01*
X1229617Y87574D01*
X1229432Y87556D01*
X1229265Y87537D01*
X1229117Y87519D01*
X1228988Y87500D01*
X1228821D01*
X1228469Y87519D01*
X1228154Y87556D01*
X1227840Y87611D01*
X1227543Y87667D01*
X1227284Y87759D01*
X1227043Y87852D01*
X1226803Y87944D01*
X1226599Y88055D01*
X1226414Y88167D01*
X1226266Y88259D01*
X1226117Y88352D01*
X1226006Y88444D01*
X1225914Y88500D01*
X1225858Y88555D01*
X1225821Y88593D01*
X1225803Y88611D01*
X1225599Y88833D01*
X1225432Y89055D01*
X1225266Y89296D01*
X1225136Y89537D01*
X1225025Y89777D01*
X1224932Y90018D01*
X1224803Y90481D01*
X1224747Y90685D01*
X1224710Y90870D01*
X1224692Y91055D01*
X1224673Y91203D01*
X1224655Y91333D01*
Y91426D01*
Y91481D01*
Y91500D01*
X1224673Y91888D01*
X1224747Y92240D01*
X1224821Y92574D01*
X1224932Y92851D01*
X1225025Y93074D01*
X1225118Y93240D01*
X1225192Y93351D01*
X1225210Y93388D01*
X1225432Y93685D01*
X1225692Y93944D01*
X1225969Y94166D01*
X1226229Y94333D01*
X1226469Y94481D01*
X1226654Y94592D01*
X1226729Y94629D01*
X1226784Y94647D01*
X1226821Y94666D01*
X1226840D01*
X1226543Y94814D01*
X1226284Y94981D01*
X1226062Y95147D01*
X1225877Y95332D01*
X1225729Y95481D01*
X1225636Y95610D01*
X1225562Y95684D01*
X1225543Y95721D01*
X1225377Y95999D01*
X1225266Y96277D01*
X1225173Y96536D01*
X1225118Y96777D01*
X1225080Y96999D01*
X1225062Y97166D01*
Y97277D01*
Y97295D01*
Y97314D01*
X1225080Y97573D01*
X1225099Y97832D01*
X1225229Y98295D01*
X1225377Y98684D01*
X1225562Y99036D01*
X1225766Y99314D01*
X1225840Y99425D01*
X1225914Y99517D01*
X1225988Y99591D01*
X1226043Y99647D01*
X1226062Y99665D01*
X1226080Y99684D01*
X1226284Y99851D01*
X1226488Y99999D01*
X1226729Y100128D01*
X1226951Y100239D01*
X1227432Y100406D01*
X1227895Y100517D01*
X1228099Y100554D01*
X1228302Y100573D01*
X1228469Y100591D01*
X1228636Y100610D01*
X1228747Y100628D01*
X1228932D01*
X1229265Y100610D01*
D02*
G37*
G36*
X1225914Y67741D02*
X1223451D01*
Y72388D01*
X1223433Y72796D01*
X1223414Y73148D01*
X1223377Y73462D01*
X1223340Y73703D01*
X1223303Y73907D01*
X1223266Y74036D01*
X1223229Y74129D01*
Y74148D01*
X1223136Y74351D01*
X1223025Y74536D01*
X1222914Y74685D01*
X1222785Y74814D01*
X1222692Y74907D01*
X1222599Y74981D01*
X1222544Y75018D01*
X1222525Y75036D01*
X1222340Y75147D01*
X1222155Y75221D01*
X1221970Y75277D01*
X1221803Y75314D01*
X1221655Y75332D01*
X1221544Y75351D01*
X1221433D01*
X1221248Y75332D01*
X1221062Y75314D01*
X1220914Y75277D01*
X1220785Y75240D01*
X1220692Y75184D01*
X1220600Y75147D01*
X1220563Y75129D01*
X1220544Y75110D01*
X1220414Y75018D01*
X1220322Y74907D01*
X1220155Y74703D01*
X1220118Y74610D01*
X1220081Y74555D01*
X1220044Y74499D01*
Y74481D01*
X1220025Y74388D01*
X1219988Y74296D01*
X1219951Y74036D01*
X1219933Y73722D01*
X1219914Y73407D01*
X1219896Y73110D01*
Y72981D01*
Y72870D01*
Y72759D01*
Y72685D01*
Y72648D01*
Y72629D01*
Y67741D01*
X1217433D01*
Y73185D01*
Y73629D01*
X1217452Y73999D01*
X1217470Y74314D01*
X1217489Y74573D01*
X1217526Y74759D01*
X1217544Y74907D01*
X1217563Y74999D01*
Y75018D01*
X1217618Y75240D01*
X1217692Y75444D01*
X1217766Y75629D01*
X1217859Y75795D01*
X1217933Y75925D01*
X1217989Y76018D01*
X1218026Y76092D01*
X1218044Y76110D01*
X1218192Y76277D01*
X1218359Y76444D01*
X1218526Y76573D01*
X1218692Y76684D01*
X1218840Y76777D01*
X1218970Y76851D01*
X1219044Y76888D01*
X1219081Y76906D01*
X1219340Y77017D01*
X1219618Y77092D01*
X1219859Y77166D01*
X1220100Y77203D01*
X1220303Y77221D01*
X1220470Y77240D01*
X1220618D01*
X1220914Y77221D01*
X1221211Y77184D01*
X1221488Y77110D01*
X1221748Y77017D01*
X1222229Y76795D01*
X1222451Y76666D01*
X1222655Y76536D01*
X1222822Y76388D01*
X1222988Y76258D01*
X1223118Y76147D01*
X1223247Y76036D01*
X1223322Y75944D01*
X1223395Y75869D01*
X1223433Y75833D01*
X1223451Y75814D01*
Y80554D01*
X1225914D01*
Y67741D01*
D02*
G37*
G36*
X1158513Y77221D02*
X1158810Y77184D01*
X1159087Y77110D01*
X1159365Y77017D01*
X1159847Y76777D01*
X1160069Y76629D01*
X1160272Y76499D01*
X1160458Y76369D01*
X1160624Y76221D01*
X1160754Y76110D01*
X1160865Y75999D01*
X1160957Y75888D01*
X1161032Y75814D01*
X1161069Y75777D01*
X1161087Y75758D01*
Y77036D01*
X1163346D01*
Y67741D01*
X1160883D01*
Y72240D01*
Y72703D01*
X1160846Y73110D01*
X1160828Y73425D01*
X1160791Y73703D01*
X1160754Y73888D01*
X1160735Y74036D01*
X1160698Y74129D01*
Y74148D01*
X1160606Y74351D01*
X1160513Y74536D01*
X1160402Y74684D01*
X1160291Y74814D01*
X1160198Y74907D01*
X1160124Y74981D01*
X1160069Y75018D01*
X1160050Y75036D01*
X1159865Y75147D01*
X1159698Y75221D01*
X1159532Y75277D01*
X1159365Y75314D01*
X1159236Y75332D01*
X1159124Y75351D01*
X1158865D01*
X1158717Y75314D01*
X1158587Y75296D01*
X1158476Y75258D01*
X1158402Y75221D01*
X1158347Y75184D01*
X1158310Y75166D01*
X1158291Y75147D01*
X1158199Y75073D01*
X1158106Y74981D01*
X1157976Y74777D01*
X1157939Y74703D01*
X1157902Y74629D01*
X1157884Y74573D01*
Y74555D01*
X1157865Y74481D01*
X1157828Y74370D01*
X1157791Y74110D01*
X1157773Y73833D01*
X1157754Y73536D01*
X1157736Y73259D01*
Y73036D01*
Y72944D01*
Y72870D01*
Y72833D01*
Y72814D01*
Y67741D01*
X1155273D01*
Y72185D01*
Y72648D01*
X1155236Y73036D01*
X1155217Y73370D01*
X1155180Y73647D01*
X1155143Y73851D01*
X1155125Y73999D01*
X1155088Y74073D01*
Y74110D01*
X1154995Y74333D01*
X1154903Y74518D01*
X1154791Y74666D01*
X1154680Y74795D01*
X1154588Y74907D01*
X1154514Y74981D01*
X1154458Y75018D01*
X1154440Y75036D01*
X1154273Y75147D01*
X1154088Y75221D01*
X1153921Y75277D01*
X1153773Y75314D01*
X1153643Y75332D01*
X1153551Y75351D01*
X1153458D01*
X1153218Y75332D01*
X1152995Y75277D01*
X1152810Y75184D01*
X1152662Y75092D01*
X1152551Y74981D01*
X1152477Y74907D01*
X1152421Y74833D01*
X1152403Y74814D01*
X1152366Y74721D01*
X1152310Y74629D01*
X1152255Y74370D01*
X1152199Y74073D01*
X1152181Y73777D01*
X1152162Y73499D01*
X1152144Y73259D01*
Y73166D01*
Y73092D01*
Y73055D01*
Y73036D01*
Y67741D01*
X1149681D01*
Y73666D01*
X1149699Y74129D01*
X1149718Y74536D01*
X1149755Y74870D01*
X1149811Y75129D01*
X1149866Y75332D01*
X1149903Y75481D01*
X1149922Y75573D01*
X1149940Y75592D01*
X1150088Y75888D01*
X1150255Y76129D01*
X1150440Y76332D01*
X1150607Y76518D01*
X1150773Y76647D01*
X1150903Y76740D01*
X1150977Y76795D01*
X1151014Y76814D01*
X1151292Y76962D01*
X1151588Y77055D01*
X1151866Y77129D01*
X1152144Y77184D01*
X1152384Y77221D01*
X1152570Y77240D01*
X1152736D01*
X1153032Y77221D01*
X1153310Y77184D01*
X1153569Y77129D01*
X1153792Y77055D01*
X1153977Y76981D01*
X1154125Y76925D01*
X1154218Y76888D01*
X1154255Y76869D01*
X1154514Y76721D01*
X1154754Y76536D01*
X1154977Y76351D01*
X1155180Y76166D01*
X1155347Y75999D01*
X1155458Y75869D01*
X1155532Y75777D01*
X1155569Y75740D01*
X1155736Y75999D01*
X1155921Y76240D01*
X1156106Y76425D01*
X1156273Y76592D01*
X1156421Y76721D01*
X1156551Y76795D01*
X1156625Y76851D01*
X1156662Y76869D01*
X1156921Y76999D01*
X1157180Y77092D01*
X1157439Y77147D01*
X1157680Y77203D01*
X1157884Y77221D01*
X1158050Y77240D01*
X1158199D01*
X1158513Y77221D01*
D02*
G37*
G36*
X1284056Y80202D02*
X1284297Y79814D01*
X1284556Y79443D01*
X1284815Y79147D01*
X1285037Y78906D01*
X1285241Y78721D01*
X1285315Y78647D01*
X1285371Y78591D01*
X1285408Y78573D01*
X1285426Y78554D01*
X1285833Y78258D01*
X1286222Y77999D01*
X1286574Y77795D01*
X1286889Y77647D01*
X1287148Y77536D01*
X1287333Y77443D01*
X1287407Y77425D01*
X1287463Y77406D01*
X1287482Y77388D01*
X1287500D01*
Y75166D01*
X1286833Y75425D01*
X1286241Y75703D01*
X1285963Y75851D01*
X1285704Y76018D01*
X1285463Y76166D01*
X1285241Y76314D01*
X1285037Y76462D01*
X1284852Y76592D01*
X1284704Y76703D01*
X1284574Y76814D01*
X1284463Y76906D01*
X1284389Y76962D01*
X1284352Y76999D01*
X1284334Y77017D01*
Y67741D01*
X1281871D01*
Y80628D01*
X1283871D01*
X1284056Y80202D01*
D02*
G37*
G36*
X1134146Y72518D02*
X1137497Y67741D01*
X1134627D01*
X1132720Y70611D01*
X1130813Y67741D01*
X1127813D01*
X1131238Y72629D01*
X1128109Y77036D01*
X1130979D01*
X1132720Y74462D01*
X1134349Y77036D01*
X1137349D01*
X1134146Y72518D01*
D02*
G37*
G36*
X1211952Y77203D02*
X1212249Y77184D01*
X1212508Y77129D01*
X1212767Y77092D01*
X1212989Y77036D01*
X1213193Y76962D01*
X1213378Y76906D01*
X1213526Y76851D01*
X1213674Y76777D01*
X1213785Y76721D01*
X1213896Y76684D01*
X1213971Y76629D01*
X1214026Y76610D01*
X1214045Y76573D01*
X1214063D01*
X1214378Y76295D01*
X1214637Y75981D01*
X1214859Y75647D01*
X1215044Y75332D01*
X1215174Y75036D01*
X1215230Y74907D01*
X1215267Y74796D01*
X1215304Y74703D01*
X1215322Y74629D01*
X1215341Y74592D01*
Y74573D01*
X1213137Y74166D01*
X1213045Y74388D01*
X1212952Y74573D01*
X1212860Y74740D01*
X1212748Y74870D01*
X1212674Y74962D01*
X1212600Y75018D01*
X1212563Y75055D01*
X1212545Y75073D01*
X1212397Y75166D01*
X1212230Y75240D01*
X1212045Y75277D01*
X1211878Y75314D01*
X1211730Y75332D01*
X1211619Y75351D01*
X1211508D01*
X1211175Y75332D01*
X1210897Y75296D01*
X1210675Y75258D01*
X1210490Y75203D01*
X1210360Y75129D01*
X1210267Y75092D01*
X1210212Y75055D01*
X1210193Y75036D01*
X1210064Y74907D01*
X1209971Y74759D01*
X1209915Y74592D01*
X1209860Y74425D01*
X1209841Y74259D01*
X1209823Y74129D01*
Y74055D01*
Y74018D01*
Y73777D01*
X1209952Y73722D01*
X1210119Y73666D01*
X1210471Y73555D01*
X1210878Y73462D01*
X1211267Y73370D01*
X1211637Y73277D01*
X1211804Y73240D01*
X1211952Y73222D01*
X1212063Y73203D01*
X1212156Y73185D01*
X1212212Y73166D01*
X1212230D01*
X1212674Y73074D01*
X1213082Y72981D01*
X1213415Y72888D01*
X1213693Y72796D01*
X1213915Y72703D01*
X1214063Y72648D01*
X1214156Y72611D01*
X1214193Y72592D01*
X1214434Y72462D01*
X1214637Y72314D01*
X1214822Y72148D01*
X1214952Y72000D01*
X1215082Y71870D01*
X1215156Y71759D01*
X1215211Y71685D01*
X1215230Y71648D01*
X1215359Y71407D01*
X1215452Y71166D01*
X1215507Y70944D01*
X1215545Y70722D01*
X1215582Y70537D01*
X1215600Y70389D01*
Y70296D01*
Y70259D01*
X1215582Y70037D01*
X1215563Y69833D01*
X1215470Y69444D01*
X1215341Y69111D01*
X1215193Y68833D01*
X1215044Y68611D01*
X1214915Y68444D01*
X1214822Y68333D01*
X1214785Y68315D01*
Y68296D01*
X1214452Y68037D01*
X1214082Y67852D01*
X1213711Y67722D01*
X1213341Y67630D01*
X1213026Y67574D01*
X1212878Y67555D01*
X1212767D01*
X1212656Y67537D01*
X1212526D01*
X1212230Y67555D01*
X1211934Y67593D01*
X1211674Y67630D01*
X1211452Y67685D01*
X1211267Y67741D01*
X1211119Y67796D01*
X1211026Y67815D01*
X1210989Y67833D01*
X1210730Y67963D01*
X1210471Y68092D01*
X1210249Y68259D01*
X1210045Y68407D01*
X1209878Y68537D01*
X1209749Y68648D01*
X1209675Y68722D01*
X1209638Y68741D01*
X1209619Y68667D01*
X1209582Y68574D01*
X1209564Y68500D01*
X1209545Y68481D01*
Y68463D01*
X1209490Y68296D01*
X1209453Y68148D01*
X1209416Y68018D01*
X1209379Y67926D01*
X1209341Y67852D01*
X1209323Y67778D01*
X1209304Y67759D01*
Y67741D01*
X1206879D01*
X1206990Y67981D01*
X1207082Y68204D01*
X1207157Y68407D01*
X1207231Y68593D01*
X1207268Y68741D01*
X1207305Y68870D01*
X1207323Y68944D01*
Y68963D01*
X1207360Y69204D01*
X1207379Y69500D01*
X1207416Y69796D01*
Y70092D01*
X1207434Y70352D01*
Y70574D01*
Y70666D01*
Y70722D01*
Y70759D01*
Y70777D01*
X1207397Y73647D01*
Y73944D01*
X1207416Y74203D01*
X1207434Y74444D01*
X1207453Y74666D01*
X1207471Y74870D01*
X1207508Y75055D01*
X1207527Y75221D01*
X1207564Y75351D01*
X1207601Y75481D01*
X1207619Y75573D01*
X1207675Y75740D01*
X1207712Y75814D01*
X1207730Y75851D01*
X1207879Y76055D01*
X1208045Y76258D01*
X1208230Y76425D01*
X1208434Y76573D01*
X1208601Y76684D01*
X1208749Y76758D01*
X1208841Y76814D01*
X1208860Y76832D01*
X1208878D01*
X1209045Y76906D01*
X1209212Y76962D01*
X1209601Y77073D01*
X1210008Y77147D01*
X1210397Y77184D01*
X1210767Y77221D01*
X1210915D01*
X1211045Y77240D01*
X1211656D01*
X1211952Y77203D01*
D02*
G37*
G36*
X1272557Y78888D02*
Y77036D01*
X1273687D01*
Y75073D01*
X1272557D01*
Y71018D01*
Y70778D01*
Y70574D01*
Y70370D01*
X1272539Y70203D01*
Y69907D01*
X1272520Y69667D01*
X1272502Y69481D01*
Y69370D01*
X1272483Y69296D01*
Y69278D01*
X1272446Y69074D01*
X1272390Y68889D01*
X1272335Y68722D01*
X1272279Y68593D01*
X1272224Y68481D01*
X1272187Y68407D01*
X1272168Y68352D01*
X1272150Y68333D01*
X1272039Y68204D01*
X1271909Y68092D01*
X1271650Y67907D01*
X1271539Y67852D01*
X1271446Y67796D01*
X1271372Y67778D01*
X1271354Y67759D01*
X1271150Y67685D01*
X1270946Y67630D01*
X1270742Y67593D01*
X1270557Y67574D01*
X1270391Y67556D01*
X1270261Y67537D01*
X1270150D01*
X1269761Y67556D01*
X1269391Y67593D01*
X1269057Y67648D01*
X1268780Y67722D01*
X1268539Y67778D01*
X1268354Y67833D01*
X1268243Y67870D01*
X1268224Y67889D01*
X1268206D01*
X1268428Y69796D01*
X1268650Y69722D01*
X1268854Y69667D01*
X1269020Y69629D01*
X1269169Y69611D01*
X1269280Y69592D01*
X1269354Y69574D01*
X1269428D01*
X1269594Y69592D01*
X1269724Y69629D01*
X1269798Y69667D01*
X1269835Y69685D01*
X1269946Y69796D01*
X1270002Y69889D01*
X1270039Y69963D01*
X1270057Y70000D01*
Y70037D01*
X1270076Y70111D01*
Y70278D01*
Y70500D01*
X1270094Y70722D01*
Y70944D01*
Y71129D01*
Y71203D01*
Y71259D01*
Y71296D01*
Y71314D01*
Y75073D01*
X1268409D01*
Y77036D01*
X1270094D01*
Y80332D01*
X1272557Y78888D01*
D02*
G37*
G36*
X1232283Y77221D02*
X1232635Y77184D01*
X1232987Y77129D01*
X1233283Y77036D01*
X1233580Y76943D01*
X1233857Y76832D01*
X1234098Y76721D01*
X1234320Y76592D01*
X1234524Y76481D01*
X1234691Y76351D01*
X1234839Y76240D01*
X1234968Y76147D01*
X1235061Y76055D01*
X1235135Y75999D01*
X1235172Y75962D01*
X1235191Y75944D01*
X1235394Y75684D01*
X1235579Y75425D01*
X1235746Y75147D01*
X1235894Y74851D01*
X1236005Y74555D01*
X1236098Y74259D01*
X1236246Y73685D01*
X1236302Y73407D01*
X1236339Y73166D01*
X1236357Y72944D01*
X1236376Y72740D01*
X1236394Y72592D01*
Y72463D01*
Y72388D01*
Y72370D01*
X1236376Y71962D01*
X1236339Y71555D01*
X1236283Y71203D01*
X1236209Y70851D01*
X1236116Y70537D01*
X1236005Y70241D01*
X1235913Y69981D01*
X1235783Y69741D01*
X1235672Y69518D01*
X1235579Y69333D01*
X1235468Y69185D01*
X1235376Y69055D01*
X1235302Y68944D01*
X1235246Y68870D01*
X1235209Y68833D01*
X1235191Y68815D01*
X1234950Y68593D01*
X1234709Y68389D01*
X1234450Y68222D01*
X1234172Y68074D01*
X1233913Y67944D01*
X1233635Y67852D01*
X1233376Y67759D01*
X1233117Y67704D01*
X1232876Y67648D01*
X1232654Y67611D01*
X1232450Y67574D01*
X1232283Y67556D01*
X1232154Y67537D01*
X1231950D01*
X1231617Y67556D01*
X1231321Y67574D01*
X1231024Y67611D01*
X1230747Y67667D01*
X1230487Y67722D01*
X1230265Y67796D01*
X1230043Y67870D01*
X1229858Y67963D01*
X1229673Y68037D01*
X1229525Y68111D01*
X1229395Y68185D01*
X1229284Y68241D01*
X1229210Y68296D01*
X1229154Y68333D01*
X1229117Y68370D01*
X1229099D01*
X1228913Y68537D01*
X1228728Y68722D01*
X1228413Y69130D01*
X1228154Y69537D01*
X1227969Y69944D01*
X1227821Y70314D01*
X1227765Y70481D01*
X1227710Y70611D01*
X1227673Y70722D01*
X1227654Y70814D01*
X1227636Y70870D01*
Y70889D01*
X1230043Y71296D01*
X1230117Y70963D01*
X1230228Y70666D01*
X1230321Y70426D01*
X1230432Y70241D01*
X1230543Y70092D01*
X1230617Y70000D01*
X1230673Y69944D01*
X1230691Y69926D01*
X1230876Y69796D01*
X1231061Y69703D01*
X1231247Y69629D01*
X1231432Y69592D01*
X1231598Y69555D01*
X1231728Y69537D01*
X1231839D01*
X1232172Y69574D01*
X1232469Y69648D01*
X1232709Y69741D01*
X1232932Y69870D01*
X1233098Y70000D01*
X1233209Y70092D01*
X1233302Y70166D01*
X1233320Y70203D01*
X1233413Y70352D01*
X1233506Y70500D01*
X1233635Y70851D01*
X1233746Y71240D01*
X1233802Y71629D01*
X1233839Y72000D01*
X1233857Y72148D01*
Y72277D01*
X1233876Y72388D01*
Y72481D01*
Y72537D01*
Y72555D01*
Y72814D01*
X1233857Y73074D01*
X1233820Y73296D01*
X1233783Y73518D01*
X1233746Y73703D01*
X1233709Y73870D01*
X1233598Y74166D01*
X1233506Y74388D01*
X1233413Y74536D01*
X1233357Y74629D01*
X1233339Y74666D01*
X1233117Y74888D01*
X1232876Y75036D01*
X1232635Y75147D01*
X1232413Y75240D01*
X1232191Y75277D01*
X1232024Y75296D01*
X1231913Y75314D01*
X1231876D01*
X1231635Y75296D01*
X1231413Y75258D01*
X1231228Y75203D01*
X1231061Y75129D01*
X1230932Y75055D01*
X1230839Y74999D01*
X1230784Y74962D01*
X1230765Y74944D01*
X1230617Y74796D01*
X1230487Y74629D01*
X1230395Y74444D01*
X1230302Y74277D01*
X1230247Y74110D01*
X1230210Y73981D01*
X1230191Y73907D01*
Y73870D01*
X1227765Y74314D01*
X1227951Y74833D01*
X1228173Y75277D01*
X1228413Y75647D01*
X1228654Y75962D01*
X1228876Y76203D01*
X1229043Y76370D01*
X1229117Y76425D01*
X1229173Y76462D01*
X1229191Y76499D01*
X1229210D01*
X1229617Y76740D01*
X1230061Y76925D01*
X1230506Y77055D01*
X1230932Y77147D01*
X1231135Y77184D01*
X1231321Y77203D01*
X1231487Y77221D01*
X1231635D01*
X1231747Y77240D01*
X1231913D01*
X1232283Y77221D01*
D02*
G37*
G36*
X1147292Y71148D02*
X1147274Y70685D01*
X1147237Y70278D01*
X1147181Y69926D01*
X1147126Y69629D01*
X1147070Y69389D01*
X1147014Y69222D01*
X1146977Y69130D01*
X1146959Y69092D01*
X1146811Y68833D01*
X1146644Y68593D01*
X1146478Y68407D01*
X1146292Y68241D01*
X1146144Y68111D01*
X1145996Y68018D01*
X1145922Y67963D01*
X1145885Y67944D01*
X1145607Y67815D01*
X1145311Y67704D01*
X1145033Y67630D01*
X1144755Y67593D01*
X1144533Y67555D01*
X1144367Y67537D01*
X1144200D01*
X1143867Y67555D01*
X1143552Y67593D01*
X1143256Y67667D01*
X1142996Y67741D01*
X1142774Y67815D01*
X1142608Y67889D01*
X1142496Y67926D01*
X1142459Y67944D01*
X1142163Y68111D01*
X1141904Y68315D01*
X1141663Y68500D01*
X1141478Y68704D01*
X1141311Y68870D01*
X1141200Y69000D01*
X1141126Y69092D01*
X1141108Y69130D01*
Y67741D01*
X1138830D01*
Y77036D01*
X1141293D01*
Y73110D01*
Y72759D01*
Y72444D01*
X1141311Y72148D01*
X1141330Y71888D01*
Y71648D01*
X1141348Y71444D01*
X1141367Y71277D01*
X1141385Y71111D01*
X1141404Y70981D01*
X1141423Y70889D01*
X1141441Y70796D01*
Y70722D01*
X1141478Y70629D01*
Y70611D01*
X1141552Y70426D01*
X1141663Y70259D01*
X1141774Y70129D01*
X1141885Y70000D01*
X1141997Y69889D01*
X1142089Y69815D01*
X1142145Y69777D01*
X1142163Y69759D01*
X1142348Y69648D01*
X1142552Y69574D01*
X1142737Y69500D01*
X1142922Y69463D01*
X1143071Y69444D01*
X1143182Y69426D01*
X1143293D01*
X1143496Y69444D01*
X1143663Y69463D01*
X1143830Y69500D01*
X1143959Y69555D01*
X1144070Y69592D01*
X1144145Y69629D01*
X1144200Y69648D01*
X1144219Y69666D01*
X1144348Y69777D01*
X1144441Y69889D01*
X1144533Y70000D01*
X1144589Y70111D01*
X1144644Y70222D01*
X1144681Y70296D01*
X1144700Y70352D01*
Y70370D01*
X1144718Y70463D01*
X1144737Y70592D01*
X1144755Y70759D01*
X1144774Y70926D01*
X1144793Y71314D01*
X1144811Y71740D01*
X1144830Y72129D01*
Y72296D01*
Y72444D01*
Y72573D01*
Y72666D01*
Y72740D01*
Y72759D01*
Y77036D01*
X1147292D01*
Y71148D01*
D02*
G37*
G36*
X1179900Y77221D02*
X1180215Y77184D01*
X1180530Y77110D01*
X1180807Y77036D01*
X1181085Y76943D01*
X1181326Y76832D01*
X1181566Y76703D01*
X1181770Y76592D01*
X1181955Y76462D01*
X1182122Y76332D01*
X1182270Y76221D01*
X1182381Y76129D01*
X1182474Y76055D01*
X1182548Y75981D01*
X1182585Y75944D01*
X1182604Y75925D01*
X1182807Y75666D01*
X1182992Y75388D01*
X1183159Y75110D01*
X1183307Y74814D01*
X1183418Y74499D01*
X1183511Y74203D01*
X1183659Y73629D01*
X1183714Y73351D01*
X1183752Y73110D01*
X1183770Y72888D01*
X1183789Y72703D01*
X1183807Y72537D01*
Y72407D01*
Y72333D01*
Y72314D01*
X1183789Y71962D01*
X1183770Y71611D01*
X1183714Y71296D01*
X1183659Y71000D01*
X1183603Y70703D01*
X1183511Y70444D01*
X1183437Y70203D01*
X1183344Y69981D01*
X1183270Y69777D01*
X1183177Y69611D01*
X1183103Y69463D01*
X1183048Y69333D01*
X1182974Y69241D01*
X1182937Y69166D01*
X1182918Y69130D01*
X1182900Y69111D01*
X1182659Y68833D01*
X1182418Y68593D01*
X1182141Y68389D01*
X1181844Y68204D01*
X1181548Y68056D01*
X1181252Y67926D01*
X1180956Y67815D01*
X1180659Y67741D01*
X1180400Y67667D01*
X1180141Y67630D01*
X1179900Y67593D01*
X1179696Y67555D01*
X1179530D01*
X1179419Y67537D01*
X1179307D01*
X1178771Y67574D01*
X1178271Y67648D01*
X1177845Y67759D01*
X1177474Y67889D01*
X1177308Y67963D01*
X1177178Y68018D01*
X1177048Y68074D01*
X1176956Y68130D01*
X1176882Y68185D01*
X1176808Y68204D01*
X1176789Y68241D01*
X1176771D01*
X1176419Y68537D01*
X1176104Y68852D01*
X1175845Y69204D01*
X1175641Y69537D01*
X1175475Y69833D01*
X1175419Y69963D01*
X1175363Y70074D01*
X1175326Y70166D01*
X1175289Y70240D01*
X1175271Y70278D01*
Y70296D01*
X1177715Y70703D01*
X1177808Y70463D01*
X1177900Y70240D01*
X1177993Y70074D01*
X1178104Y69926D01*
X1178178Y69815D01*
X1178252Y69741D01*
X1178308Y69703D01*
X1178326Y69685D01*
X1178474Y69574D01*
X1178641Y69500D01*
X1178808Y69444D01*
X1178956Y69407D01*
X1179085Y69389D01*
X1179196Y69370D01*
X1179289D01*
X1179585Y69389D01*
X1179863Y69463D01*
X1180122Y69555D01*
X1180326Y69666D01*
X1180493Y69777D01*
X1180604Y69870D01*
X1180696Y69944D01*
X1180715Y69963D01*
X1180900Y70203D01*
X1181030Y70481D01*
X1181141Y70777D01*
X1181215Y71037D01*
X1181252Y71296D01*
X1181270Y71481D01*
X1181289Y71555D01*
Y71611D01*
Y71648D01*
Y71666D01*
X1175141D01*
Y72185D01*
X1175178Y72648D01*
X1175234Y73092D01*
X1175308Y73499D01*
X1175400Y73888D01*
X1175493Y74222D01*
X1175604Y74536D01*
X1175715Y74814D01*
X1175826Y75055D01*
X1175938Y75277D01*
X1176030Y75444D01*
X1176123Y75592D01*
X1176197Y75703D01*
X1176252Y75795D01*
X1176289Y75833D01*
X1176308Y75851D01*
X1176530Y76092D01*
X1176789Y76314D01*
X1177048Y76499D01*
X1177308Y76647D01*
X1177586Y76795D01*
X1177863Y76906D01*
X1178122Y76999D01*
X1178382Y77073D01*
X1178622Y77129D01*
X1178845Y77166D01*
X1179048Y77203D01*
X1179215Y77221D01*
X1179363Y77240D01*
X1179567D01*
X1179900Y77221D01*
D02*
G37*
G36*
X1200009D02*
X1200342Y77166D01*
X1200639Y77092D01*
X1200935Y76999D01*
X1201213Y76869D01*
X1201453Y76740D01*
X1201694Y76592D01*
X1201898Y76462D01*
X1202083Y76314D01*
X1202250Y76166D01*
X1202398Y76036D01*
X1202509Y75907D01*
X1202601Y75814D01*
X1202675Y75740D01*
X1202712Y75684D01*
X1202731Y75666D01*
Y77036D01*
X1205008D01*
Y67741D01*
X1202546D01*
Y71926D01*
Y72203D01*
Y72462D01*
X1202527Y72703D01*
X1202509Y72907D01*
Y73110D01*
X1202490Y73277D01*
X1202472Y73444D01*
X1202453Y73573D01*
X1202416Y73796D01*
X1202398Y73944D01*
X1202361Y74036D01*
Y74055D01*
X1202287Y74259D01*
X1202176Y74462D01*
X1202064Y74610D01*
X1201953Y74759D01*
X1201842Y74851D01*
X1201750Y74944D01*
X1201694Y74981D01*
X1201675Y74999D01*
X1201472Y75110D01*
X1201268Y75203D01*
X1201083Y75258D01*
X1200898Y75314D01*
X1200750Y75332D01*
X1200639Y75351D01*
X1200527D01*
X1200342Y75332D01*
X1200176Y75314D01*
X1200046Y75277D01*
X1199917Y75221D01*
X1199805Y75166D01*
X1199731Y75129D01*
X1199694Y75110D01*
X1199676Y75092D01*
X1199546Y74999D01*
X1199454Y74888D01*
X1199287Y74666D01*
X1199231Y74555D01*
X1199194Y74481D01*
X1199157Y74425D01*
Y74407D01*
X1199120Y74314D01*
X1199102Y74203D01*
X1199065Y73925D01*
X1199028Y73592D01*
X1199009Y73277D01*
X1198991Y72962D01*
Y72833D01*
Y72703D01*
Y72611D01*
Y72537D01*
Y72481D01*
Y72462D01*
Y67741D01*
X1196528D01*
Y73499D01*
Y73888D01*
X1196546Y74203D01*
X1196565Y74499D01*
X1196602Y74721D01*
X1196620Y74907D01*
X1196658Y75036D01*
X1196676Y75129D01*
Y75147D01*
X1196732Y75370D01*
X1196806Y75555D01*
X1196880Y75740D01*
X1196972Y75888D01*
X1197046Y76018D01*
X1197102Y76110D01*
X1197139Y76166D01*
X1197158Y76184D01*
X1197306Y76351D01*
X1197472Y76499D01*
X1197639Y76629D01*
X1197806Y76740D01*
X1197954Y76832D01*
X1198083Y76888D01*
X1198157Y76925D01*
X1198194Y76943D01*
X1198454Y77036D01*
X1198713Y77110D01*
X1198954Y77166D01*
X1199176Y77203D01*
X1199380Y77221D01*
X1199546Y77240D01*
X1199676D01*
X1200009Y77221D01*
D02*
G37*
G36*
X1189066D02*
X1189399Y77166D01*
X1189695Y77092D01*
X1189992Y76999D01*
X1190269Y76869D01*
X1190510Y76740D01*
X1190751Y76592D01*
X1190954Y76462D01*
X1191140Y76314D01*
X1191306Y76166D01*
X1191454Y76036D01*
X1191565Y75907D01*
X1191658Y75814D01*
X1191732Y75740D01*
X1191769Y75684D01*
X1191788Y75666D01*
Y77036D01*
X1194065D01*
Y67741D01*
X1191602D01*
Y71926D01*
Y72203D01*
Y72462D01*
X1191584Y72703D01*
X1191565Y72907D01*
Y73110D01*
X1191547Y73277D01*
X1191528Y73444D01*
X1191510Y73573D01*
X1191473Y73796D01*
X1191454Y73944D01*
X1191417Y74036D01*
Y74055D01*
X1191343Y74259D01*
X1191232Y74462D01*
X1191121Y74610D01*
X1191010Y74759D01*
X1190899Y74851D01*
X1190806Y74944D01*
X1190751Y74981D01*
X1190732Y74999D01*
X1190529Y75110D01*
X1190325Y75203D01*
X1190140Y75258D01*
X1189955Y75314D01*
X1189806Y75332D01*
X1189695Y75351D01*
X1189584D01*
X1189399Y75332D01*
X1189232Y75314D01*
X1189103Y75277D01*
X1188973Y75221D01*
X1188862Y75166D01*
X1188788Y75129D01*
X1188751Y75110D01*
X1188732Y75092D01*
X1188603Y74999D01*
X1188510Y74888D01*
X1188344Y74666D01*
X1188288Y74555D01*
X1188251Y74481D01*
X1188214Y74425D01*
Y74407D01*
X1188177Y74314D01*
X1188158Y74203D01*
X1188121Y73925D01*
X1188084Y73592D01*
X1188066Y73277D01*
X1188047Y72962D01*
Y72833D01*
Y72703D01*
Y72611D01*
Y72537D01*
Y72481D01*
Y72462D01*
Y67741D01*
X1185585D01*
Y73499D01*
Y73888D01*
X1185603Y74203D01*
X1185622Y74499D01*
X1185659Y74721D01*
X1185677Y74907D01*
X1185714Y75036D01*
X1185733Y75129D01*
Y75147D01*
X1185788Y75370D01*
X1185862Y75555D01*
X1185936Y75740D01*
X1186029Y75888D01*
X1186103Y76018D01*
X1186159Y76110D01*
X1186196Y76166D01*
X1186214Y76184D01*
X1186362Y76351D01*
X1186529Y76499D01*
X1186696Y76629D01*
X1186862Y76740D01*
X1187010Y76832D01*
X1187140Y76888D01*
X1187214Y76925D01*
X1187251Y76943D01*
X1187510Y77036D01*
X1187770Y77110D01*
X1188010Y77166D01*
X1188232Y77203D01*
X1188436Y77221D01*
X1188603Y77240D01*
X1188732D01*
X1189066Y77221D01*
D02*
G37*
G36*
X1173141Y67741D02*
X1170679D01*
Y80554D01*
X1173141D01*
Y67741D01*
D02*
G37*
G36*
X1263002Y77221D02*
X1263465Y77147D01*
X1263891Y77055D01*
X1264262Y76943D01*
X1264410Y76869D01*
X1264558Y76814D01*
X1264688Y76777D01*
X1264780Y76721D01*
X1264873Y76684D01*
X1264928Y76647D01*
X1264965Y76629D01*
X1264984D01*
X1265373Y76370D01*
X1265706Y76092D01*
X1266002Y75795D01*
X1266243Y75518D01*
X1266428Y75258D01*
X1266576Y75055D01*
X1266632Y74981D01*
X1266650Y74925D01*
X1266687Y74888D01*
Y74870D01*
X1266891Y74444D01*
X1267021Y74018D01*
X1267132Y73629D01*
X1267206Y73277D01*
X1267243Y72962D01*
X1267261Y72833D01*
Y72722D01*
X1267280Y72648D01*
Y72574D01*
Y72537D01*
Y72518D01*
X1267261Y71944D01*
X1267187Y71407D01*
X1267095Y70944D01*
X1267039Y70740D01*
X1266984Y70555D01*
X1266928Y70389D01*
X1266872Y70241D01*
X1266817Y70111D01*
X1266780Y70000D01*
X1266743Y69907D01*
X1266706Y69852D01*
X1266687Y69815D01*
Y69796D01*
X1266428Y69407D01*
X1266150Y69074D01*
X1265854Y68778D01*
X1265576Y68537D01*
X1265317Y68352D01*
X1265113Y68222D01*
X1265039Y68167D01*
X1264984Y68130D01*
X1264947Y68111D01*
X1264928D01*
X1264484Y67926D01*
X1264058Y67778D01*
X1263651Y67685D01*
X1263262Y67611D01*
X1262947Y67574D01*
X1262817Y67556D01*
X1262706D01*
X1262614Y67537D01*
X1262484D01*
X1262095Y67556D01*
X1261743Y67593D01*
X1261392Y67667D01*
X1261077Y67759D01*
X1260762Y67852D01*
X1260484Y67963D01*
X1260225Y68092D01*
X1259984Y68222D01*
X1259781Y68352D01*
X1259595Y68481D01*
X1259429Y68593D01*
X1259299Y68685D01*
X1259188Y68778D01*
X1259114Y68852D01*
X1259077Y68889D01*
X1259059Y68907D01*
X1258818Y69185D01*
X1258614Y69463D01*
X1258429Y69741D01*
X1258262Y70037D01*
X1258133Y70333D01*
X1258022Y70629D01*
X1257929Y70907D01*
X1257855Y71185D01*
X1257799Y71425D01*
X1257762Y71666D01*
X1257725Y71870D01*
X1257707Y72055D01*
X1257688Y72203D01*
Y72314D01*
Y72388D01*
Y72407D01*
X1257707Y72796D01*
X1257744Y73166D01*
X1257818Y73499D01*
X1257892Y73833D01*
X1258003Y74129D01*
X1258114Y74425D01*
X1258244Y74685D01*
X1258355Y74925D01*
X1258484Y75129D01*
X1258614Y75332D01*
X1258725Y75481D01*
X1258836Y75629D01*
X1258910Y75721D01*
X1258984Y75814D01*
X1259022Y75851D01*
X1259040Y75869D01*
X1259299Y76110D01*
X1259577Y76314D01*
X1259855Y76499D01*
X1260151Y76666D01*
X1260447Y76795D01*
X1260725Y76906D01*
X1261003Y76999D01*
X1261281Y77073D01*
X1261521Y77129D01*
X1261762Y77166D01*
X1261966Y77203D01*
X1262151Y77221D01*
X1262299Y77240D01*
X1262503D01*
X1263002Y77221D01*
D02*
G37*
G36*
X1247523Y80610D02*
X1247837Y80591D01*
X1248134Y80536D01*
X1248411Y80480D01*
X1248671Y80406D01*
X1248911Y80332D01*
X1249115Y80239D01*
X1249300Y80165D01*
X1249485Y80073D01*
X1249633Y79980D01*
X1249745Y79906D01*
X1249856Y79832D01*
X1249930Y79777D01*
X1249985Y79721D01*
X1250022Y79703D01*
X1250041Y79684D01*
X1250208Y79499D01*
X1250374Y79314D01*
X1250504Y79110D01*
X1250615Y78925D01*
X1250800Y78517D01*
X1250911Y78147D01*
X1250985Y77814D01*
X1251004Y77666D01*
X1251022Y77554D01*
X1251041Y77443D01*
Y77369D01*
Y77332D01*
Y77314D01*
X1251022Y76999D01*
X1250967Y76721D01*
X1250911Y76444D01*
X1250819Y76221D01*
X1250744Y76018D01*
X1250689Y75888D01*
X1250633Y75795D01*
X1250615Y75758D01*
X1250430Y75518D01*
X1250208Y75296D01*
X1249985Y75110D01*
X1249745Y74944D01*
X1249541Y74833D01*
X1249374Y74740D01*
X1249263Y74685D01*
X1249245Y74666D01*
X1249226D01*
X1249615Y74462D01*
X1249948Y74259D01*
X1250226Y74036D01*
X1250448Y73814D01*
X1250633Y73611D01*
X1250763Y73462D01*
X1250837Y73351D01*
X1250856Y73333D01*
Y73314D01*
X1251022Y72981D01*
X1251152Y72648D01*
X1251226Y72314D01*
X1251300Y72018D01*
X1251337Y71777D01*
X1251356Y71574D01*
Y71500D01*
Y71444D01*
Y71407D01*
Y71389D01*
X1251337Y71037D01*
X1251300Y70722D01*
X1251226Y70407D01*
X1251133Y70129D01*
X1251041Y69852D01*
X1250930Y69611D01*
X1250800Y69389D01*
X1250670Y69185D01*
X1250541Y69018D01*
X1250411Y68852D01*
X1250300Y68722D01*
X1250208Y68611D01*
X1250115Y68518D01*
X1250041Y68463D01*
X1250004Y68426D01*
X1249985Y68407D01*
X1249763Y68241D01*
X1249522Y68111D01*
X1249282Y67981D01*
X1249041Y67889D01*
X1248560Y67722D01*
X1248097Y67611D01*
X1247875Y67574D01*
X1247689Y67556D01*
X1247523Y67537D01*
X1247374Y67519D01*
X1247245Y67500D01*
X1247078D01*
X1246726Y67519D01*
X1246412Y67556D01*
X1246097Y67611D01*
X1245801Y67667D01*
X1245541Y67759D01*
X1245301Y67852D01*
X1245060Y67944D01*
X1244856Y68056D01*
X1244671Y68167D01*
X1244523Y68259D01*
X1244375Y68352D01*
X1244264Y68444D01*
X1244171Y68500D01*
X1244116Y68555D01*
X1244079Y68593D01*
X1244060Y68611D01*
X1243856Y68833D01*
X1243690Y69055D01*
X1243523Y69296D01*
X1243393Y69537D01*
X1243282Y69778D01*
X1243190Y70018D01*
X1243060Y70481D01*
X1243005Y70685D01*
X1242968Y70870D01*
X1242949Y71055D01*
X1242931Y71203D01*
X1242912Y71333D01*
Y71425D01*
Y71481D01*
Y71500D01*
X1242931Y71888D01*
X1243005Y72240D01*
X1243079Y72574D01*
X1243190Y72851D01*
X1243282Y73074D01*
X1243375Y73240D01*
X1243449Y73351D01*
X1243467Y73388D01*
X1243690Y73685D01*
X1243949Y73944D01*
X1244227Y74166D01*
X1244486Y74333D01*
X1244727Y74481D01*
X1244912Y74592D01*
X1244986Y74629D01*
X1245041Y74647D01*
X1245079Y74666D01*
X1245097D01*
X1244801Y74814D01*
X1244541Y74981D01*
X1244319Y75147D01*
X1244134Y75332D01*
X1243986Y75481D01*
X1243893Y75610D01*
X1243819Y75684D01*
X1243801Y75721D01*
X1243634Y75999D01*
X1243523Y76277D01*
X1243430Y76536D01*
X1243375Y76777D01*
X1243338Y76999D01*
X1243319Y77166D01*
Y77277D01*
Y77295D01*
Y77314D01*
X1243338Y77573D01*
X1243356Y77832D01*
X1243486Y78295D01*
X1243634Y78684D01*
X1243819Y79036D01*
X1244023Y79314D01*
X1244097Y79425D01*
X1244171Y79517D01*
X1244245Y79591D01*
X1244301Y79647D01*
X1244319Y79665D01*
X1244338Y79684D01*
X1244541Y79851D01*
X1244745Y79999D01*
X1244986Y80128D01*
X1245208Y80239D01*
X1245689Y80406D01*
X1246152Y80517D01*
X1246356Y80554D01*
X1246560Y80573D01*
X1246726Y80591D01*
X1246893Y80610D01*
X1247004Y80628D01*
X1247189D01*
X1247523Y80610D01*
D02*
G37*
G36*
X1148205Y100202D02*
X1148446Y99813D01*
X1148705Y99443D01*
X1148965Y99147D01*
X1149187Y98906D01*
X1149390Y98721D01*
X1149465Y98647D01*
X1149520Y98591D01*
X1149557Y98573D01*
X1149576Y98554D01*
X1149983Y98258D01*
X1150372Y97999D01*
X1150724Y97795D01*
X1151039Y97647D01*
X1151298Y97536D01*
X1151483Y97443D01*
X1151557Y97425D01*
X1151612Y97406D01*
X1151631Y97388D01*
X1151649D01*
Y95166D01*
X1150983Y95425D01*
X1150390Y95703D01*
X1150113Y95851D01*
X1149853Y96018D01*
X1149613Y96166D01*
X1149390Y96314D01*
X1149187Y96462D01*
X1149002Y96592D01*
X1148854Y96703D01*
X1148724Y96814D01*
X1148613Y96906D01*
X1148539Y96962D01*
X1148502Y96999D01*
X1148483Y97017D01*
Y87741D01*
X1146021D01*
Y100628D01*
X1148020D01*
X1148205Y100202D01*
D02*
G37*
G36*
X1160408Y87741D02*
X1157612D01*
X1153057Y100554D01*
X1155816D01*
X1158945Y91074D01*
X1162204Y100554D01*
X1165000D01*
X1160408Y87741D01*
D02*
G37*
G36*
X1141817D02*
X1139354D01*
Y90203D01*
X1141817D01*
Y87741D01*
D02*
G37*
G36*
X1133540Y100610D02*
X1133855Y100573D01*
X1134170Y100499D01*
X1134448Y100425D01*
X1134707Y100314D01*
X1134948Y100202D01*
X1135151Y100091D01*
X1135355Y99962D01*
X1135522Y99832D01*
X1135688Y99721D01*
X1135818Y99610D01*
X1135910Y99499D01*
X1136003Y99425D01*
X1136059Y99351D01*
X1136096Y99314D01*
X1136114Y99295D01*
X1136336Y98980D01*
X1136522Y98610D01*
X1136688Y98221D01*
X1136836Y97814D01*
X1136947Y97388D01*
X1137058Y96944D01*
X1137132Y96518D01*
X1137207Y96092D01*
X1137244Y95684D01*
X1137281Y95314D01*
X1137318Y94962D01*
X1137336Y94666D01*
X1137355Y94425D01*
Y94240D01*
Y94166D01*
Y94110D01*
Y94092D01*
Y94073D01*
X1137336Y93407D01*
X1137299Y92796D01*
X1137244Y92222D01*
X1137169Y91703D01*
X1137095Y91240D01*
X1137003Y90815D01*
X1136892Y90444D01*
X1136781Y90111D01*
X1136688Y89833D01*
X1136577Y89574D01*
X1136484Y89370D01*
X1136392Y89204D01*
X1136336Y89092D01*
X1136281Y89000D01*
X1136244Y88944D01*
X1136225Y88926D01*
X1136003Y88666D01*
X1135762Y88463D01*
X1135522Y88259D01*
X1135262Y88111D01*
X1135022Y87963D01*
X1134762Y87852D01*
X1134522Y87759D01*
X1134281Y87685D01*
X1134059Y87611D01*
X1133855Y87574D01*
X1133670Y87537D01*
X1133522Y87519D01*
X1133392D01*
X1133281Y87500D01*
X1133207D01*
X1132874Y87519D01*
X1132559Y87556D01*
X1132244Y87630D01*
X1131966Y87704D01*
X1131707Y87796D01*
X1131466Y87907D01*
X1131263Y88037D01*
X1131059Y88167D01*
X1130892Y88278D01*
X1130726Y88407D01*
X1130596Y88518D01*
X1130485Y88611D01*
X1130411Y88685D01*
X1130355Y88759D01*
X1130318Y88796D01*
X1130300Y88815D01*
X1130078Y89129D01*
X1129893Y89500D01*
X1129707Y89889D01*
X1129578Y90315D01*
X1129448Y90740D01*
X1129355Y91166D01*
X1129263Y91611D01*
X1129189Y92037D01*
X1129152Y92444D01*
X1129115Y92814D01*
X1129078Y93166D01*
X1129059Y93462D01*
X1129041Y93703D01*
Y93888D01*
Y93962D01*
Y94018D01*
Y94036D01*
Y94055D01*
X1129059Y94721D01*
X1129096Y95332D01*
X1129152Y95888D01*
X1129244Y96406D01*
X1129337Y96888D01*
X1129430Y97314D01*
X1129559Y97703D01*
X1129670Y98036D01*
X1129781Y98351D01*
X1129893Y98591D01*
X1130004Y98814D01*
X1130096Y98999D01*
X1130189Y99128D01*
X1130244Y99221D01*
X1130281Y99277D01*
X1130300Y99295D01*
X1130504Y99536D01*
X1130726Y99740D01*
X1130966Y99906D01*
X1131207Y100073D01*
X1131448Y100202D01*
X1131689Y100295D01*
X1131911Y100388D01*
X1132151Y100462D01*
X1132374Y100517D01*
X1132559Y100554D01*
X1132744Y100591D01*
X1132892Y100610D01*
X1133022Y100628D01*
X1133207D01*
X1133540Y100610D01*
D02*
G37*
%LPC*%
G36*
X1179641Y45764D02*
X1179604D01*
X1179270Y45726D01*
X1178993Y45652D01*
X1178734Y45541D01*
X1178530Y45412D01*
X1178345Y45282D01*
X1178233Y45171D01*
X1178141Y45097D01*
X1178122Y45060D01*
X1178011Y44912D01*
X1177919Y44764D01*
X1177771Y44412D01*
X1177678Y44023D01*
X1177604Y43653D01*
X1177567Y43301D01*
X1177548Y43153D01*
X1177530Y43023D01*
Y42912D01*
Y42838D01*
Y42782D01*
Y42764D01*
Y42486D01*
X1177548Y42245D01*
X1177586Y42005D01*
X1177623Y41782D01*
X1177715Y41412D01*
X1177826Y41116D01*
X1177937Y40875D01*
X1178030Y40708D01*
X1178104Y40616D01*
X1178122Y40579D01*
X1178345Y40357D01*
X1178585Y40190D01*
X1178808Y40060D01*
X1179030Y39986D01*
X1179215Y39931D01*
X1179382Y39912D01*
X1179474Y39894D01*
X1179511D01*
X1179715Y39912D01*
X1179900Y39931D01*
X1180233Y40042D01*
X1180530Y40190D01*
X1180770Y40375D01*
X1180974Y40560D01*
X1181122Y40708D01*
X1181196Y40820D01*
X1181233Y40838D01*
Y40857D01*
X1181381Y41153D01*
X1181492Y41486D01*
X1181566Y41838D01*
X1181622Y42171D01*
X1181659Y42486D01*
Y42634D01*
X1181678Y42745D01*
Y42856D01*
Y42930D01*
Y42968D01*
Y42986D01*
X1181659Y43486D01*
X1181585Y43912D01*
X1181492Y44264D01*
X1181381Y44560D01*
X1181289Y44782D01*
X1181196Y44949D01*
X1181122Y45041D01*
X1181104Y45078D01*
X1180863Y45301D01*
X1180622Y45467D01*
X1180363Y45597D01*
X1180122Y45671D01*
X1179919Y45726D01*
X1179752Y45745D01*
X1179641Y45764D01*
D02*
G37*
G36*
X1223821Y45764D02*
X1223784D01*
X1223451Y45726D01*
X1223173Y45652D01*
X1222914Y45541D01*
X1222692Y45412D01*
X1222525Y45282D01*
X1222396Y45171D01*
X1222303Y45097D01*
X1222284Y45060D01*
X1222081Y44764D01*
X1221933Y44430D01*
X1221840Y44078D01*
X1221766Y43727D01*
X1221729Y43412D01*
X1221711Y43264D01*
X1221692Y43153D01*
Y43042D01*
Y42968D01*
Y42930D01*
Y42912D01*
X1221711Y42431D01*
X1221785Y42005D01*
X1221896Y41653D01*
X1222007Y41357D01*
X1222118Y41134D01*
X1222229Y40968D01*
X1222303Y40875D01*
X1222322Y40838D01*
X1222562Y40597D01*
X1222822Y40431D01*
X1223062Y40301D01*
X1223303Y40227D01*
X1223525Y40171D01*
X1223692Y40153D01*
X1223803Y40135D01*
X1223840D01*
X1224136Y40171D01*
X1224414Y40246D01*
X1224655Y40357D01*
X1224858Y40486D01*
X1225025Y40597D01*
X1225136Y40708D01*
X1225229Y40782D01*
X1225247Y40820D01*
X1225432Y41116D01*
X1225562Y41449D01*
X1225673Y41801D01*
X1225729Y42153D01*
X1225766Y42468D01*
X1225784Y42616D01*
Y42727D01*
X1225803Y42819D01*
Y42912D01*
Y42949D01*
Y42968D01*
X1225784Y43467D01*
X1225710Y43893D01*
X1225618Y44245D01*
X1225525Y44541D01*
X1225414Y44764D01*
X1225340Y44930D01*
X1225266Y45023D01*
X1225247Y45060D01*
X1225025Y45301D01*
X1224784Y45467D01*
X1224525Y45597D01*
X1224303Y45671D01*
X1224099Y45726D01*
X1223932Y45745D01*
X1223821Y45764D01*
D02*
G37*
G36*
X1153977Y45652D02*
X1153884D01*
X1153532Y45615D01*
X1153218Y45541D01*
X1152958Y45412D01*
X1152718Y45282D01*
X1152533Y45152D01*
X1152384Y45023D01*
X1152310Y44949D01*
X1152273Y44912D01*
X1152051Y44616D01*
X1151884Y44264D01*
X1151773Y43912D01*
X1151681Y43579D01*
X1151644Y43282D01*
X1151625Y43134D01*
Y43023D01*
X1151607Y42930D01*
Y42856D01*
Y42819D01*
Y42801D01*
X1151644Y42319D01*
X1151718Y41875D01*
X1151810Y41523D01*
X1151940Y41208D01*
X1152070Y40986D01*
X1152162Y40801D01*
X1152236Y40708D01*
X1152273Y40671D01*
X1152533Y40431D01*
X1152792Y40245D01*
X1153070Y40134D01*
X1153329Y40042D01*
X1153551Y39986D01*
X1153718Y39968D01*
X1153792Y39949D01*
X1153884D01*
X1154236Y39986D01*
X1154551Y40060D01*
X1154829Y40171D01*
X1155051Y40320D01*
X1155254Y40449D01*
X1155403Y40560D01*
X1155477Y40634D01*
X1155514Y40671D01*
X1155736Y40968D01*
X1155884Y41319D01*
X1155995Y41671D01*
X1156088Y42023D01*
X1156125Y42319D01*
X1156143Y42449D01*
Y42579D01*
X1156162Y42671D01*
Y42745D01*
Y42782D01*
Y42801D01*
X1156125Y43282D01*
X1156051Y43708D01*
X1155958Y44078D01*
X1155828Y44375D01*
X1155717Y44597D01*
X1155606Y44782D01*
X1155532Y44875D01*
X1155514Y44912D01*
X1155254Y45152D01*
X1154977Y45338D01*
X1154699Y45467D01*
X1154440Y45560D01*
X1154218Y45615D01*
X1154051Y45634D01*
X1153977Y45652D01*
D02*
G37*
G36*
X1260207Y45708D02*
X1260170D01*
X1259855Y45671D01*
X1259577Y45597D01*
X1259336Y45486D01*
X1259133Y45356D01*
X1258966Y45208D01*
X1258836Y45097D01*
X1258744Y45023D01*
X1258725Y44986D01*
X1258521Y44689D01*
X1258373Y44356D01*
X1258281Y43986D01*
X1258207Y43634D01*
X1258170Y43319D01*
X1258151Y43190D01*
X1258133Y43060D01*
Y42968D01*
Y42893D01*
Y42838D01*
Y42819D01*
Y42542D01*
X1258151Y42282D01*
X1258188Y42042D01*
X1258225Y41820D01*
X1258262Y41616D01*
X1258318Y41431D01*
X1258373Y41264D01*
X1258410Y41116D01*
X1258521Y40875D01*
X1258614Y40708D01*
X1258688Y40616D01*
X1258707Y40579D01*
X1258929Y40357D01*
X1259170Y40190D01*
X1259410Y40060D01*
X1259632Y39986D01*
X1259836Y39931D01*
X1259984Y39912D01*
X1260095Y39894D01*
X1260133D01*
X1260447Y39931D01*
X1260743Y40005D01*
X1261003Y40135D01*
X1261206Y40264D01*
X1261392Y40394D01*
X1261521Y40523D01*
X1261595Y40597D01*
X1261632Y40634D01*
X1261743Y40782D01*
X1261836Y40949D01*
X1261984Y41301D01*
X1262095Y41690D01*
X1262169Y42079D01*
X1262206Y42412D01*
X1262225Y42560D01*
Y42690D01*
X1262243Y42801D01*
Y42875D01*
Y42930D01*
Y42949D01*
X1262225Y43430D01*
X1262151Y43838D01*
X1262058Y44190D01*
X1261947Y44486D01*
X1261854Y44708D01*
X1261762Y44875D01*
X1261688Y44967D01*
X1261669Y45004D01*
X1261429Y45245D01*
X1261188Y45412D01*
X1260929Y45541D01*
X1260688Y45615D01*
X1260484Y45671D01*
X1260318Y45689D01*
X1260207Y45708D01*
D02*
G37*
G36*
X1177382Y26388D02*
X1177345D01*
X1177011Y26351D01*
X1176734Y26277D01*
X1176475Y26165D01*
X1176271Y26036D01*
X1176086Y25906D01*
X1175975Y25795D01*
X1175882Y25721D01*
X1175863Y25684D01*
X1175752Y25536D01*
X1175660Y25388D01*
X1175512Y25036D01*
X1175419Y24647D01*
X1175345Y24277D01*
X1175308Y23925D01*
X1175289Y23777D01*
X1175271Y23647D01*
Y23536D01*
Y23462D01*
Y23407D01*
Y23388D01*
Y23110D01*
X1175289Y22870D01*
X1175326Y22629D01*
X1175363Y22407D01*
X1175456Y22036D01*
X1175567Y21740D01*
X1175678Y21499D01*
X1175771Y21333D01*
X1175845Y21240D01*
X1175863Y21203D01*
X1176086Y20981D01*
X1176326Y20814D01*
X1176548Y20685D01*
X1176771Y20610D01*
X1176956Y20555D01*
X1177122Y20536D01*
X1177215Y20518D01*
X1177252D01*
X1177456Y20536D01*
X1177641Y20555D01*
X1177974Y20666D01*
X1178271Y20814D01*
X1178511Y20999D01*
X1178715Y21184D01*
X1178863Y21333D01*
X1178937Y21444D01*
X1178974Y21462D01*
Y21481D01*
X1179122Y21777D01*
X1179233Y22110D01*
X1179307Y22462D01*
X1179363Y22796D01*
X1179400Y23110D01*
Y23258D01*
X1179419Y23370D01*
Y23481D01*
Y23555D01*
Y23592D01*
Y23610D01*
X1179400Y24110D01*
X1179326Y24536D01*
X1179233Y24888D01*
X1179122Y25184D01*
X1179030Y25406D01*
X1178937Y25573D01*
X1178863Y25666D01*
X1178845Y25703D01*
X1178604Y25925D01*
X1178363Y26091D01*
X1178104Y26221D01*
X1177863Y26295D01*
X1177660Y26351D01*
X1177493Y26369D01*
X1177382Y26388D01*
D02*
G37*
G36*
X1148940D02*
X1148903D01*
X1148570Y26351D01*
X1148292Y26277D01*
X1148033Y26165D01*
X1147811Y26036D01*
X1147644Y25906D01*
X1147514Y25795D01*
X1147422Y25721D01*
X1147403Y25684D01*
X1147200Y25388D01*
X1147052Y25055D01*
X1146959Y24703D01*
X1146885Y24351D01*
X1146848Y24036D01*
X1146829Y23888D01*
X1146811Y23777D01*
Y23666D01*
Y23592D01*
Y23555D01*
Y23536D01*
X1146829Y23055D01*
X1146903Y22629D01*
X1147014Y22277D01*
X1147126Y21981D01*
X1147237Y21759D01*
X1147348Y21592D01*
X1147422Y21499D01*
X1147440Y21462D01*
X1147681Y21222D01*
X1147940Y21055D01*
X1148181Y20925D01*
X1148422Y20851D01*
X1148644Y20796D01*
X1148811Y20777D01*
X1148922Y20759D01*
X1148959D01*
X1149255Y20796D01*
X1149533Y20870D01*
X1149773Y20981D01*
X1149977Y21110D01*
X1150144Y21222D01*
X1150255Y21333D01*
X1150348Y21407D01*
X1150366Y21444D01*
X1150551Y21740D01*
X1150681Y22073D01*
X1150792Y22425D01*
X1150847Y22777D01*
X1150884Y23092D01*
X1150903Y23240D01*
Y23351D01*
X1150921Y23444D01*
Y23536D01*
Y23573D01*
Y23592D01*
X1150903Y24092D01*
X1150829Y24518D01*
X1150736Y24869D01*
X1150644Y25166D01*
X1150533Y25388D01*
X1150459Y25554D01*
X1150385Y25647D01*
X1150366Y25684D01*
X1150144Y25925D01*
X1149903Y26091D01*
X1149644Y26221D01*
X1149422Y26295D01*
X1149218Y26351D01*
X1149051Y26369D01*
X1148940Y26388D01*
D02*
G37*
G36*
X1186603Y23221D02*
X1186584D01*
Y22721D01*
Y22425D01*
X1186603Y22166D01*
X1186622Y21962D01*
X1186640Y21796D01*
X1186659Y21685D01*
X1186677Y21592D01*
X1186696Y21555D01*
Y21536D01*
X1186751Y21370D01*
X1186844Y21203D01*
X1186936Y21073D01*
X1187029Y20944D01*
X1187122Y20851D01*
X1187196Y20777D01*
X1187251Y20740D01*
X1187270Y20722D01*
X1187492Y20573D01*
X1187732Y20481D01*
X1187936Y20407D01*
X1188140Y20351D01*
X1188307Y20314D01*
X1188436Y20296D01*
X1188547D01*
X1188751Y20314D01*
X1188955Y20351D01*
X1189121Y20407D01*
X1189251Y20481D01*
X1189380Y20555D01*
X1189455Y20610D01*
X1189510Y20648D01*
X1189529Y20666D01*
X1189658Y20814D01*
X1189751Y20962D01*
X1189806Y21110D01*
X1189843Y21259D01*
X1189881Y21370D01*
X1189899Y21462D01*
Y21536D01*
Y21555D01*
X1189881Y21740D01*
X1189825Y21907D01*
X1189751Y22055D01*
X1189658Y22184D01*
X1189584Y22277D01*
X1189510Y22351D01*
X1189455Y22388D01*
X1189436Y22407D01*
X1189288Y22481D01*
X1189103Y22573D01*
X1188881Y22647D01*
X1188658Y22703D01*
X1188436Y22759D01*
X1188270Y22796D01*
X1188195Y22814D01*
X1188140Y22833D01*
X1188103D01*
X1187732Y22907D01*
X1187436Y22981D01*
X1187159Y23055D01*
X1186955Y23110D01*
X1186788Y23166D01*
X1186677Y23184D01*
X1186603Y23221D01*
D02*
G37*
G36*
X1265817Y26388D02*
X1265687D01*
X1265410Y26369D01*
X1265169Y26295D01*
X1264947Y26203D01*
X1264762Y26110D01*
X1264613Y25999D01*
X1264502Y25906D01*
X1264428Y25832D01*
X1264410Y25814D01*
X1264243Y25591D01*
X1264095Y25332D01*
X1264002Y25055D01*
X1263928Y24795D01*
X1263891Y24573D01*
X1263873Y24369D01*
X1263854Y24295D01*
Y24258D01*
Y24221D01*
Y24203D01*
X1267521D01*
X1267502Y24555D01*
X1267447Y24869D01*
X1267372Y25147D01*
X1267261Y25369D01*
X1267169Y25554D01*
X1267076Y25684D01*
X1267021Y25777D01*
X1267002Y25795D01*
X1266798Y25999D01*
X1266576Y26147D01*
X1266354Y26240D01*
X1266150Y26314D01*
X1265965Y26351D01*
X1265817Y26388D01*
D02*
G37*
G36*
X1213063Y26388D02*
X1212934D01*
X1212656Y26369D01*
X1212415Y26295D01*
X1212193Y26202D01*
X1212008Y26110D01*
X1211860Y25999D01*
X1211749Y25906D01*
X1211674Y25832D01*
X1211656Y25814D01*
X1211489Y25591D01*
X1211341Y25332D01*
X1211249Y25055D01*
X1211175Y24795D01*
X1211137Y24573D01*
X1211119Y24369D01*
X1211100Y24295D01*
Y24258D01*
Y24221D01*
Y24203D01*
X1214767D01*
X1214748Y24555D01*
X1214693Y24869D01*
X1214619Y25147D01*
X1214508Y25369D01*
X1214415Y25554D01*
X1214322Y25684D01*
X1214267Y25777D01*
X1214248Y25795D01*
X1214045Y25999D01*
X1213822Y26147D01*
X1213600Y26240D01*
X1213397Y26314D01*
X1213211Y26351D01*
X1213063Y26388D01*
D02*
G37*
G36*
X1138404D02*
X1138275D01*
X1137997Y26369D01*
X1137756Y26295D01*
X1137534Y26202D01*
X1137349Y26110D01*
X1137201Y25999D01*
X1137090Y25906D01*
X1137016Y25832D01*
X1136997Y25814D01*
X1136830Y25591D01*
X1136682Y25332D01*
X1136590Y25055D01*
X1136516Y24795D01*
X1136479Y24573D01*
X1136460Y24369D01*
X1136442Y24295D01*
Y24258D01*
Y24221D01*
Y24203D01*
X1140108D01*
X1140089Y24555D01*
X1140034Y24869D01*
X1139960Y25147D01*
X1139849Y25369D01*
X1139756Y25554D01*
X1139663Y25684D01*
X1139608Y25777D01*
X1139589Y25795D01*
X1139386Y25999D01*
X1139164Y26147D01*
X1138941Y26240D01*
X1138738Y26314D01*
X1138552Y26351D01*
X1138404Y26388D01*
D02*
G37*
G36*
X1244486Y26388D02*
X1244449D01*
X1244134Y26351D01*
X1243838Y26277D01*
X1243597Y26165D01*
X1243375Y26036D01*
X1243208Y25906D01*
X1243097Y25795D01*
X1243005Y25721D01*
X1242986Y25684D01*
X1242875Y25536D01*
X1242782Y25388D01*
X1242634Y25017D01*
X1242542Y24647D01*
X1242468Y24258D01*
X1242431Y23925D01*
X1242412Y23758D01*
X1242394Y23629D01*
Y23518D01*
Y23444D01*
Y23388D01*
Y23370D01*
X1242412Y22870D01*
X1242486Y22425D01*
X1242579Y22055D01*
X1242690Y21759D01*
X1242801Y21518D01*
X1242894Y21351D01*
X1242968Y21259D01*
X1242986Y21222D01*
X1243227Y20981D01*
X1243467Y20814D01*
X1243708Y20685D01*
X1243930Y20611D01*
X1244134Y20555D01*
X1244282Y20536D01*
X1244393Y20518D01*
X1244430D01*
X1244615Y20536D01*
X1244801Y20555D01*
X1245134Y20666D01*
X1245412Y20814D01*
X1245652Y20999D01*
X1245838Y21166D01*
X1245967Y21314D01*
X1246041Y21425D01*
X1246078Y21444D01*
Y21462D01*
X1246152Y21592D01*
X1246208Y21740D01*
X1246319Y22073D01*
X1246393Y22444D01*
X1246430Y22796D01*
X1246467Y23110D01*
Y23240D01*
X1246486Y23370D01*
Y23462D01*
Y23555D01*
Y23592D01*
Y23610D01*
X1246467Y24092D01*
X1246393Y24518D01*
X1246301Y24869D01*
X1246189Y25166D01*
X1246097Y25388D01*
X1246004Y25554D01*
X1245930Y25647D01*
X1245912Y25684D01*
X1245671Y25925D01*
X1245430Y26091D01*
X1245190Y26221D01*
X1244949Y26295D01*
X1244764Y26351D01*
X1244597Y26369D01*
X1244486Y26388D01*
D02*
G37*
G36*
X1072726Y29628D02*
X1072652D01*
X1072485Y29610D01*
X1072337Y29591D01*
X1072207Y29536D01*
X1072096Y29480D01*
X1072004Y29424D01*
X1071930Y29387D01*
X1071893Y29350D01*
X1071874Y29332D01*
X1071763Y29202D01*
X1071652Y29036D01*
X1071559Y28850D01*
X1071467Y28665D01*
X1071411Y28480D01*
X1071356Y28332D01*
X1071337Y28239D01*
X1071319Y28221D01*
Y28202D01*
X1071282Y28036D01*
X1071245Y27832D01*
X1071208Y27591D01*
X1071171Y27351D01*
X1071133Y26851D01*
X1071115Y26332D01*
X1071096Y26091D01*
Y25851D01*
X1071078Y25647D01*
Y25462D01*
Y25314D01*
Y25184D01*
Y25110D01*
Y25092D01*
Y24684D01*
X1071096Y24295D01*
Y23944D01*
X1071115Y23629D01*
X1071133Y23333D01*
X1071152Y23073D01*
X1071189Y22833D01*
X1071208Y22629D01*
X1071226Y22444D01*
X1071263Y22295D01*
X1071282Y22166D01*
X1071300Y22055D01*
X1071319Y21981D01*
Y21907D01*
X1071337Y21888D01*
Y21870D01*
X1071411Y21610D01*
X1071504Y21407D01*
X1071596Y21222D01*
X1071671Y21092D01*
X1071745Y20981D01*
X1071819Y20907D01*
X1071856Y20870D01*
X1071874Y20851D01*
X1072004Y20759D01*
X1072133Y20685D01*
X1072263Y20648D01*
X1072393Y20610D01*
X1072485Y20592D01*
X1072578Y20573D01*
X1072652D01*
X1072819Y20592D01*
X1072967Y20610D01*
X1073096Y20666D01*
X1073207Y20722D01*
X1073300Y20759D01*
X1073374Y20814D01*
X1073411Y20833D01*
X1073430Y20851D01*
X1073541Y20981D01*
X1073652Y21147D01*
X1073744Y21333D01*
X1073837Y21518D01*
X1073893Y21685D01*
X1073948Y21833D01*
X1073967Y21925D01*
X1073985Y21962D01*
X1074022Y22147D01*
X1074059Y22351D01*
X1074096Y22573D01*
X1074115Y22814D01*
X1074152Y23333D01*
X1074170Y23851D01*
X1074189Y24092D01*
Y24332D01*
X1074207Y24536D01*
Y24721D01*
Y24869D01*
Y24999D01*
Y25073D01*
Y25092D01*
Y25499D01*
X1074189Y25888D01*
Y26221D01*
X1074170Y26554D01*
X1074152Y26832D01*
X1074133Y27110D01*
X1074115Y27332D01*
X1074078Y27554D01*
X1074059Y27739D01*
X1074041Y27887D01*
X1074022Y28017D01*
X1074004Y28128D01*
X1073985Y28202D01*
Y28276D01*
X1073967Y28295D01*
Y28313D01*
X1073893Y28573D01*
X1073800Y28795D01*
X1073726Y28962D01*
X1073633Y29110D01*
X1073559Y29202D01*
X1073504Y29276D01*
X1073467Y29313D01*
X1073448Y29332D01*
X1073318Y29424D01*
X1073170Y29499D01*
X1073041Y29554D01*
X1072911Y29591D01*
X1072819Y29610D01*
X1072726Y29628D01*
D02*
G37*
G36*
X1062801Y29721D02*
X1062690D01*
X1062449Y29702D01*
X1062227Y29647D01*
X1062042Y29591D01*
X1061875Y29517D01*
X1061746Y29424D01*
X1061653Y29369D01*
X1061598Y29313D01*
X1061579Y29295D01*
X1061431Y29128D01*
X1061338Y28943D01*
X1061264Y28758D01*
X1061209Y28573D01*
X1061172Y28424D01*
X1061153Y28295D01*
Y28221D01*
Y28184D01*
X1061172Y27925D01*
X1061227Y27684D01*
X1061283Y27499D01*
X1061357Y27332D01*
X1061449Y27184D01*
X1061505Y27091D01*
X1061560Y27036D01*
X1061579Y27017D01*
X1061746Y26888D01*
X1061931Y26776D01*
X1062116Y26702D01*
X1062301Y26665D01*
X1062468Y26628D01*
X1062597Y26610D01*
X1062709D01*
X1062949Y26628D01*
X1063171Y26665D01*
X1063356Y26739D01*
X1063523Y26814D01*
X1063653Y26888D01*
X1063745Y26962D01*
X1063801Y26999D01*
X1063820Y27017D01*
X1063949Y27184D01*
X1064060Y27369D01*
X1064134Y27554D01*
X1064171Y27739D01*
X1064208Y27906D01*
X1064227Y28036D01*
Y28128D01*
Y28165D01*
X1064208Y28424D01*
X1064171Y28647D01*
X1064097Y28832D01*
X1064023Y28998D01*
X1063949Y29128D01*
X1063875Y29221D01*
X1063838Y29276D01*
X1063820Y29295D01*
X1063653Y29443D01*
X1063468Y29536D01*
X1063282Y29610D01*
X1063097Y29665D01*
X1062931Y29702D01*
X1062801Y29721D01*
D02*
G37*
G36*
X1062820Y24666D02*
X1062671D01*
X1062394Y24647D01*
X1062134Y24573D01*
X1061912Y24499D01*
X1061727Y24388D01*
X1061579Y24295D01*
X1061468Y24203D01*
X1061394Y24129D01*
X1061375Y24110D01*
X1061209Y23888D01*
X1061079Y23647D01*
X1060986Y23407D01*
X1060912Y23166D01*
X1060875Y22962D01*
X1060857Y22796D01*
Y22684D01*
Y22666D01*
Y22647D01*
X1060875Y22277D01*
X1060931Y21962D01*
X1061023Y21685D01*
X1061116Y21462D01*
X1061209Y21277D01*
X1061301Y21166D01*
X1061357Y21073D01*
X1061375Y21055D01*
X1061579Y20870D01*
X1061783Y20740D01*
X1061986Y20647D01*
X1062190Y20592D01*
X1062375Y20555D01*
X1062505Y20518D01*
X1062634D01*
X1062912Y20536D01*
X1063171Y20610D01*
X1063394Y20703D01*
X1063579Y20796D01*
X1063727Y20907D01*
X1063838Y20981D01*
X1063912Y21055D01*
X1063931Y21073D01*
X1064097Y21314D01*
X1064227Y21573D01*
X1064319Y21833D01*
X1064375Y22092D01*
X1064412Y22332D01*
X1064449Y22518D01*
Y22592D01*
Y22647D01*
Y22666D01*
Y22684D01*
X1064430Y22944D01*
X1064375Y23203D01*
X1064319Y23425D01*
X1064227Y23629D01*
X1064153Y23795D01*
X1064097Y23925D01*
X1064042Y23999D01*
X1064023Y24036D01*
X1063838Y24240D01*
X1063616Y24406D01*
X1063394Y24518D01*
X1063171Y24592D01*
X1062986Y24629D01*
X1062820Y24666D01*
D02*
G37*
G36*
X1238950Y98591D02*
X1238875D01*
X1238709Y98573D01*
X1238561Y98554D01*
X1238431Y98499D01*
X1238320Y98443D01*
X1238227Y98388D01*
X1238153Y98351D01*
X1238116Y98314D01*
X1238098Y98295D01*
X1237987Y98166D01*
X1237876Y97999D01*
X1237783Y97814D01*
X1237690Y97629D01*
X1237635Y97443D01*
X1237579Y97295D01*
X1237561Y97203D01*
X1237542Y97184D01*
Y97166D01*
X1237505Y96999D01*
X1237468Y96795D01*
X1237431Y96555D01*
X1237394Y96314D01*
X1237357Y95814D01*
X1237338Y95295D01*
X1237320Y95055D01*
Y94814D01*
X1237301Y94610D01*
Y94425D01*
Y94277D01*
Y94148D01*
Y94073D01*
Y94055D01*
Y93647D01*
X1237320Y93259D01*
Y92907D01*
X1237338Y92592D01*
X1237357Y92296D01*
X1237376Y92037D01*
X1237413Y91796D01*
X1237431Y91592D01*
X1237450Y91407D01*
X1237487Y91259D01*
X1237505Y91129D01*
X1237524Y91018D01*
X1237542Y90944D01*
Y90870D01*
X1237561Y90851D01*
Y90833D01*
X1237635Y90574D01*
X1237727Y90370D01*
X1237820Y90185D01*
X1237894Y90055D01*
X1237968Y89944D01*
X1238042Y89870D01*
X1238079Y89833D01*
X1238098Y89815D01*
X1238227Y89722D01*
X1238357Y89648D01*
X1238487Y89611D01*
X1238616Y89574D01*
X1238709Y89555D01*
X1238801Y89537D01*
X1238875D01*
X1239042Y89555D01*
X1239190Y89574D01*
X1239320Y89629D01*
X1239431Y89685D01*
X1239523Y89722D01*
X1239597Y89777D01*
X1239635Y89796D01*
X1239653Y89815D01*
X1239764Y89944D01*
X1239875Y90111D01*
X1239968Y90296D01*
X1240061Y90481D01*
X1240116Y90648D01*
X1240172Y90796D01*
X1240190Y90889D01*
X1240209Y90926D01*
X1240246Y91111D01*
X1240283Y91314D01*
X1240320Y91537D01*
X1240338Y91777D01*
X1240375Y92296D01*
X1240394Y92814D01*
X1240412Y93055D01*
Y93296D01*
X1240431Y93499D01*
Y93685D01*
Y93833D01*
Y93962D01*
Y94036D01*
Y94055D01*
Y94462D01*
X1240412Y94851D01*
Y95184D01*
X1240394Y95518D01*
X1240375Y95795D01*
X1240357Y96073D01*
X1240338Y96295D01*
X1240301Y96518D01*
X1240283Y96703D01*
X1240264Y96851D01*
X1240246Y96980D01*
X1240227Y97092D01*
X1240209Y97166D01*
Y97240D01*
X1240190Y97258D01*
Y97277D01*
X1240116Y97536D01*
X1240023Y97758D01*
X1239949Y97925D01*
X1239857Y98073D01*
X1239783Y98166D01*
X1239727Y98240D01*
X1239690Y98277D01*
X1239672Y98295D01*
X1239542Y98388D01*
X1239394Y98462D01*
X1239264Y98517D01*
X1239135Y98554D01*
X1239042Y98573D01*
X1238950Y98591D01*
D02*
G37*
G36*
X1229025Y98684D02*
X1228913D01*
X1228673Y98666D01*
X1228451Y98610D01*
X1228265Y98554D01*
X1228099Y98480D01*
X1227969Y98388D01*
X1227877Y98332D01*
X1227821Y98277D01*
X1227803Y98258D01*
X1227654Y98091D01*
X1227562Y97906D01*
X1227488Y97721D01*
X1227432Y97536D01*
X1227395Y97388D01*
X1227377Y97258D01*
Y97184D01*
Y97147D01*
X1227395Y96888D01*
X1227451Y96647D01*
X1227506Y96462D01*
X1227580Y96295D01*
X1227673Y96147D01*
X1227728Y96055D01*
X1227784Y95999D01*
X1227803Y95981D01*
X1227969Y95851D01*
X1228154Y95740D01*
X1228339Y95666D01*
X1228525Y95629D01*
X1228691Y95592D01*
X1228821Y95573D01*
X1228932D01*
X1229173Y95592D01*
X1229395Y95629D01*
X1229580Y95703D01*
X1229747Y95777D01*
X1229876Y95851D01*
X1229969Y95925D01*
X1230024Y95962D01*
X1230043Y95981D01*
X1230173Y96147D01*
X1230284Y96332D01*
X1230358Y96518D01*
X1230395Y96703D01*
X1230432Y96869D01*
X1230450Y96999D01*
Y97092D01*
Y97129D01*
X1230432Y97388D01*
X1230395Y97610D01*
X1230321Y97795D01*
X1230247Y97962D01*
X1230173Y98091D01*
X1230098Y98184D01*
X1230061Y98240D01*
X1230043Y98258D01*
X1229876Y98406D01*
X1229691Y98499D01*
X1229506Y98573D01*
X1229321Y98629D01*
X1229154Y98666D01*
X1229025Y98684D01*
D02*
G37*
G36*
X1229043Y93629D02*
X1228895D01*
X1228617Y93610D01*
X1228358Y93536D01*
X1228136Y93462D01*
X1227951Y93351D01*
X1227803Y93259D01*
X1227691Y93166D01*
X1227617Y93092D01*
X1227599Y93074D01*
X1227432Y92851D01*
X1227302Y92611D01*
X1227210Y92370D01*
X1227136Y92129D01*
X1227099Y91925D01*
X1227080Y91759D01*
Y91648D01*
Y91629D01*
Y91611D01*
X1227099Y91240D01*
X1227154Y90926D01*
X1227247Y90648D01*
X1227340Y90426D01*
X1227432Y90240D01*
X1227525Y90129D01*
X1227580Y90037D01*
X1227599Y90018D01*
X1227803Y89833D01*
X1228006Y89704D01*
X1228210Y89611D01*
X1228413Y89555D01*
X1228599Y89518D01*
X1228728Y89481D01*
X1228858D01*
X1229136Y89500D01*
X1229395Y89574D01*
X1229617Y89666D01*
X1229802Y89759D01*
X1229950Y89870D01*
X1230061Y89944D01*
X1230136Y90018D01*
X1230154Y90037D01*
X1230321Y90278D01*
X1230450Y90537D01*
X1230543Y90796D01*
X1230599Y91055D01*
X1230636Y91296D01*
X1230673Y91481D01*
Y91555D01*
Y91611D01*
Y91629D01*
Y91648D01*
X1230654Y91907D01*
X1230599Y92166D01*
X1230543Y92388D01*
X1230450Y92592D01*
X1230376Y92759D01*
X1230321Y92888D01*
X1230265Y92962D01*
X1230247Y92999D01*
X1230061Y93203D01*
X1229839Y93370D01*
X1229617Y93481D01*
X1229395Y93555D01*
X1229210Y93592D01*
X1229043Y93629D01*
D02*
G37*
G36*
X1209841Y72185D02*
X1209823D01*
Y71685D01*
Y71389D01*
X1209841Y71129D01*
X1209860Y70926D01*
X1209878Y70759D01*
X1209897Y70648D01*
X1209915Y70555D01*
X1209934Y70518D01*
Y70500D01*
X1209989Y70333D01*
X1210082Y70166D01*
X1210175Y70037D01*
X1210267Y69907D01*
X1210360Y69815D01*
X1210434Y69741D01*
X1210490Y69703D01*
X1210508Y69685D01*
X1210730Y69537D01*
X1210971Y69444D01*
X1211175Y69370D01*
X1211378Y69315D01*
X1211545Y69278D01*
X1211674Y69259D01*
X1211786D01*
X1211989Y69278D01*
X1212193Y69315D01*
X1212360Y69370D01*
X1212489Y69444D01*
X1212619Y69518D01*
X1212693Y69574D01*
X1212748Y69611D01*
X1212767Y69629D01*
X1212897Y69777D01*
X1212989Y69926D01*
X1213045Y70074D01*
X1213082Y70222D01*
X1213119Y70333D01*
X1213137Y70426D01*
Y70500D01*
Y70518D01*
X1213119Y70703D01*
X1213063Y70870D01*
X1212989Y71018D01*
X1212897Y71148D01*
X1212822Y71240D01*
X1212748Y71314D01*
X1212693Y71351D01*
X1212674Y71370D01*
X1212526Y71444D01*
X1212341Y71537D01*
X1212119Y71611D01*
X1211897Y71666D01*
X1211674Y71722D01*
X1211508Y71759D01*
X1211434Y71777D01*
X1211378Y71796D01*
X1211341D01*
X1210971Y71870D01*
X1210675Y71944D01*
X1210397Y72018D01*
X1210193Y72074D01*
X1210026Y72129D01*
X1209915Y72148D01*
X1209841Y72185D01*
D02*
G37*
G36*
X1179548Y75351D02*
X1179419D01*
X1179141Y75332D01*
X1178900Y75258D01*
X1178678Y75166D01*
X1178493Y75073D01*
X1178345Y74962D01*
X1178233Y74870D01*
X1178159Y74795D01*
X1178141Y74777D01*
X1177974Y74555D01*
X1177826Y74296D01*
X1177734Y74018D01*
X1177660Y73759D01*
X1177623Y73536D01*
X1177604Y73333D01*
X1177586Y73259D01*
Y73222D01*
Y73185D01*
Y73166D01*
X1181252D01*
X1181233Y73518D01*
X1181178Y73833D01*
X1181104Y74110D01*
X1180993Y74333D01*
X1180900Y74518D01*
X1180807Y74647D01*
X1180752Y74740D01*
X1180733Y74759D01*
X1180530Y74962D01*
X1180307Y75110D01*
X1180085Y75203D01*
X1179882Y75277D01*
X1179696Y75314D01*
X1179548Y75351D01*
D02*
G37*
G36*
X1262577Y75240D02*
X1262484D01*
X1262132Y75203D01*
X1261817Y75129D01*
X1261558Y74999D01*
X1261318Y74870D01*
X1261132Y74740D01*
X1260984Y74610D01*
X1260910Y74536D01*
X1260873Y74499D01*
X1260651Y74203D01*
X1260484Y73851D01*
X1260373Y73499D01*
X1260281Y73166D01*
X1260244Y72870D01*
X1260225Y72722D01*
Y72611D01*
X1260207Y72518D01*
Y72444D01*
Y72407D01*
Y72388D01*
X1260244Y71907D01*
X1260318Y71463D01*
X1260410Y71111D01*
X1260540Y70796D01*
X1260669Y70574D01*
X1260762Y70389D01*
X1260836Y70296D01*
X1260873Y70259D01*
X1261132Y70018D01*
X1261392Y69833D01*
X1261669Y69722D01*
X1261929Y69629D01*
X1262151Y69574D01*
X1262317Y69555D01*
X1262392Y69537D01*
X1262484D01*
X1262836Y69574D01*
X1263151Y69648D01*
X1263428Y69759D01*
X1263651Y69907D01*
X1263854Y70037D01*
X1264002Y70148D01*
X1264077Y70222D01*
X1264113Y70259D01*
X1264336Y70555D01*
X1264484Y70907D01*
X1264595Y71259D01*
X1264688Y71611D01*
X1264725Y71907D01*
X1264743Y72037D01*
Y72166D01*
X1264762Y72259D01*
Y72333D01*
Y72370D01*
Y72388D01*
X1264725Y72870D01*
X1264650Y73296D01*
X1264558Y73666D01*
X1264428Y73962D01*
X1264317Y74184D01*
X1264206Y74370D01*
X1264132Y74462D01*
X1264113Y74499D01*
X1263854Y74740D01*
X1263577Y74925D01*
X1263299Y75055D01*
X1263040Y75147D01*
X1262817Y75203D01*
X1262651Y75221D01*
X1262577Y75240D01*
D02*
G37*
G36*
X1247282Y78684D02*
X1247171D01*
X1246930Y78665D01*
X1246708Y78610D01*
X1246523Y78554D01*
X1246356Y78480D01*
X1246227Y78388D01*
X1246134Y78332D01*
X1246078Y78277D01*
X1246060Y78258D01*
X1245912Y78092D01*
X1245819Y77906D01*
X1245745Y77721D01*
X1245689Y77536D01*
X1245652Y77388D01*
X1245634Y77258D01*
Y77184D01*
Y77147D01*
X1245652Y76888D01*
X1245708Y76647D01*
X1245764Y76462D01*
X1245838Y76295D01*
X1245930Y76147D01*
X1245986Y76055D01*
X1246041Y75999D01*
X1246060Y75981D01*
X1246227Y75851D01*
X1246412Y75740D01*
X1246597Y75666D01*
X1246782Y75629D01*
X1246949Y75592D01*
X1247078Y75573D01*
X1247189D01*
X1247430Y75592D01*
X1247652Y75629D01*
X1247837Y75703D01*
X1248004Y75777D01*
X1248134Y75851D01*
X1248226Y75925D01*
X1248282Y75962D01*
X1248300Y75981D01*
X1248430Y76147D01*
X1248541Y76332D01*
X1248615Y76518D01*
X1248652Y76703D01*
X1248689Y76869D01*
X1248708Y76999D01*
Y77092D01*
Y77129D01*
X1248689Y77388D01*
X1248652Y77610D01*
X1248578Y77795D01*
X1248504Y77962D01*
X1248430Y78092D01*
X1248356Y78184D01*
X1248319Y78240D01*
X1248300Y78258D01*
X1248134Y78406D01*
X1247949Y78499D01*
X1247763Y78573D01*
X1247578Y78629D01*
X1247412Y78665D01*
X1247282Y78684D01*
D02*
G37*
G36*
X1247300Y73629D02*
X1247152D01*
X1246875Y73611D01*
X1246615Y73536D01*
X1246393Y73462D01*
X1246208Y73351D01*
X1246060Y73259D01*
X1245949Y73166D01*
X1245875Y73092D01*
X1245856Y73074D01*
X1245689Y72851D01*
X1245560Y72611D01*
X1245467Y72370D01*
X1245393Y72129D01*
X1245356Y71926D01*
X1245338Y71759D01*
Y71648D01*
Y71629D01*
Y71611D01*
X1245356Y71240D01*
X1245412Y70926D01*
X1245504Y70648D01*
X1245597Y70426D01*
X1245689Y70241D01*
X1245782Y70129D01*
X1245838Y70037D01*
X1245856Y70018D01*
X1246060Y69833D01*
X1246264Y69703D01*
X1246467Y69611D01*
X1246671Y69555D01*
X1246856Y69518D01*
X1246986Y69481D01*
X1247115D01*
X1247393Y69500D01*
X1247652Y69574D01*
X1247875Y69667D01*
X1248060Y69759D01*
X1248208Y69870D01*
X1248319Y69944D01*
X1248393Y70018D01*
X1248411Y70037D01*
X1248578Y70278D01*
X1248708Y70537D01*
X1248800Y70796D01*
X1248856Y71055D01*
X1248893Y71296D01*
X1248930Y71481D01*
Y71555D01*
Y71611D01*
Y71629D01*
Y71648D01*
X1248911Y71907D01*
X1248856Y72166D01*
X1248800Y72388D01*
X1248708Y72592D01*
X1248634Y72759D01*
X1248578Y72888D01*
X1248522Y72962D01*
X1248504Y72999D01*
X1248319Y73203D01*
X1248097Y73370D01*
X1247875Y73481D01*
X1247652Y73555D01*
X1247467Y73592D01*
X1247300Y73629D01*
D02*
G37*
G36*
X1133281Y98591D02*
X1133207D01*
X1133040Y98573D01*
X1132892Y98554D01*
X1132763Y98499D01*
X1132652Y98443D01*
X1132559Y98388D01*
X1132485Y98351D01*
X1132448Y98314D01*
X1132429Y98295D01*
X1132318Y98166D01*
X1132207Y97999D01*
X1132114Y97814D01*
X1132022Y97629D01*
X1131966Y97443D01*
X1131911Y97295D01*
X1131892Y97203D01*
X1131874Y97184D01*
Y97166D01*
X1131837Y96999D01*
X1131800Y96795D01*
X1131763Y96555D01*
X1131726Y96314D01*
X1131689Y95814D01*
X1131670Y95295D01*
X1131652Y95055D01*
Y94814D01*
X1131633Y94610D01*
Y94425D01*
Y94277D01*
Y94148D01*
Y94073D01*
Y94055D01*
Y93647D01*
X1131652Y93259D01*
Y92907D01*
X1131670Y92592D01*
X1131689Y92296D01*
X1131707Y92037D01*
X1131744Y91796D01*
X1131763Y91592D01*
X1131781Y91407D01*
X1131818Y91259D01*
X1131837Y91129D01*
X1131855Y91018D01*
X1131874Y90944D01*
Y90870D01*
X1131892Y90851D01*
Y90833D01*
X1131966Y90574D01*
X1132059Y90370D01*
X1132151Y90185D01*
X1132226Y90055D01*
X1132300Y89944D01*
X1132374Y89870D01*
X1132411Y89833D01*
X1132429Y89815D01*
X1132559Y89722D01*
X1132689Y89648D01*
X1132818Y89611D01*
X1132948Y89574D01*
X1133040Y89555D01*
X1133133Y89537D01*
X1133207D01*
X1133374Y89555D01*
X1133522Y89574D01*
X1133651Y89629D01*
X1133763Y89685D01*
X1133855Y89722D01*
X1133929Y89777D01*
X1133966Y89796D01*
X1133985Y89815D01*
X1134096Y89944D01*
X1134207Y90111D01*
X1134299Y90296D01*
X1134392Y90481D01*
X1134448Y90648D01*
X1134503Y90796D01*
X1134522Y90889D01*
X1134540Y90926D01*
X1134577Y91111D01*
X1134614Y91314D01*
X1134651Y91537D01*
X1134670Y91777D01*
X1134707Y92296D01*
X1134725Y92814D01*
X1134744Y93055D01*
Y93296D01*
X1134762Y93499D01*
Y93685D01*
Y93833D01*
Y93962D01*
Y94036D01*
Y94055D01*
Y94462D01*
X1134744Y94851D01*
Y95184D01*
X1134725Y95518D01*
X1134707Y95795D01*
X1134688Y96073D01*
X1134670Y96295D01*
X1134633Y96518D01*
X1134614Y96703D01*
X1134596Y96851D01*
X1134577Y96980D01*
X1134559Y97092D01*
X1134540Y97166D01*
Y97240D01*
X1134522Y97258D01*
Y97277D01*
X1134448Y97536D01*
X1134355Y97758D01*
X1134281Y97925D01*
X1134188Y98073D01*
X1134114Y98166D01*
X1134059Y98240D01*
X1134022Y98277D01*
X1134003Y98295D01*
X1133874Y98388D01*
X1133725Y98462D01*
X1133596Y98517D01*
X1133466Y98554D01*
X1133374Y98573D01*
X1133281Y98591D01*
D02*
G37*
%LPD*%
D11*
X244679Y110356D02*
G03*
X275321Y110356I15321J-12856D01*
G01*
X634679D02*
G03*
X665321Y110356I15321J-12856D01*
G01*
X294000Y10500D02*
Y69500D01*
Y10500D02*
X339000D01*
X339000Y69500D02*
X339000Y10500D01*
X294000Y69500D02*
X339000D01*
X125000Y70000D02*
G03*
X115000Y80000I-10000J0D01*
G01*
X125000Y0D02*
Y70000D01*
X0Y80000D02*
X115000D01*
X0D02*
Y365000D01*
X125000Y0D02*
X1300000D01*
Y365000D01*
X0D02*
X1300000D01*
D14*
X260000Y62500D02*
Y72500D01*
X262500Y70000D01*
X257500D02*
X260000Y72500D01*
X365000Y37500D02*
X395000D01*
X380000D02*
Y45000D01*
Y22500D02*
Y30000D01*
Y15000D02*
Y22500D01*
X365000Y15000D02*
X380000D01*
X367500Y55000D02*
X372500D01*
X380000Y45000D02*
Y55000D01*
X372500D02*
X380000D01*
X647500Y70000D02*
X650000Y72500D01*
X652500Y70000D01*
X650000Y62500D02*
Y72500D01*
X840000Y270000D02*
X850000Y280000D01*
X790000Y220000D02*
X840000Y270000D01*
X450000Y270000D02*
X460000Y280000D01*
X320000Y270000D02*
X330000Y280000D01*
X190000Y270000D02*
X200000Y280000D01*
X70000Y260000D02*
Y280000D01*
X10000Y200000D02*
X70000Y260000D01*
X10000Y180000D02*
Y200000D01*
X20000Y180000D02*
Y200000D01*
X30000Y180000D02*
Y200000D01*
X40000Y180000D02*
Y200000D01*
X50000Y180000D02*
Y200000D01*
X60000Y180000D02*
Y200000D01*
X70000Y180000D02*
Y200000D01*
X70000D02*
X70000D01*
X90000Y220000D01*
X80000Y180000D02*
Y200000D01*
X20000Y200000D02*
X90000Y270000D01*
X30000Y200000D02*
X90000Y260000D01*
X40000Y200000D02*
X90000Y250000D01*
X50000Y200000D02*
X90000Y240000D01*
X60000Y200000D02*
X90000Y230000D01*
X80000Y200000D02*
X90000Y210000D01*
Y270000D02*
X190000D01*
X90000Y260000D02*
X310000D01*
X320000Y270000D01*
X90000Y250000D02*
X430000D01*
X450000Y270000D01*
X90000Y240000D02*
X550000D01*
X590000Y280000D01*
X90000Y230000D02*
X670000D01*
X720000Y280000D01*
X90000Y220000D02*
X790000D01*
X90000Y210000D02*
X910000D01*
X980000Y280000D01*
X1057500Y57500D02*
X1287500Y57500D01*
D16*
X372500Y30000D02*
X387500D01*
M02*
