M48
;Layer_Color=9474304
;FILE_FORMAT=2:5
INCH,LZ
;TYPE=PLATED
T1F00S00C0.00787
T2F00S00C0.01181
T5F00S00C0.02756
T6F00S00C0.03543
T7F00S00C0.05906
T8F00S00C0.07874
%
T01
X0388583Y0011811
X0392913
X0397244
Y0016142
X0392913
X0388583
Y0020472
X0392913
X0397244
T02
X0109252Y000689
Y0014764
Y0023012
X0154527Y0016732
X0158465
X0162402
X0175197Y0015748
X0180118Y0012795
X0181595Y0020571
X0178347Y002313
X01757Y0025775
X0164567Y0029528
X0152756Y0031102
X0153543Y0002953
X0148622
X0195866Y0008858
X0199606Y0009449
X02Y001378
X0202756Y0011417
X0202067Y0017126
Y0022244
X0198819Y0024803
Y0019685
X0208661Y0009646
X021752Y0002953
X0222441Y0003937
X0229331
X0240158Y0007087
X0239173Y0016732
X0235236
X022062Y0025738
X0262795Y001378
X0258869Y0008353
X0284449Y001378
X028937
X029626
X0297638Y0020866
Y0023622
X0280167Y0025689
X0289853Y0004035
X0322047Y0015748
X0325197
X0362205Y0011811
X037126Y002126
X0374803
X0378346
Y0024803
X0374803
X038189Y0026575
Y003248
X0379134Y0016929
Y001378
X0379921Y0007874
X0356962Y0028571
X0405118Y0029921
X0403937Y0033071
X0413386Y0033465
X0424213Y0037402
X0429134Y0020669
Y0016732
X0449803Y0023622
Y0034449
X0449646Y0039213
X0449803Y0043307
X0430709Y004374
Y004874
Y005374
Y005874
Y006374
Y006874
Y007374
Y007874
X0447835Y008563
X0445669Y0088583
X0445525Y009373
X0443898Y0098059
X0406496Y0105315
Y0108268
Y0111221
X0418307Y0057087
X0490763Y0059054
X049065Y0079232
X049811Y008374
Y008874
X0395266Y0085039
X0376457Y008809
X0379921Y0069685
X0336614
X032874
X0318898Y0068898
X0304724
X0285433Y0069685
X0277559
X0274095Y008809
X0249685
X0264094Y0112697
X0274606Y0117126
X0278543
X0290866Y0112697
X0315276
X0325787Y0117126
X0329724
X0342047Y0112697
X0366457
X0376969Y0117126
X0380906
X0393228Y0112697
X0352047Y008809
X0325276
X0300866
X0222913
X0226378Y0069685
X0234252
X0200787Y0069882
X0202756Y0084646
X0198504Y008809
X0171732
X0175197Y0069685
X0183071
X0188504Y0112697
X0176181Y0117126
X0172244
X0161732Y0112697
X0137323
X0125Y0117126
X0121063
X0110551Y0112697
X0086142
X0096142Y008809
X0120551
X0124016Y0069685
X013189
X0147323Y008809
X0212913Y0112697
X0223425Y0117126
X0227362
X0239685Y0112697
X0073819Y0117126
X0069882
X005937Y0112697
X0034961Y0112698
X0022638Y0117128
X0018701
X0008189Y0112698
X0018189Y0088092
X0021654Y0069687
X0029528Y0070472
X0052362Y0074803
X0044961Y0088092
X006937Y008809
X0072835Y0069685
X0080709
T05
X0122441Y0011811
Y0019685
T06
X001559Y0039057
X0025591
X0035591
X0066772Y0039055
X0076772
X0086772
X0117953
X0127953
X0137953
X0169134
X0179134
X0189134
X0220315
X0230315
X0240315
X0271496
X0281496
X0291496
X0322677
X0332677
X0342677
X0373858
X0383858
X0393858
X0403858Y0049055
X0393858Y0059055
X0383858
X0373858
X0363858Y0049055
X0352677
X0342677Y0059055
X0332677
X0322677
X0312677Y0049055
X0301496
X0291496Y0059055
X0281496
X0271496
X0261496Y0049055
X0250315
X0240315Y0059055
X0230315
X0220315
X0210315Y0049055
X0199134
X0189134Y0059055
X0179134
X0169134
X0159134Y0049055
X0147953
X0137953Y0059055
X0127953
X0117953
X0107953Y0049055
X0096772
X0086772Y0059055
X0076772
X0066772
X0056772Y0049055
X0045591Y0049057
X0035591Y0059057
X0025591
X001559
X0005591Y0049057
T07
X0462598Y0069291
X0472441
Y0079134
X0462598
T08
X0102362Y0038386
X0255906
M30
